<?xml version="1.0" encoding="utf-8"?>
<!-- Generator: Adobe Illustrator 15.1.0, SVG Export Plug-In . SVG Version: 6.00 Build 0)  -->
<!DOCTYPE svg PUBLIC "-//W3C//DTD SVG 1.1//EN" "http://www.w3.org/Graphics/SVG/1.1/DTD/svg11.dtd">
<svg version="1.1" id="Layer_1" xmlns="http://www.w3.org/2000/svg" xmlns:xlink="http://www.w3.org/1999/xlink" x="0px" y="0px"
	 width="291.53px" height="52.766px" viewBox="0 0 291.53 52.766" enable-background="new 0 0 291.53 52.766" xml:space="preserve">
<path d="M56.668,33.506c-1.146-1.066-3.013-2.234-5.605-3.503c-4.917-2.396-7.544-4.151-7.375-6.926
	c0.316-5.23,7.202-3.53,12.637-1.93l2.087-5.921c-3.042-1.093-9.23-2.512-14.499-2.512c-3.438,0-6.253,0.987-8.447,2.961
	c-2.195,1.973-3.292,4.458-3.292,7.455c0,1.603,0.277,3.067,0.832,4.388c0.556,1.321,1.349,2.463,2.379,3.424
	c1.031,0.96,3.031,2.186,6.001,3.675c2.97,1.49,4.93,2.833,5.882,4.032c0.952,1.198,1.529,2.788,0.916,4.285
	c-2.132,5.199-12.901,1.328-13.553,0.87l-2.538,6.16c2.908,1.869,7.03,2.803,14.421,2.803c4.159,0,7.478-1.014,9.954-3.039
	c2.477-2.027,3.714-4.609,3.714-7.748c0-1.744-0.299-3.327-0.898-4.745C58.686,35.815,57.813,34.572,56.668,33.506"/>
<polygon points="93.506,13.374 66.077,13.374 63.879,13.374 61.438,13.374 61.438,19.481 63.879,19.481 66.077,19.481 
	73.757,19.481 73.757,52.104 76.199,52.104 78.397,52.104 80.63,52.104 83.072,52.104 85.27,52.104 85.27,19.481 93.506,19.481 
	95.948,19.481 98.146,19.481 98.146,13.374 95.948,13.374 "/>
<polygon points="125.97,13.374 105.889,13.374 103.691,13.374 101.25,13.374 101.25,52.104 103.691,52.104 105.889,52.104 
	125.678,52.104 128.119,52.104 130.317,52.104 130.317,45.998 128.119,45.998 125.678,45.998 112.763,45.998 112.763,34.392 
	120.919,34.392 123.361,34.392 125.559,34.392 125.559,28.549 123.361,28.549 120.919,28.549 112.763,28.549 112.763,19.481 
	125.97,19.481 128.411,19.481 130.609,19.481 130.609,13.374 128.411,13.374 "/>
<polygon points="142.305,13.374 140.068,13.374 137.871,13.374 135.429,13.374 135.429,52.104 137.871,52.104 140.068,52.104 
	142.305,52.104 144.746,52.104 146.943,52.104 146.943,13.374 144.746,13.374 "/>
<polygon points="181.826,13.374 179.856,13.374 177.658,13.374 175.217,13.374 175.217,30.818 161.561,13.374 159.363,13.374 
	158.257,13.374 156.922,13.374 156.06,13.374 153.618,13.374 153.618,52.131 156.06,52.131 158.257,52.131 160.228,52.131 
	162.669,52.131 164.866,52.131 164.866,34.175 179.023,52.634 181.465,52.634 181.826,52.634 183.663,52.634 184.268,52.634 
	186.466,52.634 186.466,13.374 184.268,13.374 "/>
<polygon points="217.726,13.374 197.646,13.374 195.447,13.374 193.006,13.374 193.006,52.104 195.447,52.104 197.646,52.104 
	217.434,52.104 219.874,52.104 222.072,52.104 222.072,45.998 219.874,45.998 217.434,45.998 204.52,45.998 204.52,34.392 
	212.675,34.392 215.117,34.392 217.314,34.392 217.314,28.549 215.117,28.549 212.675,28.549 204.52,28.549 204.52,19.481 
	217.726,19.481 220.167,19.481 222.364,19.481 222.364,13.374 220.167,13.374 "/>
<path d="M250.015,34.656c2.061-0.776,3.771-2.106,5.129-3.992c1.355-1.886,2.034-3.975,2.034-6.266
	c0-7.614-4.917-11.421-14.752-11.421c-0.517,0-1.109,0.01-1.733,0.024c-0.164-0.001-0.299-0.024-0.464-0.024
	c-0.562,0-1.211,0.011-1.897,0.028c-0.189-0.002-0.351-0.028-0.543-0.028c-1.587,0-3.675,0.066-6.266,0.198
	c-2.593,0.134-4.081,0.199-4.468,0.199v38.73h2.441h2.197h2.497h2.441h2.198V36.538l10.061,15.567h2.441h2.198h3.291h2.441h2.198
	L250.015,34.656z M238.83,30.108v-10.76c0.129-0.018,0.242-0.012,0.369-0.026c1.719,0.167,3.094,0.491,4.062,1.004
	c1.426,0.758,2.141,2.088,2.141,3.992c0,2.345-0.667,3.922-1.996,4.732c-0.939,0.572-2.279,0.931-3.984,1.1
	C239.217,30.134,239.055,30.126,238.83,30.108z"/>
<path d="M264.24,0v27.374l27.29,8.841V0H264.24z M287.353,17.221h-5.891v5.888h-7.153v-5.888h-5.888v-7.152h5.888V4.178h7.153v5.891
	h5.891V17.221z"/>
<polygon points="27.29,27.374 0,36.215 0,31.084 27.29,22.243 "/>
</svg>
