<?xml version="1.0" encoding="utf-8"?>
<!-- Generator: Adobe Illustrator 15.1.0, SVG Export Plug-In . SVG Version: 6.00 Build 0)  -->
<!DOCTYPE svg PUBLIC "-//W3C//DTD SVG 1.1//EN" "http://www.w3.org/Graphics/SVG/1.1/DTD/svg11.dtd">
<svg version="1.1" id="Layer_1" xmlns="http://www.w3.org/2000/svg" xmlns:xlink="http://www.w3.org/1999/xlink" x="0px" y="0px"
	 width="377.777px" height="68.377px" viewBox="0 0 377.777 68.377" enable-background="new 0 0 377.777 68.377"
	 xml:space="preserve">
<rect x="345.131" y="3.118" fill-rule="evenodd" clip-rule="evenodd" fill="#FFFFFF" width="29.157" height="29.155"/>
<path fill="#333333" d="M73.431,42.418c-1.482-1.383-3.903-2.896-7.261-4.542c-6.372-3.102-9.778-5.377-9.559-8.974
	c0.41-6.777,9.333-4.573,16.375-2.5l2.708-7.673c-3.941-1.415-11.962-3.255-18.79-3.255c-4.453,0-8.102,1.28-10.946,3.837
	c-2.843,2.558-4.265,5.779-4.265,9.663c0,2.075,0.36,3.972,1.079,5.684c0.721,1.715,1.749,3.19,3.084,4.435
	c1.336,1.246,3.926,2.833,7.776,4.765c3.848,1.93,6.388,3.67,7.621,5.224c1.235,1.553,1.982,3.612,1.188,5.553
	c-2.763,6.736-16.719,1.723-17.562,1.129l-3.29,7.979c3.769,2.422,9.11,3.634,18.689,3.634c5.39,0,9.688-1.313,12.898-3.938
	c3.208-2.629,4.813-5.975,4.813-10.042c0-2.258-0.388-4.309-1.164-6.146C76.048,45.41,74.916,43.798,73.431,42.418"/>
<polygon fill="#333333" points="121.169,16.331 85.625,16.331 82.777,16.331 79.611,16.331 79.611,24.244 82.777,24.244 
	85.625,24.244 95.577,24.244 95.577,66.521 98.741,66.521 101.589,66.521 104.483,66.521 107.648,66.521 110.497,66.521 
	110.497,24.244 121.169,24.244 124.332,24.244 127.179,24.244 127.179,16.331 124.332,16.331 "/>
<polygon fill="#333333" points="163.235,16.331 137.215,16.331 134.365,16.331 131.202,16.331 131.202,66.521 134.365,66.521 
	137.215,66.521 162.857,66.521 166.022,66.521 168.87,66.521 168.87,58.604 166.022,58.604 162.857,58.604 146.125,58.604 
	146.125,43.565 156.692,43.565 159.854,43.565 162.704,43.565 162.704,35.994 159.854,35.994 156.692,35.994 146.125,35.994 
	146.125,24.244 163.235,24.244 166.4,24.244 169.25,24.244 169.25,16.331 166.4,16.331 "/>
<polygon fill="#333333" points="184.403,16.331 181.506,16.331 178.657,16.331 175.495,16.331 175.495,66.521 178.657,66.521 
	181.506,66.521 184.403,66.521 187.569,66.521 190.415,66.521 190.415,16.331 187.569,16.331 "/>
<polygon fill="#333333" points="235.617,16.331 233.063,16.331 230.216,16.331 227.055,16.331 227.055,38.935 209.356,16.331 
	206.509,16.331 205.075,16.331 203.345,16.331 202.229,16.331 199.063,16.331 199.063,66.554 202.229,66.554 205.075,66.554 
	207.631,66.554 210.793,66.554 213.64,66.554 213.64,43.283 231.986,67.203 235.149,67.203 235.617,67.203 238,67.203 
	238.781,67.203 241.63,67.203 241.63,16.331 238.781,16.331 "/>
<polygon fill="#333333" points="282.138,16.331 256.117,16.331 253.27,16.331 250.105,16.331 250.105,66.521 253.27,66.521 
	256.117,66.521 281.758,66.521 284.921,66.521 287.771,66.521 287.771,58.604 284.921,58.604 281.758,58.604 265.027,58.604 
	265.027,43.565 275.594,43.565 278.759,43.565 281.604,43.565 281.604,35.994 278.759,35.994 275.594,35.994 265.027,35.994 
	265.027,24.244 282.138,24.244 285.301,24.244 288.146,24.244 288.146,16.331 285.301,16.331 "/>
<path fill="#333333" d="M323.98,43.908c2.669-1.002,4.883-2.729,6.646-5.175c1.756-2.442,2.635-5.147,2.635-8.117
	c0-9.866-6.369-14.8-19.115-14.8c-0.667,0-1.438,0.013-2.243,0.031c-0.214-0.002-0.389-0.031-0.604-0.031
	c-0.729,0-1.569,0.013-2.46,0.036c-0.243-0.004-0.451-0.036-0.702-0.036c-2.057,0-4.764,0.087-8.12,0.257
	c-3.359,0.174-5.286,0.257-5.788,0.257v50.19h3.161h2.849h3.238h3.162h2.849V46.348l13.035,20.173h3.164h2.85h4.267h3.162h2.848
	L323.98,43.908z M309.486,38.014V24.073c0.166-0.022,0.312-0.016,0.479-0.033c2.227,0.215,4.007,0.635,5.262,1.299
	c1.849,0.983,2.775,2.708,2.775,5.175c0,3.037-0.864,5.079-2.587,6.131c-1.218,0.74-2.953,1.205-5.166,1.424
	C309.987,38.049,309.775,38.037,309.486,38.014z"/>
<path fill="#D1050C" d="M342.413,0v35.473l35.364,11.455V0H342.413z M372.363,22.316h-7.635v7.63h-9.268v-7.63h-7.629v-9.27h7.629
	V5.414h9.268v7.633h7.635V22.316z"/>
<polygon fill="#D1050C" points="35.362,34.473 0,45.927 0,39.279 35.362,27.822 "/>
</svg>
