<?xml version="1.0" encoding="utf-8"?>
<!-- Generator: Adobe Illustrator 15.1.0, SVG Export Plug-In . SVG Version: 6.00 Build 0)  -->
<!DOCTYPE svg PUBLIC "-//W3C//DTD SVG 1.1//EN" "http://www.w3.org/Graphics/SVG/1.1/DTD/svg11.dtd">
<svg version="1.1" id="Layer_1" xmlns="http://www.w3.org/2000/svg" xmlns:xlink="http://www.w3.org/1999/xlink" x="0px" y="0px"
	 width="291.53px" height="87.203px" viewBox="0 0 291.53 87.203" enable-background="new 0 0 291.53 87.203" xml:space="preserve">
<rect x="266.336" y="2.406" fill-rule="evenodd" clip-rule="evenodd" fill="#FFFFFF" width="22.501" height="22.5"/>
<path d="M56.668,33.506c-1.146-1.066-3.013-2.234-5.605-3.503c-4.917-2.396-7.544-4.151-7.375-6.926
	c0.316-5.23,7.202-3.53,12.637-1.93l2.087-5.921c-3.042-1.093-9.23-2.512-14.499-2.512c-3.438,0-6.253,0.987-8.447,2.961
	c-2.195,1.973-3.292,4.458-3.292,7.455c0,1.603,0.277,3.067,0.832,4.388c0.556,1.321,1.349,2.463,2.379,3.424
	c1.031,0.96,3.031,2.186,6.001,3.675c2.97,1.49,4.93,2.833,5.882,4.032c0.952,1.198,1.529,2.788,0.916,4.285
	c-2.132,5.199-12.901,1.328-13.553,0.87l-2.538,6.16c2.908,1.869,7.03,2.803,14.421,2.803c4.159,0,7.478-1.014,9.954-3.039
	c2.477-2.027,3.714-4.609,3.714-7.748c0-1.744-0.299-3.327-0.898-4.745C58.686,35.815,57.813,34.572,56.668,33.506"/>
<polygon points="93.506,13.374 66.077,13.374 63.879,13.374 61.438,13.374 61.438,19.481 63.879,19.481 66.077,19.481 
	73.757,19.481 73.757,52.104 76.199,52.104 78.397,52.104 80.63,52.104 83.072,52.104 85.27,52.104 85.27,19.481 93.506,19.481 
	95.948,19.481 98.146,19.481 98.146,13.374 95.948,13.374 "/>
<polygon points="125.97,13.374 105.889,13.374 103.691,13.374 101.25,13.374 101.25,52.104 103.691,52.104 105.889,52.104 
	125.678,52.104 128.119,52.104 130.317,52.104 130.317,45.998 128.119,45.998 125.678,45.998 112.763,45.998 112.763,34.392 
	120.919,34.392 123.361,34.392 125.559,34.392 125.559,28.549 123.361,28.549 120.919,28.549 112.763,28.549 112.763,19.481 
	125.97,19.481 128.411,19.481 130.609,19.481 130.609,13.374 128.411,13.374 "/>
<polygon points="142.305,13.374 140.068,13.374 137.871,13.374 135.429,13.374 135.429,52.104 137.871,52.104 140.068,52.104 
	142.305,52.104 144.746,52.104 146.943,52.104 146.943,13.374 144.746,13.374 "/>
<polygon points="181.826,13.374 179.856,13.374 177.658,13.374 175.217,13.374 175.217,30.818 161.561,13.374 159.363,13.374 
	158.257,13.374 156.922,13.374 156.06,13.374 153.618,13.374 153.618,52.131 156.06,52.131 158.257,52.131 160.228,52.131 
	162.669,52.131 164.866,52.131 164.866,34.175 179.023,52.634 181.465,52.634 181.826,52.634 183.663,52.634 184.268,52.634 
	186.466,52.634 186.466,13.374 184.268,13.374 "/>
<polygon points="217.726,13.374 197.646,13.374 195.447,13.374 193.006,13.374 193.006,52.104 195.447,52.104 197.646,52.104 
	217.434,52.104 219.874,52.104 222.072,52.104 222.072,45.998 219.874,45.998 217.434,45.998 204.52,45.998 204.52,34.392 
	212.675,34.392 215.117,34.392 217.314,34.392 217.314,28.549 215.117,28.549 212.675,28.549 204.52,28.549 204.52,19.481 
	217.726,19.481 220.167,19.481 222.364,19.481 222.364,13.374 220.167,13.374 "/>
<path d="M250.015,34.656c2.061-0.776,3.771-2.106,5.129-3.992c1.355-1.886,2.034-3.975,2.034-6.266
	c0-7.614-4.917-11.421-14.752-11.421c-0.517,0-1.109,0.01-1.733,0.024c-0.164-0.001-0.299-0.024-0.464-0.024
	c-0.562,0-1.211,0.011-1.897,0.028c-0.189-0.002-0.351-0.028-0.543-0.028c-1.587,0-3.675,0.066-6.266,0.198
	c-2.593,0.134-4.081,0.199-4.468,0.199v38.73h2.441h2.197h2.497h2.441h2.198V36.538l10.061,15.567h2.441h2.198h3.291h2.441h2.198
	L250.015,34.656z M238.83,30.108v-10.76c0.129-0.018,0.242-0.012,0.369-0.026c1.719,0.167,3.094,0.491,4.062,1.004
	c1.426,0.758,2.141,2.088,2.141,3.992c0,2.345-0.667,3.922-1.996,4.732c-0.939,0.572-2.279,0.931-3.984,1.1
	C239.217,30.134,239.055,30.126,238.83,30.108z"/>
<path fill="#D1050C" d="M264.24,0v27.374l27.29,8.841V0H264.24z M287.353,17.221h-5.891v5.888h-7.153v-5.888h-5.888v-7.152h5.888
	V4.178h7.153v5.891h5.891V17.221z"/>
<polygon fill="#D1050C" points="27.29,27.374 0,36.215 0,31.084 27.29,22.243 "/>
<g>
	<path d="M43.844,74.314c0,1.115-0.143,2.089-0.428,2.922c-0.285,0.832-0.702,1.522-1.249,2.069
		c-0.547,0.548-1.219,0.958-2.015,1.229c-0.796,0.272-1.745,0.408-2.847,0.408h-2.727c-0.152,0-0.297-0.052-0.433-0.154
		c-0.136-0.103-0.204-0.283-0.204-0.542V68.762c0-0.259,0.068-0.439,0.204-0.543c0.136-0.103,0.28-0.154,0.433-0.154h2.917
		c1.115,0,2.057,0.145,2.826,0.434c0.77,0.288,1.415,0.703,1.936,1.243c0.521,0.541,0.916,1.196,1.184,1.966
		C43.709,72.478,43.844,73.347,43.844,74.314z M42.042,74.385c0-0.697-0.086-1.346-0.259-1.946c-0.173-0.6-0.443-1.119-0.812-1.558
		c-0.368-0.438-0.834-0.779-1.398-1.024c-0.564-0.246-1.291-0.368-2.18-0.368h-1.742V79.51h1.762c0.822,0,1.516-0.103,2.08-0.309
		c0.563-0.205,1.035-0.521,1.413-0.945c0.378-0.424,0.662-0.957,0.851-1.597C41.948,76.019,42.042,75.261,42.042,74.385z"/>
	<path d="M53.04,80.704c0,0.08-0.026,0.14-0.08,0.18s-0.126,0.069-0.219,0.09c-0.093,0.02-0.229,0.029-0.408,0.029
		c-0.172,0-0.31-0.01-0.413-0.029c-0.103-0.021-0.178-0.05-0.224-0.09c-0.047-0.04-0.07-0.1-0.07-0.18v-0.896
		c-0.392,0.418-0.828,0.743-1.309,0.976c-0.481,0.232-0.991,0.349-1.528,0.349c-0.471,0-0.897-0.062-1.279-0.185
		c-0.382-0.123-0.707-0.3-0.976-0.532s-0.478-0.518-0.627-0.856c-0.149-0.338-0.224-0.723-0.224-1.154
		c0-0.504,0.103-0.942,0.309-1.313c0.206-0.372,0.501-0.68,0.886-0.926c0.385-0.245,0.856-0.43,1.414-0.553
		c0.557-0.122,1.184-0.184,1.881-0.184h1.234v-0.696c0-0.346-0.036-0.65-0.109-0.916c-0.073-0.266-0.191-0.486-0.353-0.662
		c-0.163-0.176-0.374-0.309-0.632-0.398c-0.259-0.089-0.577-0.134-0.955-0.134c-0.405,0-0.768,0.048-1.09,0.145
		c-0.322,0.096-0.604,0.202-0.846,0.318s-0.444,0.223-0.607,0.318c-0.163,0.097-0.284,0.145-0.363,0.145
		c-0.053,0-0.1-0.014-0.14-0.04c-0.04-0.026-0.075-0.066-0.104-0.119c-0.03-0.054-0.051-0.121-0.064-0.204
		c-0.014-0.083-0.02-0.175-0.02-0.274c0-0.165,0.012-0.297,0.035-0.393c0.023-0.097,0.08-0.188,0.169-0.273
		c0.089-0.087,0.244-0.188,0.463-0.304c0.219-0.116,0.471-0.223,0.756-0.318c0.285-0.097,0.597-0.176,0.936-0.239
		c0.338-0.062,0.68-0.095,1.025-0.095c0.644,0,1.191,0.073,1.643,0.219c0.451,0.146,0.816,0.36,1.095,0.643
		c0.278,0.282,0.481,0.632,0.607,1.05s0.189,0.905,0.189,1.463V80.704z M51.408,76.614h-1.403c-0.451,0-0.842,0.038-1.174,0.114
		c-0.332,0.076-0.607,0.189-0.826,0.338c-0.219,0.149-0.38,0.329-0.482,0.538c-0.103,0.209-0.154,0.449-0.154,0.722
		c0,0.464,0.147,0.834,0.443,1.109c0.295,0.275,0.708,0.413,1.239,0.413c0.431,0,0.831-0.109,1.199-0.328
		c0.368-0.22,0.754-0.555,1.159-1.006V76.614z"/>
	<path d="M62.495,79.331c0,0.113-0.003,0.211-0.01,0.294c-0.007,0.083-0.019,0.152-0.035,0.209c-0.017,0.056-0.037,0.105-0.06,0.149
		c-0.023,0.043-0.076,0.105-0.159,0.188s-0.224,0.186-0.423,0.309s-0.423,0.232-0.672,0.328c-0.249,0.097-0.519,0.175-0.811,0.234
		s-0.594,0.09-0.906,0.09c-0.644,0-1.214-0.106-1.712-0.318c-0.498-0.213-0.914-0.523-1.249-0.931
		c-0.335-0.408-0.59-0.909-0.766-1.503c-0.176-0.594-0.264-1.279-0.264-2.056c0-0.882,0.108-1.641,0.324-2.274
		c0.215-0.633,0.511-1.152,0.886-1.558c0.375-0.404,0.816-0.704,1.324-0.9c0.507-0.195,1.057-0.294,1.647-0.294
		c0.285,0,0.562,0.027,0.831,0.08c0.269,0.053,0.516,0.123,0.742,0.209s0.426,0.186,0.602,0.299
		c0.176,0.112,0.304,0.209,0.383,0.288c0.08,0.08,0.134,0.143,0.164,0.189s0.055,0.102,0.075,0.164
		c0.02,0.063,0.033,0.135,0.04,0.214c0.007,0.08,0.01,0.18,0.01,0.299c0,0.259-0.03,0.439-0.09,0.542
		c-0.06,0.104-0.133,0.154-0.219,0.154c-0.1,0-0.214-0.055-0.343-0.164s-0.294-0.23-0.493-0.363
		c-0.199-0.133-0.44-0.254-0.722-0.363c-0.282-0.109-0.616-0.164-1-0.164c-0.79,0-1.396,0.304-1.816,0.911
		c-0.421,0.606-0.632,1.487-0.632,2.642c0,0.578,0.055,1.084,0.165,1.519c0.109,0.435,0.27,0.798,0.482,1.09
		s0.473,0.509,0.781,0.651s0.662,0.214,1.06,0.214c0.378,0,0.71-0.06,0.995-0.179s0.533-0.251,0.742-0.394s0.385-0.271,0.527-0.388
		s0.254-0.175,0.333-0.175c0.046,0,0.086,0.014,0.12,0.04c0.033,0.026,0.061,0.071,0.084,0.135c0.023,0.062,0.04,0.143,0.05,0.238
		C62.49,79.084,62.495,79.198,62.495,79.331z"/>
	<path d="M72.388,80.694c0,0.054-0.013,0.099-0.04,0.135c-0.027,0.036-0.07,0.068-0.129,0.095s-0.143,0.046-0.249,0.06
		c-0.106,0.013-0.239,0.02-0.398,0.02c-0.166,0-0.302-0.007-0.408-0.02c-0.106-0.014-0.189-0.033-0.249-0.06
		c-0.06-0.026-0.103-0.059-0.129-0.095c-0.027-0.036-0.04-0.081-0.04-0.135v-5.245c0-0.511-0.04-0.922-0.119-1.233
		c-0.08-0.312-0.196-0.581-0.349-0.807s-0.35-0.398-0.592-0.518s-0.522-0.179-0.841-0.179c-0.412,0-0.823,0.146-1.234,0.438
		c-0.412,0.292-0.843,0.72-1.294,1.284v6.26c0,0.054-0.014,0.099-0.04,0.135s-0.069,0.068-0.129,0.095
		c-0.06,0.026-0.143,0.046-0.249,0.06c-0.106,0.013-0.242,0.02-0.408,0.02c-0.159,0-0.292-0.007-0.398-0.02
		c-0.106-0.014-0.191-0.033-0.254-0.06s-0.106-0.059-0.129-0.095c-0.023-0.036-0.035-0.081-0.035-0.135V67.397
		c0-0.053,0.011-0.1,0.035-0.139c0.023-0.04,0.066-0.073,0.129-0.1s0.147-0.047,0.254-0.06c0.106-0.014,0.239-0.021,0.398-0.021
		c0.166,0,0.302,0.007,0.408,0.021c0.106,0.013,0.189,0.033,0.249,0.06c0.06,0.026,0.103,0.06,0.129,0.1
		c0.026,0.039,0.04,0.086,0.04,0.139v5.365c0.471-0.498,0.945-0.868,1.423-1.11c0.478-0.242,0.958-0.363,1.443-0.363
		c0.597,0,1.1,0.102,1.508,0.304s0.738,0.473,0.99,0.812c0.252,0.338,0.433,0.734,0.542,1.189c0.109,0.454,0.164,1.003,0.164,1.646
		V80.694z"/>
	<path d="M91.308,74.544c0,0.432-0.082,0.841-0.244,1.229c-0.163,0.388-0.388,0.725-0.677,1.01s-0.625,0.509-1.01,0.672
		c-0.385,0.162-0.796,0.244-1.234,0.244c-0.432,0-0.841-0.08-1.229-0.239s-0.725-0.382-1.01-0.667
		c-0.286-0.285-0.508-0.622-0.667-1.01c-0.159-0.389-0.239-0.798-0.239-1.229c0-0.444,0.081-0.857,0.244-1.239
		c0.163-0.381,0.387-0.717,0.672-1.005c0.285-0.289,0.622-0.515,1.01-0.677c0.388-0.163,0.798-0.244,1.229-0.244
		s0.841,0.081,1.229,0.244c0.388,0.162,0.725,0.387,1.01,0.672c0.285,0.285,0.509,0.62,0.671,1.005S91.308,74.105,91.308,74.544z"/>
	<path d="M112.228,68.801c0,0.127-0.006,0.236-0.02,0.329c-0.014,0.093-0.035,0.167-0.065,0.224s-0.066,0.098-0.109,0.124
		c-0.043,0.027-0.091,0.04-0.145,0.04h-3.623v11.167c0,0.053-0.013,0.1-0.04,0.14c-0.027,0.039-0.073,0.071-0.14,0.095
		c-0.066,0.022-0.154,0.043-0.264,0.06s-0.247,0.024-0.413,0.024c-0.159,0-0.295-0.008-0.408-0.024s-0.202-0.037-0.269-0.06
		c-0.066-0.023-0.113-0.056-0.139-0.095c-0.027-0.04-0.04-0.087-0.04-0.14V69.518h-3.623c-0.053,0-0.102-0.013-0.145-0.04
		c-0.043-0.026-0.078-0.067-0.104-0.124s-0.048-0.131-0.064-0.224c-0.017-0.093-0.025-0.202-0.025-0.329
		c0-0.126,0.008-0.236,0.025-0.333c0.016-0.096,0.038-0.174,0.064-0.234c0.026-0.06,0.062-0.103,0.104-0.129s0.091-0.04,0.145-0.04
		h8.957c0.053,0,0.101,0.014,0.145,0.04c0.043,0.026,0.08,0.069,0.109,0.129c0.03,0.061,0.051,0.139,0.065,0.234
		C112.222,68.564,112.228,68.675,112.228,68.801z"/>
</g>
<g>
	<path d="M119.722,75.828c0,0.259-0.065,0.442-0.195,0.552c-0.13,0.109-0.278,0.164-0.445,0.164h-5.899
		c0,0.498,0.05,0.946,0.15,1.344c0.1,0.398,0.267,0.74,0.5,1.025s0.537,0.504,0.91,0.657c0.374,0.152,0.83,0.229,1.37,0.229
		c0.427,0,0.807-0.035,1.14-0.104s0.622-0.147,0.865-0.234c0.243-0.086,0.443-0.164,0.6-0.233s0.275-0.104,0.355-0.104
		c0.047,0,0.088,0.012,0.125,0.035s0.065,0.058,0.085,0.104c0.02,0.046,0.035,0.11,0.045,0.193c0.01,0.083,0.015,0.185,0.015,0.304
		c0,0.087-0.003,0.161-0.01,0.225c-0.007,0.062-0.015,0.119-0.025,0.169c-0.01,0.05-0.027,0.095-0.05,0.134
		c-0.023,0.04-0.053,0.078-0.09,0.115c-0.036,0.036-0.144,0.096-0.323,0.179s-0.412,0.164-0.697,0.244
		c-0.285,0.079-0.615,0.15-0.99,0.214c-0.375,0.062-0.775,0.095-1.199,0.095c-0.736,0-1.382-0.104-1.936-0.309
		c-0.554-0.206-1.02-0.511-1.398-0.916c-0.378-0.404-0.664-0.912-0.856-1.522c-0.193-0.61-0.289-1.32-0.289-2.13
		c0-0.77,0.099-1.462,0.298-2.075s0.486-1.135,0.861-1.562s0.828-0.757,1.359-0.985c0.531-0.229,1.125-0.344,1.781-0.344
		c0.703,0,1.302,0.113,1.796,0.339s0.901,0.529,1.219,0.91c0.318,0.382,0.552,0.83,0.702,1.344c0.149,0.515,0.224,1.063,0.224,1.647
		V75.828z M118.07,75.34c0.02-0.862-0.172-1.539-0.576-2.03s-1.003-0.736-1.797-0.736c-0.407,0-0.765,0.076-1.072,0.229
		c-0.307,0.153-0.564,0.355-0.771,0.607s-0.367,0.546-0.48,0.881c-0.114,0.335-0.177,0.686-0.19,1.05H118.07z"/>
	<path d="M127.455,72.324c0,0.146-0.003,0.269-0.01,0.368c-0.007,0.1-0.02,0.178-0.04,0.234s-0.045,0.1-0.075,0.129
		c-0.03,0.03-0.071,0.045-0.125,0.045c-0.053,0-0.118-0.015-0.194-0.045c-0.076-0.029-0.163-0.06-0.259-0.089
		c-0.096-0.03-0.204-0.059-0.323-0.085c-0.12-0.026-0.249-0.04-0.388-0.04c-0.166,0-0.329,0.033-0.488,0.1s-0.327,0.176-0.502,0.328
		c-0.176,0.153-0.36,0.355-0.553,0.607s-0.405,0.561-0.637,0.926v5.892c0,0.054-0.014,0.099-0.04,0.135s-0.069,0.068-0.129,0.095
		c-0.06,0.026-0.143,0.046-0.249,0.06c-0.106,0.013-0.242,0.02-0.408,0.02c-0.159,0-0.292-0.007-0.398-0.02
		c-0.106-0.014-0.191-0.033-0.254-0.06s-0.106-0.059-0.129-0.095c-0.023-0.036-0.035-0.081-0.035-0.135v-8.957
		c0-0.053,0.01-0.098,0.03-0.135c0.02-0.036,0.06-0.069,0.119-0.1c0.06-0.029,0.136-0.05,0.229-0.06s0.216-0.015,0.368-0.015
		c0.146,0,0.267,0.005,0.363,0.015s0.171,0.03,0.224,0.06c0.053,0.03,0.091,0.063,0.114,0.1c0.023,0.037,0.035,0.082,0.035,0.135
		v1.304c0.245-0.358,0.476-0.65,0.691-0.876c0.216-0.226,0.42-0.403,0.612-0.532c0.192-0.13,0.383-0.219,0.572-0.269
		s0.38-0.075,0.572-0.075c0.086,0,0.184,0.005,0.293,0.016c0.109,0.01,0.224,0.028,0.343,0.055c0.12,0.026,0.228,0.056,0.324,0.089
		s0.164,0.066,0.204,0.1c0.04,0.033,0.066,0.064,0.08,0.095c0.013,0.03,0.025,0.068,0.035,0.114c0.01,0.047,0.017,0.114,0.02,0.204
		S127.455,72.172,127.455,72.324z"/>
	<path d="M134.562,72.324c0,0.146-0.003,0.269-0.01,0.368c-0.007,0.1-0.02,0.178-0.04,0.234s-0.045,0.1-0.075,0.129
		c-0.03,0.03-0.071,0.045-0.125,0.045c-0.053,0-0.118-0.015-0.194-0.045c-0.076-0.029-0.163-0.06-0.259-0.089
		c-0.096-0.03-0.204-0.059-0.323-0.085c-0.12-0.026-0.249-0.04-0.388-0.04c-0.166,0-0.329,0.033-0.488,0.1s-0.327,0.176-0.502,0.328
		c-0.176,0.153-0.36,0.355-0.553,0.607s-0.405,0.561-0.637,0.926v5.892c0,0.054-0.014,0.099-0.04,0.135s-0.069,0.068-0.129,0.095
		c-0.06,0.026-0.143,0.046-0.249,0.06c-0.106,0.013-0.242,0.02-0.408,0.02c-0.159,0-0.292-0.007-0.398-0.02
		c-0.106-0.014-0.191-0.033-0.254-0.06s-0.106-0.059-0.129-0.095c-0.023-0.036-0.035-0.081-0.035-0.135v-8.957
		c0-0.053,0.01-0.098,0.03-0.135c0.02-0.036,0.06-0.069,0.119-0.1c0.06-0.029,0.136-0.05,0.229-0.06s0.216-0.015,0.368-0.015
		c0.146,0,0.267,0.005,0.363,0.015s0.171,0.03,0.224,0.06c0.053,0.03,0.091,0.063,0.114,0.1c0.023,0.037,0.035,0.082,0.035,0.135
		v1.304c0.245-0.358,0.476-0.65,0.691-0.876c0.216-0.226,0.42-0.403,0.612-0.532c0.192-0.13,0.383-0.219,0.572-0.269
		s0.38-0.075,0.572-0.075c0.086,0,0.184,0.005,0.293,0.016c0.109,0.01,0.224,0.028,0.343,0.055c0.12,0.026,0.228,0.056,0.324,0.089
		s0.164,0.066,0.204,0.1c0.04,0.033,0.066,0.064,0.08,0.095c0.013,0.03,0.025,0.068,0.035,0.114c0.01,0.047,0.017,0.114,0.02,0.204
		S134.562,72.172,134.562,72.324z"/>
</g>
<g>
	<path d="M142.762,80.704c0,0.08-0.026,0.14-0.08,0.18s-0.126,0.069-0.219,0.09c-0.093,0.02-0.229,0.029-0.408,0.029
		c-0.172,0-0.31-0.01-0.413-0.029c-0.103-0.021-0.178-0.05-0.224-0.09c-0.047-0.04-0.07-0.1-0.07-0.18v-0.896
		c-0.392,0.418-0.828,0.743-1.309,0.976c-0.481,0.232-0.991,0.349-1.528,0.349c-0.471,0-0.897-0.062-1.279-0.185
		c-0.382-0.123-0.707-0.3-0.976-0.532s-0.478-0.518-0.627-0.856c-0.149-0.338-0.224-0.723-0.224-1.154
		c0-0.504,0.103-0.942,0.309-1.313c0.206-0.372,0.501-0.68,0.886-0.926c0.385-0.245,0.856-0.43,1.414-0.553
		c0.557-0.122,1.184-0.184,1.881-0.184h1.234v-0.696c0-0.346-0.036-0.65-0.109-0.916c-0.073-0.266-0.191-0.486-0.353-0.662
		c-0.163-0.176-0.374-0.309-0.632-0.398c-0.259-0.089-0.577-0.134-0.955-0.134c-0.405,0-0.768,0.048-1.09,0.145
		c-0.322,0.096-0.604,0.202-0.846,0.318s-0.444,0.223-0.607,0.318c-0.163,0.097-0.284,0.145-0.363,0.145
		c-0.053,0-0.1-0.014-0.14-0.04c-0.04-0.026-0.075-0.066-0.104-0.119c-0.03-0.054-0.051-0.121-0.064-0.204
		c-0.014-0.083-0.02-0.175-0.02-0.274c0-0.165,0.012-0.297,0.035-0.393c0.023-0.097,0.08-0.188,0.169-0.273
		c0.089-0.087,0.244-0.188,0.463-0.304c0.219-0.116,0.471-0.223,0.756-0.318c0.285-0.097,0.597-0.176,0.936-0.239
		c0.338-0.062,0.68-0.095,1.025-0.095c0.644,0,1.191,0.073,1.643,0.219c0.451,0.146,0.816,0.36,1.095,0.643
		c0.278,0.282,0.481,0.632,0.607,1.05s0.189,0.905,0.189,1.463V80.704z M141.13,76.614h-1.403c-0.451,0-0.842,0.038-1.174,0.114
		c-0.332,0.076-0.607,0.189-0.826,0.338c-0.219,0.149-0.38,0.329-0.482,0.538c-0.103,0.209-0.154,0.449-0.154,0.722
		c0,0.464,0.147,0.834,0.443,1.109c0.295,0.275,0.708,0.413,1.239,0.413c0.431,0,0.831-0.109,1.199-0.328
		c0.368-0.22,0.754-0.555,1.159-1.006V76.614z"/>
	<path d="M151.4,78.256c0,0.458-0.084,0.866-0.252,1.225c-0.17,0.358-0.41,0.66-0.723,0.905c-0.312,0.246-0.684,0.432-1.115,0.558
		c-0.431,0.126-0.904,0.189-1.422,0.189c-0.318,0-0.623-0.025-0.911-0.075s-0.548-0.112-0.776-0.188
		c-0.229-0.076-0.423-0.156-0.583-0.239c-0.159-0.083-0.275-0.157-0.348-0.224c-0.073-0.066-0.126-0.159-0.159-0.279
		c-0.033-0.119-0.05-0.281-0.05-0.487c0-0.126,0.006-0.232,0.02-0.318c0.013-0.086,0.03-0.156,0.05-0.209
		c0.02-0.054,0.048-0.092,0.084-0.114c0.036-0.023,0.078-0.035,0.125-0.035c0.073,0,0.181,0.045,0.323,0.134
		c0.143,0.09,0.318,0.188,0.527,0.294c0.209,0.106,0.457,0.204,0.742,0.294c0.285,0.089,0.614,0.134,0.985,0.134
		c0.279,0,0.531-0.029,0.756-0.089c0.227-0.061,0.422-0.147,0.588-0.264s0.293-0.265,0.383-0.443s0.135-0.392,0.135-0.637
		c0-0.252-0.064-0.465-0.193-0.637c-0.131-0.173-0.301-0.325-0.514-0.458s-0.451-0.251-0.717-0.354s-0.539-0.211-0.82-0.323
		c-0.283-0.113-0.558-0.24-0.826-0.384c-0.27-0.143-0.51-0.316-0.722-0.522c-0.212-0.205-0.383-0.451-0.513-0.736
		s-0.194-0.627-0.194-1.025c0-0.352,0.068-0.688,0.204-1.01c0.136-0.322,0.34-0.604,0.612-0.846s0.612-0.437,1.021-0.583
		c0.408-0.146,0.884-0.219,1.428-0.219c0.238,0,0.478,0.021,0.717,0.06c0.238,0.04,0.455,0.09,0.646,0.149
		c0.193,0.06,0.357,0.125,0.492,0.194c0.137,0.069,0.24,0.131,0.309,0.185c0.07,0.053,0.117,0.099,0.141,0.139
		s0.039,0.085,0.049,0.135s0.02,0.111,0.029,0.184c0.012,0.073,0.016,0.163,0.016,0.27c0,0.112-0.004,0.21-0.016,0.293
		c-0.01,0.083-0.025,0.151-0.049,0.204c-0.023,0.054-0.051,0.092-0.084,0.114c-0.033,0.023-0.07,0.035-0.109,0.035
		c-0.061,0-0.146-0.036-0.26-0.109s-0.258-0.151-0.438-0.234s-0.391-0.16-0.633-0.233s-0.519-0.109-0.83-0.109
		c-0.279,0-0.524,0.031-0.736,0.095c-0.213,0.062-0.387,0.152-0.523,0.269c-0.136,0.116-0.238,0.254-0.309,0.413
		c-0.069,0.159-0.104,0.332-0.104,0.518c0,0.259,0.066,0.476,0.199,0.651c0.132,0.176,0.305,0.33,0.518,0.463
		c0.211,0.133,0.453,0.252,0.726,0.358s0.55,0.216,0.831,0.328c0.281,0.113,0.561,0.239,0.836,0.379
		c0.275,0.139,0.52,0.309,0.732,0.507c0.211,0.199,0.383,0.438,0.512,0.717C151.336,77.54,151.4,77.871,151.4,78.256z"/>
	<path d="M159.373,78.256c0,0.458-0.084,0.866-0.253,1.225c-0.17,0.358-0.41,0.66-0.722,0.905c-0.312,0.246-0.684,0.432-1.115,0.558
		c-0.431,0.126-0.905,0.189-1.423,0.189c-0.318,0-0.622-0.025-0.911-0.075c-0.288-0.05-0.547-0.112-0.776-0.188
		c-0.229-0.076-0.423-0.156-0.582-0.239s-0.275-0.157-0.348-0.224c-0.073-0.066-0.127-0.159-0.16-0.279
		c-0.033-0.119-0.049-0.281-0.049-0.487c0-0.126,0.006-0.232,0.02-0.318c0.013-0.086,0.029-0.156,0.05-0.209
		c0.02-0.054,0.048-0.092,0.084-0.114c0.037-0.023,0.078-0.035,0.125-0.035c0.073,0,0.181,0.045,0.323,0.134
		c0.143,0.09,0.318,0.188,0.527,0.294c0.209,0.106,0.456,0.204,0.742,0.294c0.285,0.089,0.613,0.134,0.984,0.134
		c0.279,0,0.531-0.029,0.757-0.089c0.226-0.061,0.421-0.147,0.587-0.264s0.294-0.265,0.384-0.443
		c0.089-0.179,0.134-0.392,0.134-0.637c0-0.252-0.064-0.465-0.193-0.637c-0.13-0.173-0.301-0.325-0.513-0.458
		c-0.213-0.133-0.451-0.251-0.717-0.354s-0.539-0.211-0.821-0.323c-0.282-0.113-0.558-0.24-0.826-0.384
		c-0.269-0.143-0.509-0.316-0.722-0.522c-0.212-0.205-0.383-0.451-0.513-0.736c-0.129-0.285-0.193-0.627-0.193-1.025
		c0-0.352,0.067-0.688,0.204-1.01c0.136-0.322,0.34-0.604,0.611-0.846c0.272-0.242,0.612-0.437,1.021-0.583
		c0.408-0.146,0.884-0.219,1.429-0.219c0.238,0,0.478,0.021,0.716,0.06c0.239,0.04,0.455,0.09,0.647,0.149s0.356,0.125,0.492,0.194
		s0.239,0.131,0.309,0.185c0.07,0.053,0.116,0.099,0.14,0.139s0.04,0.085,0.05,0.135s0.02,0.111,0.029,0.184
		c0.011,0.073,0.016,0.163,0.016,0.27c0,0.112-0.005,0.21-0.016,0.293c-0.01,0.083-0.026,0.151-0.05,0.204
		c-0.022,0.054-0.051,0.092-0.084,0.114c-0.033,0.023-0.07,0.035-0.109,0.035c-0.06,0-0.146-0.036-0.259-0.109
		c-0.113-0.073-0.259-0.151-0.438-0.234c-0.179-0.083-0.39-0.16-0.632-0.233s-0.52-0.109-0.831-0.109
		c-0.278,0-0.524,0.031-0.736,0.095c-0.213,0.062-0.387,0.152-0.522,0.269s-0.239,0.254-0.309,0.413s-0.104,0.332-0.104,0.518
		c0,0.259,0.066,0.476,0.199,0.651s0.305,0.33,0.518,0.463c0.212,0.133,0.454,0.252,0.727,0.358
		c0.271,0.106,0.549,0.216,0.831,0.328c0.281,0.113,0.561,0.239,0.836,0.379c0.275,0.139,0.519,0.309,0.731,0.507
		c0.212,0.199,0.383,0.438,0.513,0.717C159.309,77.54,159.373,77.871,159.373,78.256z"/>
	<path d="M169.365,75.828c0,0.259-0.064,0.442-0.194,0.552s-0.278,0.164-0.445,0.164h-5.898c0,0.498,0.05,0.946,0.149,1.344
		c0.1,0.398,0.267,0.74,0.5,1.025s0.537,0.504,0.91,0.657c0.373,0.152,0.83,0.229,1.37,0.229c0.427,0,0.807-0.035,1.141-0.104
		c0.333-0.069,0.621-0.147,0.864-0.234c0.244-0.086,0.443-0.164,0.601-0.233c0.156-0.069,0.275-0.104,0.355-0.104
		c0.046,0,0.088,0.012,0.125,0.035c0.036,0.023,0.064,0.058,0.085,0.104c0.02,0.046,0.034,0.11,0.045,0.193
		c0.01,0.083,0.015,0.185,0.015,0.304c0,0.087-0.003,0.161-0.01,0.225c-0.007,0.062-0.015,0.119-0.025,0.169
		c-0.01,0.05-0.026,0.095-0.05,0.134c-0.022,0.04-0.053,0.078-0.089,0.115c-0.037,0.036-0.145,0.096-0.323,0.179
		c-0.18,0.083-0.412,0.164-0.697,0.244c-0.285,0.079-0.615,0.15-0.99,0.214c-0.375,0.062-0.774,0.095-1.199,0.095
		c-0.736,0-1.382-0.104-1.936-0.309c-0.555-0.206-1.021-0.511-1.398-0.916c-0.378-0.404-0.664-0.912-0.856-1.522
		s-0.288-1.32-0.288-2.13c0-0.77,0.1-1.462,0.299-2.075c0.198-0.613,0.485-1.135,0.86-1.562s0.828-0.757,1.358-0.985
		c0.531-0.229,1.125-0.344,1.782-0.344c0.703,0,1.302,0.113,1.796,0.339s0.9,0.529,1.22,0.91c0.318,0.382,0.552,0.83,0.701,1.344
		c0.149,0.515,0.224,1.063,0.224,1.647V75.828z M167.714,75.34c0.02-0.862-0.173-1.539-0.576-2.03
		c-0.404-0.491-1.003-0.736-1.798-0.736c-0.407,0-0.764,0.076-1.071,0.229c-0.307,0.153-0.564,0.355-0.771,0.607
		c-0.207,0.252-0.367,0.546-0.481,0.881c-0.113,0.335-0.177,0.686-0.189,1.05H167.714z"/>
</g>
<g>
	<path d="M207.397,68.801c0,0.127-0.007,0.236-0.02,0.329c-0.014,0.093-0.037,0.167-0.07,0.224s-0.071,0.098-0.114,0.124
		c-0.043,0.027-0.088,0.04-0.134,0.04h-4.718v4.379h4.459c0.046,0,0.091,0.012,0.134,0.035s0.081,0.062,0.114,0.114
		c0.033,0.054,0.057,0.125,0.07,0.214c0.013,0.09,0.02,0.204,0.02,0.344c0,0.126-0.007,0.234-0.02,0.323
		c-0.014,0.09-0.037,0.163-0.07,0.219c-0.033,0.057-0.071,0.1-0.114,0.13s-0.088,0.045-0.134,0.045h-4.459v5.364
		c0,0.047-0.014,0.091-0.04,0.135c-0.026,0.043-0.073,0.076-0.14,0.1c-0.066,0.022-0.152,0.043-0.259,0.06
		c-0.105,0.017-0.245,0.024-0.418,0.024c-0.159,0-0.295-0.008-0.407-0.024c-0.113-0.017-0.203-0.037-0.27-0.06
		c-0.066-0.023-0.112-0.057-0.139-0.1c-0.027-0.044-0.04-0.088-0.04-0.135V68.762c0-0.259,0.068-0.439,0.204-0.543
		c0.136-0.103,0.28-0.154,0.433-0.154h5.793c0.046,0,0.091,0.014,0.134,0.04s0.081,0.069,0.114,0.129
		c0.033,0.061,0.057,0.139,0.07,0.234C207.391,68.564,207.397,68.675,207.397,68.801z"/>
</g>
<g>
	<path d="M216.008,80.704c0,0.08-0.026,0.14-0.079,0.18c-0.054,0.04-0.127,0.069-0.22,0.09c-0.093,0.02-0.229,0.029-0.407,0.029
		c-0.173,0-0.311-0.01-0.413-0.029c-0.104-0.021-0.178-0.05-0.225-0.09c-0.046-0.04-0.069-0.1-0.069-0.18v-0.896
		c-0.392,0.418-0.828,0.743-1.309,0.976c-0.481,0.232-0.99,0.349-1.528,0.349c-0.471,0-0.897-0.062-1.278-0.185
		c-0.382-0.123-0.707-0.3-0.976-0.532s-0.478-0.518-0.627-0.856c-0.149-0.338-0.224-0.723-0.224-1.154
		c0-0.504,0.103-0.942,0.309-1.313c0.205-0.372,0.5-0.68,0.886-0.926c0.385-0.245,0.855-0.43,1.413-0.553
		c0.558-0.122,1.185-0.184,1.881-0.184h1.234v-0.696c0-0.346-0.037-0.65-0.109-0.916c-0.073-0.266-0.191-0.486-0.354-0.662
		c-0.163-0.176-0.373-0.309-0.632-0.398c-0.259-0.089-0.577-0.134-0.956-0.134c-0.404,0-0.768,0.048-1.09,0.145
		c-0.321,0.096-0.604,0.202-0.846,0.318s-0.444,0.223-0.607,0.318c-0.162,0.097-0.283,0.145-0.363,0.145
		c-0.053,0-0.1-0.014-0.139-0.04c-0.04-0.026-0.075-0.066-0.104-0.119c-0.03-0.054-0.052-0.121-0.065-0.204
		c-0.013-0.083-0.02-0.175-0.02-0.274c0-0.165,0.012-0.297,0.035-0.393c0.022-0.097,0.079-0.188,0.169-0.273
		c0.09-0.087,0.244-0.188,0.463-0.304s0.471-0.223,0.756-0.318c0.285-0.097,0.598-0.176,0.936-0.239
		c0.339-0.062,0.681-0.095,1.025-0.095c0.644,0,1.191,0.073,1.643,0.219c0.451,0.146,0.815,0.36,1.095,0.643
		c0.278,0.282,0.48,0.632,0.606,1.05s0.189,0.905,0.189,1.463V80.704z M214.376,76.614h-1.403c-0.451,0-0.843,0.038-1.175,0.114
		s-0.607,0.189-0.826,0.338c-0.219,0.149-0.38,0.329-0.482,0.538s-0.154,0.449-0.154,0.722c0,0.464,0.147,0.834,0.443,1.109
		c0.295,0.275,0.708,0.413,1.238,0.413c0.432,0,0.831-0.109,1.199-0.328c0.369-0.22,0.755-0.555,1.16-1.006V76.614z"/>
	<path d="M224.646,78.256c0,0.458-0.084,0.866-0.253,1.225c-0.17,0.358-0.41,0.66-0.722,0.905c-0.312,0.246-0.684,0.432-1.115,0.558
		c-0.431,0.126-0.905,0.189-1.423,0.189c-0.318,0-0.622-0.025-0.911-0.075c-0.288-0.05-0.547-0.112-0.776-0.188
		c-0.229-0.076-0.423-0.156-0.582-0.239s-0.275-0.157-0.348-0.224c-0.073-0.066-0.127-0.159-0.16-0.279
		c-0.033-0.119-0.049-0.281-0.049-0.487c0-0.126,0.006-0.232,0.02-0.318c0.013-0.086,0.029-0.156,0.05-0.209
		c0.02-0.054,0.048-0.092,0.084-0.114c0.037-0.023,0.078-0.035,0.125-0.035c0.073,0,0.181,0.045,0.323,0.134
		c0.143,0.09,0.318,0.188,0.527,0.294c0.209,0.106,0.456,0.204,0.742,0.294c0.285,0.089,0.613,0.134,0.984,0.134
		c0.279,0,0.531-0.029,0.757-0.089c0.226-0.061,0.421-0.147,0.587-0.264s0.294-0.265,0.384-0.443
		c0.089-0.179,0.134-0.392,0.134-0.637c0-0.252-0.064-0.465-0.193-0.637c-0.13-0.173-0.301-0.325-0.513-0.458
		c-0.213-0.133-0.451-0.251-0.717-0.354s-0.539-0.211-0.821-0.323c-0.282-0.113-0.558-0.24-0.826-0.384
		c-0.269-0.143-0.509-0.316-0.722-0.522c-0.212-0.205-0.383-0.451-0.513-0.736c-0.129-0.285-0.193-0.627-0.193-1.025
		c0-0.352,0.067-0.688,0.204-1.01c0.136-0.322,0.34-0.604,0.611-0.846c0.272-0.242,0.612-0.437,1.021-0.583
		c0.408-0.146,0.884-0.219,1.429-0.219c0.238,0,0.478,0.021,0.716,0.06c0.239,0.04,0.455,0.09,0.647,0.149s0.356,0.125,0.492,0.194
		s0.239,0.131,0.309,0.185c0.07,0.053,0.116,0.099,0.14,0.139s0.04,0.085,0.05,0.135s0.02,0.111,0.029,0.184
		c0.011,0.073,0.016,0.163,0.016,0.27c0,0.112-0.005,0.21-0.016,0.293c-0.01,0.083-0.026,0.151-0.05,0.204
		c-0.022,0.054-0.051,0.092-0.084,0.114c-0.033,0.023-0.07,0.035-0.109,0.035c-0.06,0-0.146-0.036-0.259-0.109
		c-0.113-0.073-0.259-0.151-0.438-0.234c-0.179-0.083-0.39-0.16-0.632-0.233s-0.52-0.109-0.831-0.109
		c-0.278,0-0.524,0.031-0.736,0.095c-0.213,0.062-0.387,0.152-0.522,0.269s-0.239,0.254-0.309,0.413s-0.104,0.332-0.104,0.518
		c0,0.259,0.066,0.476,0.199,0.651s0.305,0.33,0.518,0.463c0.212,0.133,0.454,0.252,0.727,0.358
		c0.271,0.106,0.549,0.216,0.831,0.328c0.281,0.113,0.561,0.239,0.836,0.379c0.275,0.139,0.519,0.309,0.731,0.507
		c0.212,0.199,0.383,0.438,0.513,0.717C224.582,77.54,224.646,77.871,224.646,78.256z"/>
	<path d="M232.618,78.256c0,0.458-0.084,0.866-0.253,1.225c-0.17,0.358-0.41,0.66-0.722,0.905c-0.312,0.246-0.684,0.432-1.115,0.558
		c-0.431,0.126-0.905,0.189-1.423,0.189c-0.318,0-0.622-0.025-0.911-0.075c-0.288-0.05-0.547-0.112-0.776-0.188
		c-0.229-0.076-0.423-0.156-0.582-0.239s-0.275-0.157-0.348-0.224c-0.073-0.066-0.127-0.159-0.16-0.279
		c-0.033-0.119-0.049-0.281-0.049-0.487c0-0.126,0.006-0.232,0.02-0.318c0.013-0.086,0.029-0.156,0.05-0.209
		c0.02-0.054,0.048-0.092,0.084-0.114c0.037-0.023,0.078-0.035,0.125-0.035c0.073,0,0.181,0.045,0.323,0.134
		c0.143,0.09,0.318,0.188,0.527,0.294c0.209,0.106,0.456,0.204,0.742,0.294c0.285,0.089,0.613,0.134,0.984,0.134
		c0.279,0,0.531-0.029,0.757-0.089c0.226-0.061,0.421-0.147,0.587-0.264s0.294-0.265,0.384-0.443
		c0.089-0.179,0.134-0.392,0.134-0.637c0-0.252-0.064-0.465-0.193-0.637c-0.13-0.173-0.301-0.325-0.513-0.458
		c-0.213-0.133-0.451-0.251-0.717-0.354s-0.539-0.211-0.821-0.323c-0.282-0.113-0.558-0.24-0.826-0.384
		c-0.269-0.143-0.509-0.316-0.722-0.522c-0.212-0.205-0.383-0.451-0.513-0.736c-0.129-0.285-0.193-0.627-0.193-1.025
		c0-0.352,0.067-0.688,0.204-1.01c0.136-0.322,0.34-0.604,0.611-0.846c0.272-0.242,0.612-0.437,1.021-0.583
		c0.408-0.146,0.884-0.219,1.429-0.219c0.238,0,0.478,0.021,0.716,0.06c0.239,0.04,0.455,0.09,0.647,0.149s0.356,0.125,0.492,0.194
		s0.239,0.131,0.309,0.185c0.07,0.053,0.116,0.099,0.14,0.139s0.04,0.085,0.05,0.135s0.02,0.111,0.029,0.184
		c0.011,0.073,0.016,0.163,0.016,0.27c0,0.112-0.005,0.21-0.016,0.293c-0.01,0.083-0.026,0.151-0.05,0.204
		c-0.022,0.054-0.051,0.092-0.084,0.114c-0.033,0.023-0.07,0.035-0.109,0.035c-0.06,0-0.146-0.036-0.259-0.109
		c-0.113-0.073-0.259-0.151-0.438-0.234c-0.179-0.083-0.39-0.16-0.632-0.233s-0.52-0.109-0.831-0.109
		c-0.278,0-0.524,0.031-0.736,0.095c-0.213,0.062-0.387,0.152-0.522,0.269s-0.239,0.254-0.309,0.413s-0.104,0.332-0.104,0.518
		c0,0.259,0.066,0.476,0.199,0.651s0.305,0.33,0.518,0.463c0.212,0.133,0.454,0.252,0.727,0.358
		c0.271,0.106,0.549,0.216,0.831,0.328c0.281,0.113,0.561,0.239,0.836,0.379c0.275,0.139,0.519,0.309,0.731,0.507
		c0.212,0.199,0.383,0.438,0.513,0.717C232.554,77.54,232.618,77.871,232.618,78.256z"/>
	<path d="M241.716,80.704c0,0.08-0.026,0.14-0.079,0.18c-0.054,0.04-0.127,0.069-0.22,0.09c-0.093,0.02-0.229,0.029-0.407,0.029
		c-0.173,0-0.311-0.01-0.413-0.029c-0.104-0.021-0.178-0.05-0.225-0.09c-0.046-0.04-0.069-0.1-0.069-0.18v-0.896
		c-0.392,0.418-0.828,0.743-1.309,0.976c-0.481,0.232-0.99,0.349-1.528,0.349c-0.471,0-0.897-0.062-1.278-0.185
		c-0.382-0.123-0.707-0.3-0.976-0.532s-0.478-0.518-0.627-0.856c-0.149-0.338-0.224-0.723-0.224-1.154
		c0-0.504,0.103-0.942,0.309-1.313c0.205-0.372,0.5-0.68,0.886-0.926c0.385-0.245,0.855-0.43,1.413-0.553
		c0.558-0.122,1.185-0.184,1.881-0.184h1.234v-0.696c0-0.346-0.037-0.65-0.109-0.916c-0.073-0.266-0.191-0.486-0.354-0.662
		c-0.163-0.176-0.373-0.309-0.632-0.398c-0.259-0.089-0.577-0.134-0.956-0.134c-0.404,0-0.768,0.048-1.09,0.145
		c-0.321,0.096-0.604,0.202-0.846,0.318s-0.444,0.223-0.607,0.318c-0.162,0.097-0.283,0.145-0.363,0.145
		c-0.053,0-0.1-0.014-0.139-0.04c-0.04-0.026-0.075-0.066-0.104-0.119c-0.03-0.054-0.052-0.121-0.065-0.204
		c-0.013-0.083-0.02-0.175-0.02-0.274c0-0.165,0.012-0.297,0.035-0.393c0.022-0.097,0.079-0.188,0.169-0.273
		c0.09-0.087,0.244-0.188,0.463-0.304s0.471-0.223,0.756-0.318c0.285-0.097,0.598-0.176,0.936-0.239
		c0.339-0.062,0.681-0.095,1.025-0.095c0.644,0,1.191,0.073,1.643,0.219c0.451,0.146,0.815,0.36,1.095,0.643
		c0.278,0.282,0.48,0.632,0.606,1.05s0.189,0.905,0.189,1.463V80.704z M240.084,76.614h-1.403c-0.451,0-0.843,0.038-1.175,0.114
		s-0.607,0.189-0.826,0.338c-0.219,0.149-0.38,0.329-0.482,0.538s-0.154,0.449-0.154,0.722c0,0.464,0.147,0.834,0.443,1.109
		c0.295,0.275,0.708,0.413,1.238,0.413c0.432,0,0.831-0.109,1.199-0.328c0.369-0.22,0.755-0.555,1.16-1.006V76.614z"/>
	<path d="M252.404,80.694c0,0.054-0.012,0.1-0.035,0.14s-0.062,0.071-0.119,0.095c-0.057,0.022-0.131,0.041-0.224,0.055
		c-0.094,0.013-0.206,0.02-0.339,0.02c-0.14,0-0.255-0.007-0.349-0.02c-0.093-0.014-0.169-0.032-0.229-0.055
		c-0.06-0.023-0.103-0.055-0.129-0.095c-0.027-0.04-0.04-0.086-0.04-0.14V79.51c-0.472,0.512-0.961,0.909-1.468,1.194
		c-0.508,0.285-1.063,0.429-1.668,0.429c-0.656,0-1.217-0.128-1.682-0.384c-0.465-0.255-0.841-0.601-1.13-1.035
		c-0.288-0.435-0.499-0.945-0.632-1.532s-0.199-1.206-0.199-1.856c0-0.77,0.083-1.465,0.249-2.085s0.411-1.149,0.736-1.588
		c0.325-0.438,0.729-0.774,1.21-1.01c0.48-0.235,1.036-0.354,1.667-0.354c0.523,0,1.003,0.114,1.438,0.344
		c0.435,0.229,0.864,0.565,1.289,1.01v-5.205c0-0.046,0.012-0.091,0.035-0.134c0.023-0.044,0.067-0.076,0.134-0.1
		s0.151-0.043,0.254-0.061c0.104-0.016,0.234-0.024,0.394-0.024c0.166,0,0.302,0.009,0.408,0.024
		c0.105,0.018,0.188,0.037,0.248,0.061c0.061,0.023,0.105,0.056,0.135,0.1c0.03,0.043,0.045,0.088,0.045,0.134V80.694z
		 M250.752,74.395c-0.444-0.551-0.874-0.971-1.289-1.259c-0.414-0.289-0.848-0.434-1.299-0.434c-0.418,0-0.772,0.1-1.064,0.299
		s-0.529,0.461-0.712,0.786s-0.315,0.693-0.397,1.105c-0.084,0.411-0.125,0.829-0.125,1.254c0,0.451,0.035,0.893,0.104,1.323
		c0.069,0.432,0.19,0.814,0.363,1.149s0.401,0.604,0.687,0.807s0.644,0.304,1.075,0.304c0.219,0,0.43-0.03,0.632-0.09
		s0.41-0.159,0.622-0.299c0.213-0.14,0.435-0.32,0.667-0.542c0.232-0.223,0.478-0.496,0.736-0.821V74.395z"/>
	<path d="M263.083,75.828c0,0.259-0.064,0.442-0.194,0.552s-0.278,0.164-0.445,0.164h-5.898c0,0.498,0.05,0.946,0.149,1.344
		c0.1,0.398,0.267,0.74,0.5,1.025s0.537,0.504,0.91,0.657c0.373,0.152,0.83,0.229,1.37,0.229c0.427,0,0.807-0.035,1.141-0.104
		c0.333-0.069,0.621-0.147,0.864-0.234c0.244-0.086,0.443-0.164,0.601-0.233c0.156-0.069,0.275-0.104,0.355-0.104
		c0.046,0,0.088,0.012,0.125,0.035c0.036,0.023,0.064,0.058,0.085,0.104c0.02,0.046,0.034,0.11,0.045,0.193
		c0.01,0.083,0.015,0.185,0.015,0.304c0,0.087-0.003,0.161-0.01,0.225c-0.007,0.062-0.015,0.119-0.025,0.169
		c-0.01,0.05-0.026,0.095-0.05,0.134c-0.022,0.04-0.053,0.078-0.089,0.115c-0.037,0.036-0.145,0.096-0.323,0.179
		c-0.18,0.083-0.412,0.164-0.697,0.244c-0.285,0.079-0.615,0.15-0.99,0.214c-0.375,0.062-0.774,0.095-1.199,0.095
		c-0.736,0-1.382-0.104-1.936-0.309c-0.555-0.206-1.021-0.511-1.398-0.916c-0.378-0.404-0.664-0.912-0.856-1.522
		s-0.288-1.32-0.288-2.13c0-0.77,0.1-1.462,0.299-2.075c0.198-0.613,0.485-1.135,0.86-1.562s0.828-0.757,1.358-0.985
		c0.531-0.229,1.125-0.344,1.782-0.344c0.703,0,1.302,0.113,1.796,0.339s0.9,0.529,1.22,0.91c0.318,0.382,0.552,0.83,0.701,1.344
		c0.149,0.515,0.224,1.063,0.224,1.647V75.828z M261.432,75.34c0.02-0.862-0.173-1.539-0.576-2.03
		c-0.404-0.491-1.003-0.736-1.798-0.736c-0.407,0-0.764,0.076-1.071,0.229c-0.307,0.153-0.564,0.355-0.771,0.607
		c-0.207,0.252-0.367,0.546-0.481,0.881c-0.113,0.335-0.177,0.686-0.189,1.05H261.432z"/>
</g>
<g>
	<path d="M187.787,74.544c0,0.432-0.081,0.841-0.243,1.229c-0.163,0.388-0.389,0.725-0.677,1.01
		c-0.289,0.285-0.626,0.509-1.011,0.672c-0.385,0.162-0.796,0.244-1.234,0.244c-0.431,0-0.841-0.08-1.229-0.239
		c-0.389-0.159-0.726-0.382-1.011-0.667s-0.507-0.622-0.666-1.01c-0.16-0.389-0.239-0.798-0.239-1.229
		c0-0.444,0.081-0.857,0.244-1.239c0.162-0.381,0.386-0.717,0.672-1.005c0.285-0.289,0.622-0.515,1.01-0.677
		c0.388-0.163,0.798-0.244,1.229-0.244c0.431,0,0.841,0.081,1.229,0.244c0.389,0.162,0.726,0.387,1.011,0.672
		s0.509,0.62,0.672,1.005C187.706,73.694,187.787,74.105,187.787,74.544z"/>
</g>
</svg>
