<?xml version="1.0" encoding="utf-8"?>
<!-- Generator: Adobe Illustrator 15.1.0, SVG Export Plug-In . SVG Version: 6.00 Build 0)  -->
<!DOCTYPE svg PUBLIC "-//W3C//DTD SVG 1.1//EN" "http://www.w3.org/Graphics/SVG/1.1/DTD/svg11.dtd">
<svg version="1.1" id="Layer_1" xmlns="http://www.w3.org/2000/svg" xmlns:xlink="http://www.w3.org/1999/xlink" x="0px" y="0px"
	 width="260px" height="260px" viewBox="0 0 260 260" enable-background="new 0 0 260 260" xml:space="preserve">
<g>
	<g>
		<path fill="#22ABE3" d="M37.66,1V186.06h185.057V1H37.66z M130.187,172.63c-43.686,0-79.102-35.412-79.102-79.099
			c0-43.689,35.417-79.108,79.102-79.108c43.687,0,79.104,35.418,79.104,79.108C209.291,137.218,173.874,172.63,130.187,172.63z"/>
		<path fill="#22ABE3" d="M130.187,39.653c-29.756,0-53.877,24.125-53.877,53.878c0,29.756,24.121,53.872,53.877,53.872
			c29.75,0,53.876-24.116,53.876-53.872C184.063,63.778,159.937,39.653,130.187,39.653z"/>
	</g>
	<g>
		<path fill="#22ABE3" d="M37.063,231.261c0-15.07,11.022-25.869,26.093-25.869c15.145,0,26.168,10.799,26.168,25.869
			S78.301,257.13,63.156,257.13C48.085,257.13,37.063,246.331,37.063,231.261z M78.377,231.261c0-9.375-5.997-16.42-15.221-16.42
			c-9.222,0-15.146,7.045-15.146,16.42c0,9.297,5.924,16.422,15.146,16.422C72.38,247.683,78.377,240.558,78.377,231.261z"/>
		<path fill="#22ABE3" d="M141.056,256.229v-35.014l-14.096,35.014h-4.648l-14.099-35.014v35.014H97.566v-50.012h14.919
			l12.149,30.215l12.148-30.215h14.995v50.012H141.056z"/>
		<path fill="#22ABE3" d="M162.417,256.229v-50.012h10.645v50.012H162.417z"/>
		<path fill="#22ABE3" d="M180.333,249.185l5.771-8.102c3.527,3.672,9.002,6.75,15.898,6.75c5.848,0,8.697-2.701,8.697-5.549
			c0-8.848-28.795-2.773-28.795-21.6c0-8.32,7.201-15.213,18.976-15.213c7.945,0,14.545,2.395,19.492,6.971l-5.921,7.797
			c-4.05-3.748-9.447-5.475-14.547-5.475c-4.578,0-7.126,2.027-7.126,5.029c0,7.941,28.72,2.617,28.72,21.289
			c0,9.146-6.525,16.047-20.021,16.047C191.883,257.13,184.982,253.903,180.333,249.185z"/>
	</g>
</g>
</svg>
