<?xml version="1.0" encoding="utf-8"?>
<!-- Generator: Adobe Illustrator 15.1.0, SVG Export Plug-In . SVG Version: 6.00 Build 0)  -->
<!DOCTYPE svg PUBLIC "-//W3C//DTD SVG 1.1//EN" "http://www.w3.org/Graphics/SVG/1.1/DTD/svg11.dtd">
<svg version="1.1" id="Layer_1" xmlns="http://www.w3.org/2000/svg" xmlns:xlink="http://www.w3.org/1999/xlink" x="0px" y="0px"
	 width="198.106px" height="143.026px" viewBox="0 0 198.106 143.026" enable-background="new 0 0 198.106 143.026"
	 xml:space="preserve">
<path fill="#010202" d="M126.585,0c-9.754,0-19.059,1.968-27.537,5.52C90.565,1.968,81.267,0,71.511,0
	C32.079,0-0.001,32.08-0.001,71.513c0,39.432,32.08,71.513,71.513,71.513h110.152c9.082,0,16.441-7.36,16.441-16.44V71.513
	C198.104,32.08,166.021,0,126.585,0z M74.903,75.109h35.055c-1.291,13.867-9.947,25.609-22.007,31.312
	c-4.022,1.904-8.418,3.142-13.048,3.559V75.109z M110.003,68.327h-35.1V33.039c9.419,0.826,17.875,5.043,24.146,11.426
	C105.2,50.727,109.241,59.067,110.003,68.327z M66.189,33.291c0.64-0.088,1.286-0.152,1.932-0.216v35.253H33.016
	C34.5,50.29,48.439,35.754,66.189,33.291z M33.065,75.109h35.056v34.871c-4.631-0.416-9.023-1.654-13.048-3.559
	C43.01,100.716,34.356,88.975,33.065,75.109z M165.224,110.146h-33.582c7.191-11.151,11.383-24.41,11.383-38.633
	c0-14.051-4.09-27.158-11.117-38.223c18.785,2.607,33.316,18.732,33.316,38.223V110.146z"/>
</svg>
