<?xml version="1.0" encoding="utf-8"?>
<!-- Generator: Adobe Illustrator 15.1.0, SVG Export Plug-In . SVG Version: 6.00 Build 0)  -->
<!DOCTYPE svg PUBLIC "-//W3C//DTD SVG 1.1//EN" "http://www.w3.org/Graphics/SVG/1.1/DTD/svg11.dtd">
<svg version="1.1" id="Layer_1" xmlns="http://www.w3.org/2000/svg" xmlns:xlink="http://www.w3.org/1999/xlink" x="0px" y="0px"
	 width="184.515px" height="182.899px" viewBox="0 0 184.515 182.899" enable-background="new 0 0 184.515 182.899"
	 xml:space="preserve">
<path fill="#010202" d="M150.41,82.195l-27.057-27.058L150.41,28.08v18.039l34.104,0V0H0v182.899h184.515V64.157l-34.104,0V82.195z
	 M134.741,142.491c-3.997,2.856-9.134,5.115-18.464,5.225c-13.368-0.467-29.11-5.653-51.614-27.932l-0.002,0.003
	c-0.125-0.124-0.246-0.246-0.37-0.37c-0.125-0.125-0.246-0.246-0.37-0.37l0.002-0.003c-22.279-22.506-27.464-38.245-27.93-51.612
	c0.107-9.332,2.366-14.463,5.222-18.466c4.395-5.875,10.933-13.379,15.921-13.77c8.258-0.636,32.365,23.472,23.474,32.363
	c-4.476,4.476-11.378,3.449-12.021,11.702c-0.625,8.12,6.018,14.906,13.484,22.372c7.464,7.466,14.252,14.108,22.371,13.483
	c8.251-0.639,7.222-7.543,11.7-12.023c8.893-8.891,33.004,15.221,32.364,23.476C148.12,131.558,140.619,138.1,134.741,142.491z"/>
</svg>
