<?xml version="1.0" encoding="utf-8"?>
<!-- Generator: Adobe Illustrator 15.1.0, SVG Export Plug-In . SVG Version: 6.00 Build 0)  -->
<!DOCTYPE svg PUBLIC "-//W3C//DTD SVG 1.1//EN" "http://www.w3.org/Graphics/SVG/1.1/DTD/svg11.dtd">
<svg version="1.1" id="Layer_1" xmlns="http://www.w3.org/2000/svg" xmlns:xlink="http://www.w3.org/1999/xlink" x="0px" y="0px"
	 width="126.527px" height="126.527px" viewBox="0 0 126.527 126.527" enable-background="new 0 0 126.527 126.527"
	 xml:space="preserve">
<g>
	<path fill="#010202" d="M77.036,71.436c-2.284,0-4.067,1.283-4.067,4.494c0,3.141,1.783,4.354,4.067,4.354
		c2.283,0,4.139-1.213,4.139-4.354C81.175,72.719,79.319,71.436,77.036,71.436z"/>
	<path fill="#010202" d="M53.559,50.74c0-3.211-1.855-4.496-4.139-4.496c-2.212,0-3.996,1.285-3.996,4.496
		c0,3.068,1.784,4.354,3.996,4.354C51.703,55.094,53.559,53.809,53.559,50.74z"/>
	<path fill="#010202" d="M63.264,0C28.324,0,0,28.324,0,63.264s28.324,63.264,63.264,63.264s63.264-28.324,63.264-63.264
		S98.203,0,63.264,0z M36.718,50.74c0-6.707,4.924-12.061,12.702-12.061c7.85,0,12.845,5.354,12.845,12.061
		c0,6.637-4.995,11.918-12.845,11.918C41.642,62.658,36.718,57.377,36.718,50.74z M51.561,86.99h-6.922l30.398-47.596h6.994
		L51.561,86.99z M77.036,87.848c-7.778,0-12.702-5.281-12.702-11.918c0-6.707,4.924-12.059,12.702-12.059S89.81,69.223,89.81,75.93
		C89.81,82.566,84.814,87.848,77.036,87.848z"/>
</g>
</svg>
