<?xml version="1.0" encoding="utf-8"?>
<!-- Generator: Adobe Illustrator 15.1.0, SVG Export Plug-In . SVG Version: 6.00 Build 0)  -->
<!DOCTYPE svg PUBLIC "-//W3C//DTD SVG 1.1//EN" "http://www.w3.org/Graphics/SVG/1.1/DTD/svg11.dtd">
<svg version="1.1" id="Layer_1" xmlns="http://www.w3.org/2000/svg" xmlns:xlink="http://www.w3.org/1999/xlink" x="0px" y="0px"
	 width="153.214px" height="153.214px" viewBox="0 0 153.214 153.214" enable-background="new 0 0 153.214 153.214"
	 xml:space="preserve">
<g>
	<path d="M76.606,0C34.365,0-0.001,34.365-0.001,76.607c0,42.241,34.366,76.607,76.607,76.607c42.241,0,76.608-34.366,76.608-76.607
		C153.214,34.365,118.847,0,76.606,0z M17.633,83.676c-0.242-2.036-0.382-4.103-0.413-6.196c5.087,5.579,16.602,4.131,16.602,6.673
		c0,1.325-1.835,1.835-3.773,1.835c-4.59,0-8.416-1.938-10.965-4.385L17.633,83.676z M76.606,136.014
		c-27.129,0-50.051-18.283-57.133-43.172c2.768,1.141,6.055,1.817,10.066,1.817c9.128,0,14.686-4.335,14.686-11.831
		c0-12.647-18.919-9.895-18.919-13.106c0-0.867,0.561-1.53,2.601-1.53c3.213,0,7.038,1.123,9.996,3.365l5.507-7.292
		c-3.875-3.162-8.873-4.743-14.432-4.743c-4.381,0-7.748,1.224-10.103,3.107C25.179,36.596,48.663,17.2,76.606,17.2
		c27.004,0,49.842,18.118,57.038,42.833h-23.007v34.015h22.761C125.927,118.32,103.297,136.014,76.606,136.014z M135.4,85.071
		h-14.462V81.35h14.869C135.708,82.6,135.577,83.844,135.4,85.071z M135.846,72.373h-14.907v-3.366h14.572
		C135.653,70.121,135.766,71.242,135.846,72.373z"/>
	<path d="M55.96,60.032L43.415,94.047h11.677l1.224-3.977h12.24l1.223,3.977h11.679L68.913,60.032H55.96z M59.07,81.094
		l3.366-10.964l3.366,10.964H59.07z"/>
	<polygon points="93.6,60.032 83.298,60.032 83.298,94.047 106.502,94.047 106.502,85.071 93.6,85.071 	"/>
</g>
</svg>
