<?xml version="1.0" encoding="utf-8"?>
<!-- Generator: Adobe Illustrator 15.1.0, SVG Export Plug-In . SVG Version: 6.00 Build 0)  -->
<!DOCTYPE svg PUBLIC "-//W3C//DTD SVG 1.1//EN" "http://www.w3.org/Graphics/SVG/1.1/DTD/svg11.dtd">
<svg version="1.1" id="Layer_1" xmlns="http://www.w3.org/2000/svg" xmlns:xlink="http://www.w3.org/1999/xlink" x="0px" y="0px"
	 width="183.004px" height="180.898px" viewBox="0 0 183.004 180.898" enable-background="new 0 0 183.004 180.898"
	 xml:space="preserve">
<path fill="#010202" d="M74.063,32.772H37.031C16.581,32.772,0,49.353,0,69.803v74.064c0,20.45,16.581,37.031,37.031,37.031h37.032
	c20.45,0,37.032-16.581,37.032-37.031V69.803C111.095,49.353,94.513,32.772,74.063,32.772z M55.547,171.93
	c-5.273,0-9.545-4.268-9.545-9.547c0-5.28,4.276-9.547,9.545-9.547c5.271,0,9.547,4.267,9.547,9.547
	C65.095,167.662,60.818,171.93,55.547,171.93z M92.58,143.867H18.516V69.803c0-10.198,8.309-18.516,18.516-18.516h37.032
	c10.198,0,18.517,8.318,18.517,18.516V143.867z"/>
<path fill="#010202" d="M149.918,0c-9.136,0-17.407,3.704-23.392,9.692L116.833,0v24.814h24.814l-9.272-9.274
	c4.486-4.492,10.69-7.269,17.544-7.269c13.704,0,24.815,11.111,24.815,24.814c0,7.412-3.251,14.063-8.402,18.611l5.472,6.204
	c6.868-6.062,11.201-14.932,11.201-24.815C183.004,14.812,168.193,0,149.918,0z"/>
</svg>
