<?xml version="1.0" encoding="utf-8"?>
<!-- Generator: Adobe Illustrator 15.1.0, SVG Export Plug-In . SVG Version: 6.00 Build 0)  -->
<!DOCTYPE svg PUBLIC "-//W3C//DTD SVG 1.1//EN" "http://www.w3.org/Graphics/SVG/1.1/DTD/svg11.dtd">
<svg version="1.1" id="Layer_1" xmlns="http://www.w3.org/2000/svg" xmlns:xlink="http://www.w3.org/1999/xlink" x="0px" y="0px"
	 width="184.52px" height="182.899px" viewBox="0 0 184.52 182.899" enable-background="new 0 0 184.52 182.899"
	 xml:space="preserve">
<g>
	<path fill="#010202" d="M76,106.899V0H0v182.899h1.621H76h108.52v-76H76z M60,16v15.379H44.013v10H60v17.601H28.013v10H60v17.6
		H44.013v10H60v10.32H16V16H60z M17.621,166.899v-44H60v44H17.621z M168.52,166.899H76v-44h12.2v15.987h10v-15.987h17.594v31.987h10
		v-31.987h17.6v15.987h10v-15.987h15.127V166.899z"/>
	<polygon fill="#010202" points="109.923,66.095 115.523,81.929 121.423,81.929 127.023,66.095 127.023,81.929 137.799,81.929 
		137.799,52.85 123.47,52.85 118.414,66.877 113.416,52.85 99.087,52.85 99.087,81.929 109.923,81.929 	"/>
	<polygon fill="#010202" points="154.661,66.095 160.26,81.929 166.16,81.929 171.759,66.095 171.759,81.929 182.537,81.929 
		182.537,52.85 168.207,52.85 163.15,66.877 158.153,52.85 143.824,52.85 143.824,81.929 154.661,81.929 	"/>
</g>
</svg>
