<?xml version="1.0" encoding="utf-8"?>
<!-- Generator: Adobe Illustrator 15.1.0, SVG Export Plug-In . SVG Version: 6.00 Build 0)  -->
<!DOCTYPE svg PUBLIC "-//W3C//DTD SVG 1.1//EN" "http://www.w3.org/Graphics/SVG/1.1/DTD/svg11.dtd">
<svg version="1.1" id="Layer_1" xmlns="http://www.w3.org/2000/svg" xmlns:xlink="http://www.w3.org/1999/xlink" x="0px" y="0px"
	 width="111.75px" height="150.531px" viewBox="0 0 111.75 150.531" enable-background="new 0 0 111.75 150.531"
	 xml:space="preserve">
<path fill="#010202" d="M0,0v150.531h111.751V0H0z M34.322,136.892H15.979v-18.343h18.342V136.892z M34.322,107.769H15.979V89.426
	h18.342V107.769z M34.322,78.646H15.979V60.304h18.342V78.646z M64.564,136.892H46.222v-18.343h18.343V136.892z M64.564,107.769
	H46.222V89.426h18.343V107.769z M64.564,78.646H46.222V60.304h18.343V78.646z M94.806,136.892H76.464v-18.343h18.342V136.892z
	 M94.806,107.769H76.464V89.426h18.342V107.769z M94.806,78.646H76.464V60.304h18.342V78.646z M94.806,47.244H15.979V18.47h78.826
	V47.244z"/>
</svg>
