<?xml version="1.0" encoding="utf-8"?>
<!-- Generator: Adobe Illustrator 15.1.0, SVG Export Plug-In . SVG Version: 6.00 Build 0)  -->
<!DOCTYPE svg PUBLIC "-//W3C//DTD SVG 1.1//EN" "http://www.w3.org/Graphics/SVG/1.1/DTD/svg11.dtd">
<svg version="1.1" id="Layer_1" xmlns="http://www.w3.org/2000/svg" xmlns:xlink="http://www.w3.org/1999/xlink" x="0px" y="0px"
	 width="216.546px" height="174.094px" viewBox="0 0 216.546 174.094" enable-background="new 0 0 216.546 174.094"
	 xml:space="preserve">
<g>
	<path fill="#010202" d="M181.931,31.566H69.965H50.616V16h8V0h-24v31.566H0v142.528h69.965h111.966v-23.562h7.998v-16h-7.998
		V31.566z M16,158.094V47.566h37.965v110.528H16z M165.931,158.094H69.965V47.566h95.966V158.094z"/>
	<rect x="66.987" fill="#010202" width="33.482" height="16"/>
	<rect x="108.84" fill="#010202" width="33.482" height="16"/>
	<rect x="150.693" fill="#010202" width="33.483" height="16"/>
	<polygon fill="#010202" points="192.546,0 192.546,16 200.546,16 200.546,24 216.546,24 216.546,0 	"/>
	<rect x="200.546" y="33.321" fill="#010202" width="16" height="37.284"/>
	<rect x="200.546" y="79.926" fill="#010202" width="16" height="37.284"/>
	<polygon fill="#010202" points="200.546,134.531 192.546,134.531 192.546,150.531 216.546,150.531 216.546,126.531 
		200.546,126.531 	"/>
</g>
</svg>
