<?xml version="1.0" encoding="utf-8"?>
<!-- Generated by IcoMoon.io -->
<!DOCTYPE svg PUBLIC "-//W3C//DTD SVG 1.1//EN" "http://www.w3.org/Graphics/SVG/1.1/DTD/svg11.dtd">
<svg version="1.1" xmlns="http://www.w3.org/2000/svg" xmlns:xlink="http://www.w3.org/1999/xlink" width="44" height="32" viewBox="0 0 44 32">
	<path d="M28.322 0c-2.182 0-4.264 0.44-6.161 1.235-1.898-0.795-3.978-1.235-6.161-1.235-8.822 0-16 7.177-16 16 0 8.822 7.177 16 16 16h24.645c2.032 0 3.678-1.647 3.678-3.678v-12.322c-0-8.823-7.178-16-16.002-16zM16.758 16.805h7.843c-0.289 3.103-2.226 5.73-4.924 7.006-0.9 0.426-1.883 0.703-2.919 0.796v-7.802zM24.612 15.287h-7.853v-7.895c2.107 0.185 3.999 1.128 5.402 2.556 1.376 1.401 2.28 3.267 2.451 5.339zM14.809 7.448c0.143-0.020 0.288-0.034 0.432-0.048v7.887h-7.854c0.332-4.036 3.451-7.288 7.422-7.839zM7.398 16.805h7.843v7.802c-1.036-0.093-2.019-0.37-2.919-0.796-2.699-1.276-4.635-3.903-4.924-7.006zM36.966 24.644h-7.514c1.609-2.495 2.547-5.461 2.547-8.644 0-3.144-0.915-6.076-2.487-8.552 4.203 0.583 7.454 4.191 7.454 8.552v8.644z" fill="#000000" />
</svg>
