<?xml version="1.0" encoding="utf-8"?>
<!-- Generated by IcoMoon.io -->
<!DOCTYPE svg PUBLIC "-//W3C//DTD SVG 1.1//EN" "http://www.w3.org/Graphics/SVG/1.1/DTD/svg11.dtd">
<svg version="1.1" xmlns="http://www.w3.org/2000/svg" xmlns:xlink="http://www.w3.org/1999/xlink" width="30" height="32" viewBox="0 0 30 32">
	<path d="M29.714 21.143v0.571q0 2.357-1.679 4.036t-4.036 1.679h-2.286q-2.357 0-4.036-1.679t-1.679-4.036v-8.571h-4q-0.036 1.821-0.259 3.402t-0.545 2.786-0.866 2.259-1.018 1.777-1.205 1.384-1.241 1.045-1.321 0.786-1.232 0.571-1.17 0.455q-0.071 0.036-0.571 0.232-0.143 0.036-0.214 0.036-0.393 0-0.536-0.357l-1.268-3.179q-0.089-0.232 0-0.446t0.304-0.304q0.125-0.054 0.357-0.134t0.321-0.116q0.554-0.214 0.83-0.33t0.795-0.357 0.813-0.464 0.75-0.58 0.723-0.759 0.616-0.955 0.545-1.223 0.402-1.491 0.304-1.839 0.116-2.196h-4.571q-0.25 0-0.411-0.161t-0.161-0.411v-2.857q0-0.25 0.161-0.411t0.411-0.161h21.714q0.25 0 0.411 0.161t0.161 0.411v2.857q0 0.25-0.161 0.411t-0.411 0.161h-4v9.143q0 0.464 0.339 0.804t0.804 0.339h2.286q0.464 0 0.804-0.339t0.339-0.804v-1.143q0-0.25 0.161-0.411t0.411-0.161h3.429q0.25 0 0.411 0.161t0.161 0.411zM22.857 2.857v2.857q0 0.25-0.161 0.411t-0.411 0.161h-17.143q-0.25 0-0.411-0.161t-0.161-0.411v-2.857q0-0.25 0.161-0.411t0.411-0.161h17.143q0.25 0 0.411 0.161t0.161 0.411z" fill="#000000" />
</svg>
