<?xml version="1.0" encoding="utf-8"?>
<!-- Generated by IcoMoon.io -->
<!DOCTYPE svg PUBLIC "-//W3C//DTD SVG 1.1//EN" "http://www.w3.org/Graphics/SVG/1.1/DTD/svg11.dtd">
<svg version="1.1" xmlns="http://www.w3.org/2000/svg" xmlns:xlink="http://www.w3.org/1999/xlink" width="34" height="32" viewBox="0 0 34 32">
	<path d="M14.375 24.518q-2.179 1.196-4.661 1.196-2.518 0-4.661-1.196 1.75-1.089 2.982-2.661t1.679-3.411q0.446 1.839 1.679 3.411t2.982 2.661zM8.089 6.429v6.143q0 3.196-1.598 5.821t-4.188 3.875q-2.304-2.714-2.304-6.268 0-3.571 2.313-6.286t5.777-3.286zM17.107 9.732q-2.286 2.714-2.286 6.268 0 3.589 2.286 6.268-2.589-1.25-4.188-3.893t-1.598-5.857v-6.089q3.5 0.589 5.786 3.304zM29.25 24.518q-2.179 1.196-4.661 1.196-2.518 0-4.661-1.196 1.75-1.089 2.982-2.661t1.679-3.411q0.446 1.839 1.679 3.411t2.982 2.661zM22.964 6.429v6.143q0 3.196-1.625 5.821t-4.232 3.875v0q2.375-2.75 2.375-6.268 0-3.482-2.375-6.268 2.304-2.696 5.857-3.304zM34.286 16q0 3.589-2.304 6.268-2.589-1.25-4.188-3.893t-1.598-5.857v-6.089q3.464 0.571 5.777 3.286t2.313 6.286z" fill="#000000" />
</svg>
