<?xml version="1.0" encoding="utf-8"?>
<!-- Generated by IcoMoon.io -->
<!DOCTYPE svg PUBLIC "-//W3C//DTD SVG 1.1//EN" "http://www.w3.org/Graphics/SVG/1.1/DTD/svg11.dtd">
<svg version="1.1" xmlns="http://www.w3.org/2000/svg" xmlns:xlink="http://www.w3.org/1999/xlink" width="44" height="32" viewBox="0 0 44 32">
	<path d="M35.711 9.91c0-1.907 0-3.814 0-5.721 0-0.041 0-0.083 0-0.124-4.388-2.655-9.895-4.349-16.843-4.026-5.297 0.246-10.086 1.539-13.512 4.15-3.053 2.326-5.024 5.698-5.304 10.311-0.375 6.177 1.232 10.48 5.548 13.311 0 0 6.288 4.124 13.267 4.149 6.948 0.324 12.455-1.37 16.843-4.026 0-0.041 0-0.083 0-0.124 0-1.992 0-3.984 0-5.976 1.466 0 2.933 0 4.399 0h0.186v-6.592h3.681v-5.334h-8.266zM8.515 18.527c0-1.068 0-2.137 0-3.205 0.613-0.019 1.154 0.127 1.725 0 1.201-0.265 2.072-1.355 1.972-2.712-0.21-2.851-4.133-3.051-5.012-0.739-0.625 1.644-0.165 11.065-0.165 13.229-1.338-0.552-3.089-1.357-3.407-2.712-0.334-1.425-0.143-8.652 0-10.188 0.262-2.811 2.776-4.916 5.297-5.177 2.106-0.217 3.817 0.612 4.847 1.644 3.488 3.487 1.176 10.885-5.258 9.86zM17.224 16.883c-0.822-9.427 10.974-10.671 17.085-6.974h-7.35v5.334h3.681v6.592h0.776c1.007 0 2.013 0 3.019 0-5.695 3.455-16.566 2.452-17.212-4.952z" fill="#000000" />
</svg>
