<?xml version="1.0" encoding="utf-8"?>
<!-- Generated by IcoMoon.io -->
<!DOCTYPE svg PUBLIC "-//W3C//DTD SVG 1.1//EN" "http://www.w3.org/Graphics/SVG/1.1/DTD/svg11.dtd">
<svg version="1.1" xmlns="http://www.w3.org/2000/svg" xmlns:xlink="http://www.w3.org/1999/xlink" width="32" height="32" viewBox="0 0 32 32">
	<path d="M16 0c-8.822 0-16 7.177-16 16 0 8.822 7.178 16 16 16 8.822 0 16-7.178 16-16 0-8.823-7.178-16-16-16zM3.683 17.476c-0.051-0.425-0.080-0.857-0.086-1.294 1.062 1.165 3.467 0.863 3.467 1.394 0 0.277-0.383 0.383-0.788 0.383-0.959 0-1.758-0.405-2.29-0.916l-0.303 0.433zM16 28.408c-5.666 0-10.454-3.819-11.933-9.017 0.578 0.238 1.265 0.38 2.102 0.38 1.906 0 3.067-0.905 3.067-2.471 0-2.641-3.951-2.067-3.951-2.737 0-0.181 0.117-0.32 0.543-0.32 0.671 0 1.47 0.235 2.088 0.703l1.15-1.523c-0.809-0.66-1.853-0.991-3.014-0.991-0.915 0-1.618 0.256-2.11 0.649 1.317-5.437 6.221-9.488 12.058-9.488 5.64 0 10.41 3.784 11.913 8.946h-4.805v7.104h4.754c-1.56 5.069-6.287 8.765-11.861 8.765zM28.279 17.768h-3.020v-0.777h3.105c-0.021 0.261-0.048 0.521-0.085 0.777zM28.373 15.116h-3.113v-0.703h3.043c0.030 0.233 0.053 0.467 0.070 0.703z" fill="#000000" />
	<path d="M11.688 12.538l-2.62 7.104h2.439l0.256-0.831h2.556l0.255 0.831h2.439l-2.62-7.104h-2.705zM12.337 16.937l0.703-2.29 0.703 2.29h-1.406z" fill="#000000" />
	<path d="M19.549 12.538h-2.152v7.104h4.846v-1.875h-2.695z" fill="#000000" />
</svg>
