<?xml version="1.0" encoding="utf-8"?>
<!-- Generated by IcoMoon.io -->
<!DOCTYPE svg PUBLIC "-//W3C//DTD SVG 1.1//EN" "http://www.w3.org/Graphics/SVG/1.1/DTD/svg11.dtd">
<svg version="1.1" xmlns="http://www.w3.org/2000/svg" xmlns:xlink="http://www.w3.org/1999/xlink" width="24" height="32" viewBox="0 0 24 32">
	<path d="M0 0v32h23.756v-32h-23.756zM7.296 29.101h-3.899v-3.899h3.899v3.899zM7.296 22.91h-3.899v-3.899h3.899v3.899zM7.296 16.719h-3.899v-3.899h3.899v3.899zM13.725 29.101h-3.899v-3.899h3.899v3.899zM13.725 22.91h-3.899v-3.899h3.899v3.899zM13.725 16.719h-3.899v-3.899h3.899v3.899zM20.154 29.101h-3.899v-3.899h3.899v3.899zM20.154 22.91h-3.899v-3.899h3.899v3.899zM20.154 16.719h-3.899v-3.899h3.899v3.899zM20.154 10.043h-16.757v-6.117h16.757v6.117z" fill="#000000" />
</svg>
