<?xml version="1.0" encoding="utf-8"?>
<!-- Generated by IcoMoon.io -->
<!DOCTYPE svg PUBLIC "-//W3C//DTD SVG 1.1//EN" "http://www.w3.org/Graphics/SVG/1.1/DTD/svg11.dtd">
<svg version="1.1" xmlns="http://www.w3.org/2000/svg" xmlns:xlink="http://www.w3.org/1999/xlink" width="21" height="32" viewBox="0 0 21 32">
	<path d="M0 11.304h4.957v4.957h-4.957v-4.957z" fill="#000000" />
	<path d="M8.172 11.304h4.957v4.957h-4.957v-4.957z" fill="#000000" />
	<path d="M16.344 11.304h4.957v4.957h-4.957v-4.957z" fill="#000000" />
	<path d="M0 19.174h4.957v4.957h-4.957v-4.957z" fill="#000000" />
	<path d="M8.172 19.174h4.957v4.957h-4.957v-4.957z" fill="#000000" />
	<path d="M16.344 19.174h4.957v4.957h-4.957v-4.957z" fill="#000000" />
	<path d="M0 27.044h4.957v4.956h-4.957v-4.956z" fill="#000000" />
	<path d="M8.172 27.044h4.957v4.956h-4.957v-4.956z" fill="#000000" />
	<path d="M16.344 27.044h4.957v4.956h-4.957v-4.956z" fill="#000000" />
	<path d="M0 0h21.301v7.775h-21.301v-7.775z" fill="#000000" />
</svg>
