<?xml version="1.0" encoding="utf-8"?>
<!-- Generated by IcoMoon.io -->
<!DOCTYPE svg PUBLIC "-//W3C//DTD SVG 1.1//EN" "http://www.w3.org/Graphics/SVG/1.1/DTD/svg11.dtd">
<svg version="1.1" xmlns="http://www.w3.org/2000/svg" xmlns:xlink="http://www.w3.org/1999/xlink" width="40" height="32" viewBox="0 0 40 32">
	<path d="M33.441 5.802h-24.137v-2.861h1.47v-2.941h-4.411v5.802h-6.363v26.198h33.441v-4.331h1.47v-2.941h-1.47v-18.926zM2.941 29.059v-20.316h6.978v20.316h-6.978zM30.5 29.059h-17.639v-20.316h17.639v20.316z" fill="#000000" />
	<path d="M12.313 0h6.154v2.941h-6.154v-2.941z" fill="#000000" />
	<path d="M20.006 0h6.154v2.941h-6.154v-2.941z" fill="#000000" />
	<path d="M27.699 0h6.154v2.941h-6.154v-2.941z" fill="#000000" />
	<path d="M35.392 0v2.941h1.47v1.47h2.941v-4.411z" fill="#000000" />
	<path d="M36.862 6.125h2.941v6.853h-2.941v-6.853z" fill="#000000" />
	<path d="M36.862 14.691h2.941v6.853h-2.941v-6.853z" fill="#000000" />
	<path d="M36.862 24.728h-1.47v2.941h4.411v-4.411h-2.941z" fill="#000000" />
</svg>
