<?xml version="1.0" encoding="utf-8"?>
<!-- Generated by IcoMoon.io -->
<!DOCTYPE svg PUBLIC "-//W3C//DTD SVG 1.1//EN" "http://www.w3.org/Graphics/SVG/1.1/DTD/svg11.dtd">
<svg version="1.1" xmlns="http://www.w3.org/2000/svg" xmlns:xlink="http://www.w3.org/1999/xlink" width="32" height="32" viewBox="0 0 32 32">
	<path d="M13.297 18.703v-18.703h-13.297v32h32.284v-13.297h-18.987zM10.498 2.799v2.691h-2.797v1.75h2.797v3.079h-5.596v1.75h5.596v3.079h-2.797v1.75h2.797v1.806h-7.698v-15.904h7.698zM3.083 29.201v-7.698h7.415v7.698h-7.415zM29.484 29.201h-16.187v-7.698h2.134v2.797h1.75v-2.797h3.078v5.596h1.75v-5.596h3.079v2.797h1.75v-2.797h2.647v7.698z" fill="#000000" />
	<path d="M19.232 11.564l0.98 2.77h1.032l0.98-2.77v2.77h1.885v-5.088h-2.507l-0.885 2.454-0.874-2.454h-2.507v5.088h1.896z" fill="#000000" />
	<path d="M27.059 11.564l0.98 2.77h1.032l0.98-2.77v2.77h1.886v-5.088h-2.507l-0.885 2.454-0.874-2.454h-2.507v5.088h1.896z" fill="#000000" />
</svg>
