<?xml version="1.0" encoding="utf-8"?>
<!-- Generated by IcoMoon.io -->
<!DOCTYPE svg PUBLIC "-//W3C//DTD SVG 1.1//EN" "http://www.w3.org/Graphics/SVG/1.1/DTD/svg11.dtd">
<svg version="1.1" xmlns="http://www.w3.org/2000/svg" xmlns:xlink="http://www.w3.org/1999/xlink" width="32" height="32" viewBox="0 0 32 32">
	<path d="M12.699 17.037h1.355l-0.678-2.208z" fill="#000000" />
	<path d="M16 0c-8.836 0-16 7.163-16 16 0 8.837 7.163 16 16 16s16-7.163 16-16c0-8.836-7.163-16-16-16zM6.752 19.768c-1.458 0-2.454-0.431-3.183-1.089l1.078-1.54c0.514 0.493 1.284 0.883 2.208 0.883 0.39 0 0.76-0.102 0.76-0.37 0-0.657-3.82 0.011-3.82-2.69 0-1.161 0.966-2.27 2.845-2.27 1.119 0 2.126 0.318 2.906 0.955l-1.109 1.469c-0.596-0.452-1.366-0.678-2.013-0.678-0.411 0-0.523 0.133-0.523 0.308 0 0.647 3.81 0.092 3.81 2.639-0 1.509-1.12 2.382-2.958 2.382zM14.855 19.645l-0.246-0.801h-2.465l-0.247 0.801h-2.352l2.526-6.849h2.608l2.526 6.849h-2.352zM22.25 19.645h-4.672v-6.849h2.074v5.042h2.598v1.807zM28.207 15.281v1.807h-3.050v0.75h3.122v1.807h-5.196v-6.849h5.196v1.807h-3.122v0.678h3.050z" fill="#000000" />
</svg>
