<?xml version="1.0" encoding="utf-8"?>
<!-- Generated by IcoMoon.io -->
<!DOCTYPE svg PUBLIC "-//W3C//DTD SVG 1.1//EN" "http://www.w3.org/Graphics/SVG/1.1/DTD/svg11.dtd">
<svg version="1.1" xmlns="http://www.w3.org/2000/svg" xmlns:xlink="http://www.w3.org/1999/xlink" width="32" height="32" viewBox="0 0 32 32">
	<path d="M19.483 18.067c-0.578 0-1.029 0.324-1.029 1.137 0 0.794 0.451 1.101 1.029 1.101 0.577 0 1.047-0.307 1.047-1.101 0-0.812-0.469-1.137-1.047-1.137z" fill="#000000" />
	<path d="M13.546 12.833c0-0.812-0.469-1.137-1.047-1.137-0.559 0-1.011 0.325-1.011 1.137 0 0.776 0.451 1.101 1.011 1.101 0.577 0 1.047-0.325 1.047-1.101z" fill="#000000" />
	<path d="M16 0c-8.837 0-16 7.163-16 16s7.163 16 16 16 16-7.163 16-16-7.164-16-16-16zM9.286 12.833c0-1.696 1.245-3.050 3.212-3.050 1.985 0 3.249 1.354 3.249 3.050 0 1.679-1.263 3.014-3.249 3.014-1.967 0-3.212-1.336-3.212-3.014zM13.040 22.001h-1.751l7.688-12.038h1.769l-7.706 12.038zM19.483 22.218c-1.967 0-3.212-1.336-3.212-3.014 0-1.696 1.245-3.050 3.212-3.050s3.231 1.354 3.231 3.050c0 1.678-1.264 3.014-3.231 3.014z" fill="#000000" />
</svg>
