<?xml version="1.0" encoding="utf-8"?>
<!-- Generator: Adobe Illustrator 15.1.0, SVG Export Plug-In . SVG Version: 6.00 Build 0)  -->
<!DOCTYPE svg PUBLIC "-//W3C//DTD SVG 1.1//EN" "http://www.w3.org/Graphics/SVG/1.1/DTD/svg11.dtd">
<svg version="1.1" id="Layer_1" xmlns="http://www.w3.org/2000/svg" xmlns:xlink="http://www.w3.org/1999/xlink" x="0px" y="0px"
	 width="2624.242px" height="364.036px" viewBox="881.785 -1203.548 2624.242 364.036"
	 enable-background="new 881.785 -1203.548 2624.242 364.036" xml:space="preserve">
<g>
	<polygon fill="#248ECE" points="2860.152,-888.199 2910.629,-1184.395 2991.363,-1184.395 2940.853,-888.199 	"/>
	<path fill="#248ECE" d="M3233.66-1177.102c-15.995-6-41.054-12.439-72.354-12.439c-79.772,0-135.966,40.173-136.445,97.747
		c-0.449,42.561,40.116,66.302,70.74,80.472c31.426,14.517,41.99,23.777,41.84,36.741c-0.199,19.853-25.096,28.923-48.3,28.923
		c-32.313,0-49.48-4.489-75.996-15.547l-10.403-4.707l-11.331,66.307c18.855,8.267,53.726,15.431,89.932,15.801
		c84.865,0,139.955-39.712,140.582-101.194c0.304-33.695-21.207-59.337-67.779-80.475c-28.222-13.703-45.502-22.846-45.319-36.72
		c0-12.312,14.628-25.477,46.233-25.477c26.4-0.409,45.523,5.348,60.424,11.348l7.233,3.418L3233.66-1177.102"/>
	<path fill="#248ECE" d="M3440.683-1184.111h-62.384c-19.323,0-33.788,5.275-42.272,24.563l-119.901,271.442h84.775
		c0,0,13.86-36.497,16.995-44.51c9.265,0,91.623,0.127,103.395,0.127c2.416,10.37,9.822,44.383,9.822,44.383h74.915
		L3440.683-1184.111 M3341.131-993.2c6.679-17.065,32.164-82.799,32.164-82.799c-0.476,0.788,6.628-17.148,10.705-28.271
		l5.456,25.537c0,0,15.46,70.704,18.692,85.53L3341.131-993.2L3341.131-993.2z"/>
	<path fill="#248ECE" d="M2792.439-1184.177l-79.04,201.983l-8.422-41.047c-14.714-47.318-60.56-98.583-111.812-124.249
		l72.274,259.036l85.417-0.097l127.103-295.625H2792.439"/>
	<path fill="#FFA000" d="M2640.072-1184.361h-130.182l-1.031,6.163c101.28,24.518,168.299,83.766,196.116,154.956l-28.307-136.113
		C2671.78-1178.111,2657.607-1183.708,2640.072-1184.361"/>
</g>
<g>
	<path id="path2268" fill="#FF9900" d="M1480.559-1024.304c0.028,98.969-80.183,179.217-179.152,179.243
		c-98.971,0.024-179.217-80.183-179.242-179.151c0-0.032,0-0.06,0-0.091c-0.024-98.968,80.183-179.219,179.149-179.244
		c98.972-0.026,179.22,80.184,179.245,179.154C1480.559-1024.363,1480.559-1024.336,1480.559-1024.304z"/>
	<path id="path1350" fill="#CC0000" d="M1059.828-1203.501c-98.383,0.625-178.043,80.667-178.043,179.197
		c0,98.916,80.28,179.195,179.199,179.195c46.424,0,88.742-17.693,120.586-46.69c-0.002,0-0.006-0.003-0.015-0.007h0.038
		c6.52-5.941,12.603-12.352,18.192-19.189h-36.715c-4.901-5.921-9.357-12.091-13.36-18.459h63.319
		c3.852-6.162,7.337-12.561,10.432-19.187h-84.203c-2.872-6.152-5.362-12.445-7.489-18.828h99.189
		c5.979-17.862,9.223-36.973,9.223-56.836c0-13.171-1.429-26.01-4.131-38.374h-109.543c1.359-6.363,3.071-12.648,5.113-18.825
		h99.228c-2.22-6.573-4.795-12.978-7.726-19.187h-83.876c3.025-6.463,6.454-12.752,10.282-18.823h63.271
		c-4.211-6.708-8.869-13.117-13.908-19.188h-35.278c5.456-6.419,11.459-12.464,17.979-18.101
		c-31.846-29.001-74.175-46.698-120.609-46.698C1060.598-1203.501,1060.214-1203.503,1059.828-1203.501z"/>
	<g id="g13802" transform="translate(-13.74405,15.9939)">
		<path id="path13804" fill="#000066" d="M1134.193-988.887l2.385-16.219c-1.304,0-3.22,0.563-4.916,0.563
			c-6.642,0-7.471-3.549-6.948-6.141l6.544-32.624h10.096l2.082-18.41h-9.516l1.938-11.155h-19.904
			c-0.421,0.421-11.263,62.74-11.263,70.332c0,11.236,6.308,16.233,15.203,16.154
			C1126.852-986.444,1132.28-988.372,1134.193-988.887z"/>
		<path id="path13806" fill="#000066" d="M1140.234-1019.807c0,26.963,17.794,33.368,32.959,33.368
			c13.996,0,21.337-3.243,21.337-3.243l3.36-18.405c0,0-11.825,4.809-21.439,4.809c-20.489,0-16.897-15.277-16.897-15.277
			l39.365,0.121c0,0,2.505-12.36,2.505-17.398c0-12.575-6.851-28.009-27.8-28.009
			C1154.44-1063.837,1140.234-1043.166,1140.234-1019.807z M1173.697-1046.756c10.768,0,8.781,12.103,8.781,13.083h-21.182
			C1161.297-1034.925,1163.297-1046.756,1173.697-1046.756z"/>
		<path id="path13808" fill="#000066" d="M1294.514-988.894l3.417-20.799c0,0-9.37,4.694-15.79,4.694
			c-13.535,0-18.967-10.335-18.967-21.439c0-22.525,11.646-34.918,24.609-34.918c9.725,0,17.525,5.459,17.525,5.459l3.113-20.21
			c0,0-9.212-6.652-19.123-6.691c-29.822-0.118-46.887,20.645-46.887,56.539c0,23.789,12.637,39.979,35.405,39.979
			C1284.256-986.28,1294.514-988.894,1294.514-988.894z"/>
		<path id="path13810" fill="#000066" d="M1029.25-1063.543c-13.082,0-23.109,4.205-23.109,4.205l-2.771,16.436
			c0,0,8.277-3.363,20.793-3.363c7.104,0,12.301,0.798,12.301,6.573c0,3.508-0.634,4.801-0.634,4.801s-5.607-0.468-8.202-0.468
			c-18.629,0-33.835,7.043-33.835,28.274c0,16.733,11.372,20.568,18.422,20.568c13.461,0,18.791-8.5,19.099-8.524l-0.154,7.055
			c0,0,16.798,0,16.799,0l7.496-52.544C1055.454-1062.828,1036.006-1063.543,1029.25-1063.543z M1032.159-1020.879
			c0.366,3.208-0.831,18.376-12.321,18.376c-5.925,0-7.463-4.531-7.463-7.204c0-5.226,2.838-11.493,16.814-11.493
			C1032.446-1021.199,1031.611-1020.966,1032.159-1020.879z"/>
		<path id="path13812" fill="#000066" d="M1073.309-986.904c4.298,0,28.864,1.094,28.864-24.257
			c0-23.705-22.742-19.02-22.742-28.545c0-4.738,3.71-6.229,10.486-6.229c2.688,0,13.037,0.854,13.037,0.854l2.406-16.847
			c0,0.002-6.698-1.498-17.604-1.498c-14.115,0-28.441,5.634-28.441,24.912c0,21.846,23.889,19.652,23.889,28.853
			c0,6.143-6.674,6.648-11.818,6.648c-8.9,0-16.915-3.056-16.942-2.907l-2.546,16.673
			C1052.361-989.105,1057.306-986.904,1073.309-986.904z"/>
		<path id="path13814" fill="#000066" d="M1451.892-1078.828l-3.448,25.704c0,0-7.186-9.92-18.427-9.92
			c-21.152,0-32.055,21.08-32.055,45.293c0,15.634,7.775,30.958,23.661,30.958c11.429,0,17.765-7.971,17.765-7.971l-0.839,6.806
			h18.561l14.576-90.73L1451.892-1078.828z M1443.698-1028.87c0,10.077-4.99,23.54-15.332,23.54
			c-6.867,0-10.089-5.765-10.089-14.812c0-14.795,6.645-24.552,15.033-24.552C1440.174-1044.694,1443.698-1039.981,1443.698-1028.87
			z"/>
		<path id="path13816" fill="#000066" d="M925.943-987.882l11.615-68.5l1.705,68.5h13.145l24.521-68.5l-10.862,68.5H985.6
			l15.04-90.852l-31.027-0.237l-18.457,55.625l-0.506-55.388h-28.435l-15.257,90.852H925.943L925.943-987.882z"/>
		<path id="path13818" fill="#000066" d="M1219.91-987.754c5.552-31.581,7.529-56.521,23.726-51.355
			c2.323-12.223,7.87-22.853,10.401-28.026c0,0-0.801-1.192-5.806-1.192c-8.547,0-19.954,17.341-19.954,17.341l1.704-10.721h-17.77
			l-11.899,73.953H1219.91L1219.91-987.754z"/>
		<g id="use14699" transform="translate(845.3001,0)">
			<path id="path13810_1_" fill="#000066" d="M489.176-1063.543c-13.088,0-23.115,4.205-23.115,4.205l-2.77,16.436
				c0,0,8.281-3.363,20.791-3.363c7.107,0,12.303,0.798,12.303,6.573c0,3.508-0.634,4.801-0.634,4.801s-5.603-0.468-8.2-0.468
				c-18.628,0-33.834,7.043-33.834,28.274c0,16.733,11.372,20.568,18.418,20.568c13.461,0,18.793-8.5,19.099-8.524l-0.158,7.055
				h16.806l7.492-52.544C515.375-1062.828,495.927-1063.543,489.176-1063.543z M492.08-1020.879
				c0.366,3.208-0.829,18.376-12.32,18.376c-5.929,0-7.466-4.531-7.466-7.204c0-5.226,2.836-11.493,16.816-11.493
				C492.368-1021.199,491.535-1020.966,492.08-1020.879z"/>
		</g>
		<path id="use14701" fill="#000066" d="M1380.012-987.754c3.05-23.234,8.694-55.85,23.727-51.355
			c2.325-12.223,0.083-12.19-4.92-12.19c-8.552,0-10.444,0.31-10.444,0.31l1.707-10.72h-17.768l-11.899,73.955H1380.012
			L1380.012-987.754z"/>
	</g>
	<path id="path4157" fill="#FFFFFF" d="M1125.422-978.68l2.389-16.217c-1.305,0-3.223,0.559-4.917,0.559
		c-6.64,0-7.373-3.531-6.95-6.143l5.365-33.091h10.094l2.436-17.939h-9.515l1.937-11.154h-19.08
		c-0.421,0.42-11.264,62.742-11.264,70.331c0,11.234,6.309,16.237,15.204,16.156C1118.086-976.24,1123.51-978.167,1125.422-978.68z"
		/>
	<path id="path4155" fill="#FFFFFF" d="M1131.467-1009.601c0,26.963,17.797,33.37,32.959,33.37c13.997,0,20.156-3.129,20.156-3.129
		l3.361-18.401c0,0-10.647,4.691-20.263,4.691c-20.485,0-16.899-15.275-16.899-15.275h38.773c0,0,2.504-12.364,2.504-17.402
		c0-12.571-6.256-27.889-27.204-27.889C1145.67-1053.633,1131.467-1032.962,1131.467-1009.601z M1164.926-1036.549
		c10.769,0,8.781,12.098,8.781,13.079h-21.182C1152.525-1024.72,1154.527-1036.549,1164.926-1036.549z"/>
	<path id="path4151" fill="#FFFFFF" d="M1285.747-978.688l3.413-20.801c0,0-9.362,4.695-15.786,4.695
		c-13.535,0-18.963-10.336-18.963-21.438c0-22.525,11.645-34.915,24.608-34.915c9.722,0,17.525,5.458,17.525,5.458l3.114-20.209
		c0,0-11.569-4.682-21.489-4.682c-22.024,0-43.454,19.108-43.454,54.995c0,23.795,11.57,39.513,34.34,39.513
		C1275.492-976.073,1285.747-978.688,1285.747-978.688z"/>
	<path id="path4149" fill="#FFFFFF" d="M1020.483-1053.34c-13.083,0-23.111,4.205-23.111,4.205l-2.769,16.438
		c0,0,8.276-3.365,20.791-3.365c7.104,0,12.303,0.8,12.303,6.572c0,3.508-0.639,4.804-0.639,4.804s-5.604-0.47-8.199-0.47
		c-16.501,0-33.836,7.043-33.836,28.274c0,16.729,11.373,20.568,18.422,20.568c13.459,0,19.263-8.736,19.572-8.761l-0.627,7.29
		h16.799l7.494-52.546C1046.683-1052.622,1027.238-1053.34,1020.483-1053.34z M1024.572-1010.557
		c0.363,3.209-2.013,18.255-13.502,18.255c-5.925,0-7.465-4.527-7.465-7.205c0-5.22,2.836-11.491,16.819-11.491
		C1023.675-1010.994,1024.023-1010.646,1024.572-1010.557z"/>
	<path id="path4145" fill="#FFFFFF" d="M1064.541-976.699c4.298,0,28.865,1.092,28.865-24.259c0-23.701-22.741-19.02-22.741-28.54
		c0-4.741,3.706-6.233,10.481-6.233c2.691,0,13.04,0.853,13.04,0.853l2.405-16.846c0,0.002-6.697-1.498-17.604-1.498
		c-14.113,0-28.44,5.634-28.44,24.913c0,21.844,23.89,19.652,23.89,28.853c0,6.143-6.676,6.643-11.818,6.643
		c-8.899,0-16.914-3.053-16.944-2.909l-2.544,16.677C1043.592-978.904,1048.535-976.699,1064.541-976.699z"/>
	<path id="path4139" fill="#FFFFFF" d="M1443.789-1068.457l-4.115,25.537c0,0-7.182-9.919-18.424-9.919
		c-17.483,0-32.055,21.078-32.055,45.296c0,15.634,7.773,30.951,23.662,30.951c11.429,0,17.764-7.969,17.764-7.969l-0.838,6.806
		h18.557l14.576-90.732L1443.789-1068.457z M1434.93-1018.665c0,10.078-4.989,23.538-15.334,23.538
		c-6.865,0-10.083-5.763-10.083-14.811c0-14.791,6.642-24.551,15.025-24.551C1431.405-1034.491,1434.93-1029.773,1434.93-1018.665z"
		/>
	<path id="path4133" fill="#FFFFFF" d="M917.176-977.677l11.615-68.5l1.704,68.5h13.146l24.522-68.5l-10.86,68.5h19.531
		l15.043-90.854h-30.206l-18.81,55.745l-0.98-55.745h-27.842l-15.259,90.854H917.176z"/>
	<path id="path4131" fill="#FFFFFF" d="M1211.141-977.551c5.554-31.583,6.583-57.229,19.835-52.532
		c2.32-12.224,4.559-16.954,7.092-22.126c0,0-1.188-0.249-3.68-0.249c-8.545,0-14.874,11.674-14.874,11.674l1.7-10.722h-17.764
		l-11.903,73.955H1211.141z"/>
	<g id="use8523" transform="translate(847.0062,0)">
		<path id="path4149_1_" fill="#FFFFFF" d="M482.765-1053.34c-13.083,0-23.113,4.205-23.113,4.205l-2.765,16.438
			c0,0,8.277-3.365,20.788-3.365c7.107,0,12.299,0.8,12.299,6.572c0,3.508-0.631,4.804-0.631,4.804s-5.605-0.47-8.202-0.47
			c-16.499,0-33.833,7.043-33.833,28.274c0,16.729,11.37,20.568,18.419,20.568c13.461,0,19.263-8.736,19.571-8.761l-0.627,7.29
			c0,0,16.797,0,16.803,0l7.491-52.546C508.969-1052.622,489.52-1053.34,482.765-1053.34z M486.859-1010.557
			c0.365,3.209-2.016,18.255-13.506,18.255c-5.927,0-7.464-4.527-7.464-7.205c0-5.22,2.839-11.491,16.817-11.491
			C485.96-1010.994,486.303-1010.646,486.859-1010.557z"/>
	</g>
	<g id="use8525" transform="translate(442.2857,0)">
		<path id="path4131_1_" fill="#FFFFFF" d="M929.041-977.551c5.556-31.583,6.587-57.229,19.835-52.532
			c2.323-12.224,4.564-16.954,7.095-22.126c0,0-1.188-0.249-3.68-0.249c-8.544,0-14.874,11.674-14.874,11.674l1.7-10.722h-17.766
			l-11.9,73.955H929.041z"/>
	</g>
</g>
<g>
	<path id="path2905" fill="#009CDC" d="M1978.19-886.637c36.736-33.285,59.818-81.396,59.818-134.907
		c0-53.498-23.082-101.595-59.818-134.894c-32.323-29.287-75.175-47.111-122.207-47.111c-100.506,0-182.019,81.486-182.019,182.004
		c0,100.531,81.513,182.031,182.019,182.031C1903.015-839.512,1945.867-857.349,1978.19-886.637"/>
	<path id="path2909" fill="#009CDC" d="M1978.19-886.637c36.736-33.285,59.818-81.396,59.818-134.907
		c0-53.498-23.082-101.595-59.818-134.894"/>
	<path id="path2913" fill="none" stroke="#009CDC" stroke-width="0.1" d="M1978.19-886.637
		c36.736-33.285,59.818-81.396,59.818-134.907c0-53.498-23.082-101.595-59.818-134.894"/>
	<path id="path2917" fill="#ED2233" d="M2100.356-1203.548c-47.019,0-89.882,17.824-122.166,47.111
		c-6.594,5.959-12.734,12.411-18.394,19.278h36.75c5.023,6.102,9.67,12.527,13.876,19.252h-64.503
		c-3.855,6.192-7.374,12.631-10.489,19.277h85.468c2.935,6.245,5.518,12.67,7.724,19.292h-100.902
		c-2.089,6.271-3.854,12.696-5.283,19.265h111.469c2.688,12.423,4.104,25.314,4.104,38.529c0,20.212-3.298,39.66-9.387,57.821
		h-100.902c2.221,6.607,4.791,13.046,7.711,19.278h85.468c-3.102,6.659-6.607,13.086-10.476,19.292h-64.503
		c4.205,6.724,8.854,13.149,13.877,19.251h36.75c-5.647,6.867-11.8,13.319-18.356,19.265
		c32.284,29.288,75.147,47.124,122.166,47.124c100.525,0,182.009-81.499,182.009-182.03
		C2282.365-1122.062,2200.882-1203.548,2100.356-1203.548"/>
	<path id="path2925" fill="#003873" d="M1827.579-970.888h-22.874l13.449-70.946l-31,70.946h-19.136l-3.765-70.556l-14.994,70.556
		h-20.81l17.564-92.288h35.972l0.402,57.12l24.926-57.12h38.115L1827.579-970.888"/>
	<path id="path2929" fill="#003873" d="M2080.69-971.823c-6.205,1.701-11.047,2.441-16.279,2.441
		c-11.592,0-17.914-5.815-17.914-16.487c0-2.102,0.222-4.362,0.676-6.724l1.363-7.348l1.064-5.946l10.501-57.289h22.535
		l-3.271,17.227h11.553l-3.103,18.253h-11.604l-5.972,31.312c-0.259,1.362-0.389,2.389-0.389,3.089c0,3.881,2.336,5.569,7.723,5.569
		c2.583,0,4.582-0.233,6.114-0.714L2080.69-971.823"/>
	<path id="path2933" fill="#003873" d="M1990.756-1022.231c0,9.476,5.335,16.007,17.447,20.901
		c9.282,3.777,10.723,4.881,10.723,8.309c0,4.673-4.089,6.775-13.151,6.775c-6.853,0-13.2-0.946-20.535-2.985l-3.168,17.318
		l1.039,0.155l4.192,0.78c1.337,0.247,3.337,0.453,5.985,0.649c5.452,0.428,9.658,0.636,12.631,0.636
		c24.183,0,35.36-7.945,35.36-25.042c0-10.295-4.661-16.345-16.162-20.888c-9.605-3.816-10.709-4.647-10.709-8.153
		c0-4.037,3.804-6.114,11.216-6.114c4.491,0,10.632,0.416,16.459,1.116l3.271-17.369c-5.932-0.818-14.941-1.48-20.172-1.48
		C1999.557-1047.623,1990.678-1036.083,1990.756-1022.231"/>
	<path id="path2937" fill="#003873" d="M1885.594-1004.329c-2.375-0.259-3.414-0.324-5.062-0.324
		c-12.838,0-19.343,3.855-19.343,11.424c0,4.673,3.168,7.659,8.127,7.659C1878.558-985.571,1885.205-993.243,1885.594-1004.329z
		 M1900.886-970.888h-18.836l0.454-7.776c-5.751,6.141-13.384,9.049-23.782,9.049c-12.256,0-20.693-8.348-20.693-20.486
		c0-18.278,14.644-28.936,39.789-28.936c2.596,0,5.855,0.208,9.242,0.583c0.702-2.466,0.883-3.543,0.883-4.881
		c0-4.972-3.945-6.815-14.525-6.815c-6.465,0-13.773,0.792-18.824,2.09l-3.141,0.779l-2.025,0.494l3.128-16.876
		c11.308-2.882,18.759-3.986,27.132-3.986c19.46,0,29.768,7.622,29.768,22.018c0,3.7-0.363,6.529-1.856,14.877
		C1905.664-997.696,1902.444-984.181,1900.886-970.888"/>
	<path id="path2941" fill="#003873" d="M1964.353-1017.168c0.129-1.571,0.181-2.869,0.181-3.843c0-6.076-3.959-9.685-10.709-9.685
		c-7.218,0-12.357,4.816-14.448,13.462L1964.353-1017.168z M1975.347-972.524c-7.763,2.063-15.267,3.063-23.21,3.051
		c-25.326-0.014-38.516-11.554-38.516-33.61c0-25.782,16.785-44.736,39.58-44.736c18.653,0,30.558,10.62,30.558,27.275
		c0,5.531-0.817,10.918-2.778,18.512h-45.031c-0.182,1.169-0.233,1.688-0.233,2.376c0,8.71,6.711,13.124,19.874,13.124
		c8.087,0,15.408-1.467,23.521-4.751L1975.347-972.524"/>
	<path id="path2945" fill="#003873" d="M2194.132-1013.898c0-7.84-3.18-15.253-12.474-15.253c-11.555,0-18.72,13.644-18.72,25.717
		c0,10.179,4.906,17.006,13.007,16.85c4.908,0,15.37-6.671,17.447-18.356C2193.872-1007.653,2194.132-1010.664,2194.132-1013.898z
		 M2217.135-1004.927c-3.374,24.964-20.81,36.05-43.992,36.05c-25.626,0-35.985-15.564-35.985-34.596
		c0-26.612,17.526-44.631,44.604-44.631c23.495,0,35.983,14.838,35.983,33.869
		C2217.745-1009.613,2217.731-1009.288,2217.135-1004.927"/>
	<path id="path2953" fill="#FFFFFF" d="M1833.252-976.198h-22.653l13.476-70.946l-31.014,70.946h-20.654l-3.777-70.556
		l-13.515,70.556h-20.55l17.564-92.288h35.35l1.869,57.132l24.938-57.132h36.83L1833.252-976.198"/>
	<path id="path2957" fill="#FFFFFF" d="M2086.414-977.132c-6.191,1.712-11.046,2.44-16.264,2.44
		c-11.606,0-17.929-5.816-17.929-16.486c0-2.117,0.234-4.35,0.662-6.738l1.376-7.336l1.079-5.945l10.487-57.302h22.535
		l-3.271,17.253h11.566l-3.104,18.226h-11.632l-5.957,31.312c-0.26,1.388-0.377,2.415-0.377,3.102c0,3.882,2.324,5.583,7.725,5.583
		c2.569,0,4.582-0.248,6.101-0.728L2086.414-977.132"/>
	<path id="path2961" fill="#003873" d="M2144.635-1029.709l-0.532-2.389l4.531-11.748c-1.065-0.117-1.506-0.13-1.728-0.208
		c-1.207-0.26-1.844-0.402-1.947-0.415c-0.688-0.13-1.441-0.195-2.284-0.195c-7.438,0-12.799,3.297-19.719,12.177l2.375-13.346
		h-23.47l-13.954,74.944h22.51c3.103-17.213,4.465-27.015,6.295-35.116c3.012-13.527,13.072-19.654,20.251-18.291
		c0.792,0.156,1.493,0.181,2.532,0.584l1.375,0.519L2144.635-1029.709"/>
	<path id="path2965" fill="#FFFFFF" d="M2152.58-1050.635c-1.909-0.74-2.337-0.74-2.57-0.818c-1.208-0.26-1.832-0.416-1.947-0.429
		c-0.688-0.129-1.441-0.208-2.285-0.208c-7.438,0-12.8,3.323-19.719,12.203l2-11.359h-20.523l-13.812,75.048h22.665
		c8.113-45.904,11.593-53.953,22.471-53.953c0.805,0,1.752,0.065,2.869,0.182l2.635,0.558L2152.58-1050.635"/>
	<path id="path2969" fill="#FFFFFF" d="M1996.612-1027.54c0,9.477,5.347,16.02,17.472,20.914c9.269,3.764,10.695,4.881,10.695,8.295
		c0,4.661-4.089,6.763-13.148,6.763c-6.841,0-13.202-0.921-20.538-2.959l-3.141,17.304l1.014,0.169l4.205,0.779
		c1.337,0.234,3.349,0.429,5.985,0.637c5.438,0.428,9.657,0.636,12.63,0.636c24.183,0,35.348-7.905,35.348-25.042
		c0-10.307-4.66-16.343-16.136-20.9c-9.619-3.791-10.722-4.635-10.722-8.127c0-4.051,3.803-6.127,11.215-6.127
		c4.492,0,10.645,0.428,16.474,1.116l3.258-17.37c-5.933-0.804-14.928-1.467-20.16-1.467
		C2005.412-1052.92,1996.547-1041.392,1996.612-1027.54"/>
	<path id="path2973" fill="#FFFFFF" d="M1890.371-1009.639c-2.375-0.246-3.426-0.311-5.062-0.311
		c-12.838,0-19.343,3.842-19.343,11.41c0,4.674,3.168,7.672,8.127,7.672C1883.322-990.867,1889.996-998.552,1890.371-1009.639z
		 M1906.91-976.198h-18.836l0.428-7.79c-5.725,6.153-13.357,9.087-23.756,9.087c-12.281,0-20.693-8.36-20.693-20.511
		c0-18.266,14.644-28.924,39.789-28.924c2.57,0,5.855,0.195,9.243,0.584c0.688-2.479,0.87-3.557,0.87-4.894
		c0-4.972-3.934-6.828-14.527-6.828c-6.451,0-13.786,0.805-18.823,2.089l-3.128,0.806l-2.025,0.493l3.128-16.89
		c11.308-2.869,18.759-3.973,27.132-3.973c19.46,0,29.755,7.621,29.755,22.004c0,3.712-0.351,6.53-1.844,14.877
		C1911.778-1002.953,1908.403-989.517,1906.91-976.198"/>
	<path id="path2977" fill="#FFFFFF" d="M1969.155-1022.478c0.13-1.571,0.182-2.856,0.182-3.829c0-6.102-3.972-9.685-10.709-9.685
		c-7.191,0-12.371,4.816-14.461,13.462L1969.155-1022.478z M1981.228-977.834c-7.789,2.051-15.292,3.063-23.236,3.063
		c-25.313-0.039-38.515-11.553-38.515-33.623c0-25.782,16.797-44.748,39.604-44.748c18.629,0,30.545,10.632,30.545,27.288
		c0,5.517-0.805,10.917-2.791,18.524h-45.032c-0.182,1.156-0.233,1.688-0.233,2.376c0,8.685,6.737,13.125,19.888,13.125
		c8.101,0,15.408-1.48,23.534-4.751L1981.228-977.834"/>
	<path id="path2981" fill="#FFFFFF" d="M2199.675-1019.83c0-7.854-3.193-15.266-12.487-15.266c-11.554,0-18.731,13.67-18.731,25.717
		c0,10.178,4.932,17.031,13.033,16.876c4.893,0,15.369-6.699,17.445-18.382C2199.416-1013.598,2199.675-1016.611,2199.675-1019.83z
		 M2223.003-1010.237c-3.4,24.964-20.822,36.052-44.007,36.052c-25.638,0-35.984-15.566-35.984-34.61
		c0-26.6,17.526-44.605,44.604-44.605c23.496,0,35.972,14.825,35.972,33.856C2223.587-1014.909,2223.587-1014.611,2223.003-1010.237
		"/>
</g>
</svg>
