<?xml version="1.0" encoding="utf-8"?>
<!-- Generator: Adobe Illustrator 15.1.0, SVG Export Plug-In . SVG Version: 6.00 Build 0)  -->
<!DOCTYPE svg PUBLIC "-//W3C//DTD SVG 1.1//EN" "http://www.w3.org/Graphics/SVG/1.1/DTD/svg11.dtd">
<svg version="1.1" id="Layer_1" xmlns="http://www.w3.org/2000/svg" xmlns:xlink="http://www.w3.org/1999/xlink" x="0px" y="0px"
	 width="1318.239px" height="176.773px" viewBox="0 0 1318.239 176.773" enable-background="new 0 0 1318.239 176.773"
	 xml:space="preserve">
<g opacity="0.02">
	<path fill="none" d="M279.239,118.891c0-11.732-8.865-18.511-20.858-18.511H222.14v37.283h36.241
		C270.374,137.664,279.239,130.885,279.239,118.891z"/>
	<path fill="none" d="M868.224,41.977H823.9l-6.258,52.406c-2.347,19.555-9.125,33.373-19.033,43.28h69.614V41.977z"/>
	<path fill="none" d="M691.19,89.951c0-28.419-18.512-50.32-47.191-50.32c-28.941,0-47.453,21.901-47.453,50.32
		c0,28.159,18.511,50.32,47.453,50.32C672.679,140.271,691.19,118.11,691.19,89.951z"/>
	<rect x="992.851" y="106.898" fill="none" width="72.222" height="69.875"/>
	<path fill="none" d="M107.159,123.324c0-8.604-6.257-15.644-17.208-15.644H44.845v31.287h45.105
		C100.641,138.967,107.159,132.71,107.159,123.324z"/>
	<path fill="none" d="M1272.612,89.951c0-28.419-18.512-50.32-47.191-50.32c-28.94,0-47.452,21.901-47.452,50.32
		c0,28.159,18.512,50.32,47.452,50.32C1254.101,140.271,1272.612,118.11,1272.612,89.951z"/>
	<path fill="none" d="M103.77,55.014c0-8.343-6.258-14.34-15.383-14.34H44.845v28.94h43.542
		C97.512,69.614,103.77,63.618,103.77,55.014z"/>
	<path d="M152.786,129.582c0-21.901-14.601-39.631-33.112-42.499c16.426-3.649,29.723-18.25,29.723-39.891
		c0-21.901-16.426-44.324-50.842-44.324H0v173.905h101.684C135.839,176.773,152.786,154.872,152.786,129.582z M44.845,40.673h43.542
		c9.125,0,15.383,5.997,15.383,14.34c0,8.604-6.258,14.6-15.383,14.6H44.845V40.673z M44.845,138.967V107.68h45.105
		c10.951,0,17.208,7.04,17.208,15.644c0,9.387-6.518,15.644-17.208,15.644H44.845z"/>
	<path d="M324.866,118.891c0-31.287-21.379-57.62-60.488-57.62H222.14V2.868h-44.845v173.905h87.083
		C303.486,176.773,324.866,150.44,324.866,118.891z M222.14,137.664V100.38h36.241c11.994,0,20.858,6.778,20.858,18.511
		c0,11.994-8.865,18.772-20.858,18.772H222.14z"/>
	<rect x="337.642" y="2.868" width="44.845" height="173.905"/>
	<polygon points="458.621,41.977 541.271,41.977 541.271,2.868 413.775,2.868 413.775,176.773 458.621,176.773 	"/>
	<path d="M736.817,89.951C736.817,37.023,697.187,0,643.999,0c-53.189,0-93.08,37.023-93.08,89.951
		c0,43.899,27.443,76.855,67.155,86.822h51.83C709.553,166.806,736.817,133.85,736.817,89.951z M596.546,89.951
		c0-28.419,18.511-50.32,47.453-50.32c28.68,0,47.191,21.901,47.191,50.32c0,28.159-18.512,50.32-47.191,50.32
		C615.058,140.271,596.546,118.11,596.546,89.951z"/>
	<path d="M883.606,176.773h45.105v-39.109h-15.644V2.868H783.487l-10.429,88.125c-4.954,39.631-14.861,46.67-31.548,49.277v36.502
		h44.845H883.606z M817.643,94.383l6.258-52.406h44.323v95.687h-69.614C808.518,127.756,815.296,113.938,817.643,94.383z"/>
	<polygon points="992.851,106.898 1065.072,106.898 1065.072,176.773 1109.917,176.773 1109.917,2.868 1065.072,2.868 
		1065.072,67.789 992.851,67.789 992.851,2.868 948.006,2.868 948.006,176.773 992.851,176.773 	"/>
	<path d="M1318.239,89.951c0-52.927-39.63-89.951-92.818-89.951s-93.079,37.023-93.079,89.951c0,43.899,27.443,76.855,67.154,86.822
		h51.829C1290.976,166.806,1318.239,133.85,1318.239,89.951z M1177.969,89.951c0-28.419,18.512-50.32,47.452-50.32
		c28.68,0,47.191,21.901,47.191,50.32c0,28.159-18.512,50.32-47.191,50.32C1196.48,140.271,1177.969,118.11,1177.969,89.951z"/>
</g>
</svg>
