<?xml version="1.0" encoding="utf-8"?>
<!-- Generator: Adobe Illustrator 15.1.0, SVG Export Plug-In . SVG Version: 6.00 Build 0)  -->
<!DOCTYPE svg PUBLIC "-//W3C//DTD SVG 1.1//EN" "http://www.w3.org/Graphics/SVG/1.1/DTD/svg11.dtd">
<svg version="1.1" id="Layer_1" xmlns="http://www.w3.org/2000/svg" xmlns:xlink="http://www.w3.org/1999/xlink" x="0px" y="0px" viewBox="0 0 32 32" enable-background="new 0 0 32 32" xml:space="preserve">
<path fill="#ffffff" d="M8.441,2.235c1.505-0.217,3.562-0.358,4.351,0.315c1.303,1.117,1.303,8.182-1.303,8.182
	c-1.312,0-2.172-1.162-3.476-0.047C6.732,11.784,6.71,13.752,6.71,15.94c0,2.187,0.021,4.156,1.303,5.254
	c1.302,1.114,2.164-0.049,3.476-0.049c2.606,0,2.606,7.066,1.303,8.184c-0.789,0.675-2.846,0.532-4.351,0.314
	c-1.004-0.168-2.088-0.589-3.471-1.94l0,0C3.079,25.677,1.533,22.61,1.5,16.048h0c0-0.036,0-0.071,0-0.108c0-0.036,0-0.071,0-0.108
	h0C1.533,9.269,3.079,6.204,4.97,4.176l0,0C6.353,2.825,7.436,2.403,8.441,2.235z"/>
</svg>
