<?xml version="1.0" encoding="utf-8"?>
<svg version="1.1" id="Layer_1" xmlns="http://www.w3.org/2000/svg" xmlns:xlink="http://www.w3.org/1999/xlink" x="0px" y="0px"
	 width="333px" height="333px" viewBox="0 0 333 333" enable-background="new 0 0 333 333" xml:space="preserve">
<g>
	<rect y="171" width="9" height="18"/>
	<path d="M18,63h9h9h9h9h9V0h-9h-9h-9h-9h-9H9H0v63h9H18z M9,9h9h9h9h9h9v45h-9h-9h-9h-9H9V9z"/>
	<rect x="9" y="162" width="9" height="9"/>
	<rect x="9" y="189" width="9" height="9"/>
	<polygon points="18,225 18,207 9,207 9,198 0,198 0,243 9,243 9,225 	"/>
	<polygon points="27,108 27,90 18,90 18,81 27,81 36,81 36,72 27,72 18,72 9,72 0,72 0,90 9,90 9,126 18,126 18,108 	"/>
	<polygon points="27,180 27,189 36,189 36,162 45,162 45,153 54,153 63,153 63,144 54,144 45,144 36,144 27,144 27,171 18,171 
		18,180 	"/>
	<rect x="18" y="198" width="9" height="9"/>
	<polygon points="27,234 18,234 18,243 9,243 9,252 0,252 0,261 9,261 18,261 27,261 36,261 36,252 27,252 	"/>
	<polygon points="36,45 45,45 45,18 36,18 27,18 18,18 18,45 27,45 	"/>
	<polygon points="36,135 36,108 27,108 27,126 18,126 18,135 9,135 0,135 0,144 9,144 18,144 27,144 27,135 	"/>
	<polygon points="27,216 27,225 36,225 45,225 45,216 36,216 	"/>
	<polygon points="27,288 18,288 18,315 27,315 36,315 45,315 45,288 36,288 	"/>
	<polygon points="36,243 36,252 45,252 45,261 54,261 63,261 63,252 54,252 54,243 45,243 	"/>
	<rect x="45" y="81" width="9" height="9"/>
	<polygon points="54,108 54,99 45,99 45,90 36,90 36,108 45,108 	"/>
	<rect x="45" y="117" width="9" height="9"/>
	<rect x="45" y="225" width="9" height="9"/>
	<path d="M45,270h-9h-9h-9H9H0v63h9h9h9h9h9h9h9v-63h-9H45z M54,324h-9h-9h-9h-9H9v-45h9h9h9h9h9V324z"/>
	<rect x="54" y="72" width="9" height="9"/>
	<rect x="54" y="90" width="9" height="9"/>
	<polygon points="54,108 54,117 63,117 72,117 72,126 63,126 54,126 54,135 63,135 72,135 72,153 81,153 81,144 90,144 90,126 
		81,126 81,117 90,117 99,117 99,108 90,108 90,99 81,99 81,90 72,90 72,99 63,99 63,108 	"/>
	<rect x="54" y="216" width="9" height="9"/>
	<polygon points="63,234 54,234 54,243 63,243 72,243 72,225 63,225 	"/>
	<rect x="72" width="9" height="9"/>
	<rect x="72" y="54" width="9" height="9"/>
	<rect x="72" y="72" width="9" height="9"/>
	<polygon points="81,252 72,252 72,270 81,270 90,270 90,261 81,261 	"/>
	<polygon points="99,162 99,153 90,153 81,153 81,162 72,162 72,153 63,153 63,162 54,162 45,162 45,171 54,171 63,171 72,171 
		81,171 90,171 90,162 	"/>
	<rect x="90" y="279" width="9" height="9"/>
	<polygon points="108,18 117,18 117,27 126,27 126,0 117,0 108,0 108,9 99,9 99,0 90,0 90,9 81,9 81,18 72,18 72,45 81,45 81,36 
		90,36 99,36 99,18 	"/>
	<polygon points="108,144 108,126 117,126 117,108 108,108 108,117 99,117 99,144 	"/>
	<polygon points="108,180 108,171 99,171 90,171 90,180 99,180 	"/>
	<polygon points="99,252 99,234 90,234 90,225 99,225 99,234 108,234 108,216 117,216 126,216 126,225 135,225 135,216 144,216 
		144,225 153,225 153,198 144,198 144,207 135,207 135,198 126,198 126,207 117,207 108,207 99,207 99,198 90,198 81,198 81,189 
		90,189 90,180 81,180 72,180 63,180 54,180 45,180 45,216 54,216 54,207 63,207 63,198 54,198 54,189 63,189 63,198 72,198 72,207 
		81,207 81,216 72,216 72,225 81,225 81,243 90,243 90,261 99,261 108,261 108,252 	"/>
	<rect x="108" y="144" width="9" height="9"/>
	<rect x="108" y="234" width="9" height="18"/>
	<polygon points="117,270 126,270 126,261 117,261 108,261 108,270 99,270 99,279 108,279 108,288 99,288 99,297 108,297 108,306 
		99,306 90,306 81,306 81,297 72,297 72,333 81,333 90,333 90,324 81,324 81,315 90,315 99,315 108,315 117,315 126,315 126,288 
		117,288 	"/>
	<rect x="108" y="324" width="9" height="9"/>
	<polygon points="126,99 135,99 135,90 144,90 144,81 153,81 153,72 144,72 144,63 135,63 135,36 144,36 144,27 135,27 126,27 
		126,45 117,45 117,54 126,54 126,72 135,72 135,81 126,81 117,81 117,54 108,54 108,72 99,72 99,54 108,54 108,45 117,45 117,27 
		108,27 108,36 99,36 99,45 90,45 90,90 99,90 99,81 108,81 108,90 99,90 99,99 108,99 117,99 117,108 126,108 	"/>
	<rect x="117" y="153" width="9" height="18"/>
	<rect x="126" y="108" width="9" height="9"/>
	<rect x="126" y="126" width="9" height="9"/>
	<rect x="126" y="324" width="9" height="9"/>
	<polygon points="135,99 135,108 144,108 144,117 153,117 153,90 144,90 144,99 	"/>
	<rect x="135" y="117" width="9" height="9"/>
	<rect x="135" y="225" width="9" height="9"/>
	<polygon points="144,18 153,18 153,0 144,0 135,0 135,9 144,9 	"/>
	<polygon points="153,63 153,54 162,54 162,63 153,63 153,72 162,72 162,81 171,81 180,81 180,72 171,72 171,54 180,54 180,63 
		189,63 189,18 180,18 171,18 171,9 162,9 162,27 171,27 171,45 162,45 153,45 153,36 144,36 144,63 	"/>
	<rect x="153" y="126" width="9" height="9"/>
	<polygon points="153,189 153,198 162,198 171,198 171,189 162,189 	"/>
	<rect x="153" y="225" width="9" height="9"/>
	<polygon points="162,261 171,261 171,270 180,270 180,279 189,279 198,279 198,261 207,261 207,252 216,252 225,252 225,243 
		216,243 207,243 198,243 189,243 180,243 180,252 171,252 162,252 153,252 144,252 135,252 135,270 126,270 126,288 135,288 
		135,297 144,297 144,279 153,279 153,261 	"/>
	<rect x="153" y="279" width="9" height="9"/>
	<polygon points="153,324 153,315 144,315 135,315 135,324 144,324 144,333 153,333 162,333 171,333 171,324 162,324 	"/>
	<rect x="171" y="99" width="9" height="9"/>
	<polygon points="171,288 162,288 162,297 171,297 180,297 180,288 	"/>
	<polygon points="189,99 198,99 198,117 207,117 216,117 216,90 207,90 207,81 198,81 198,72 189,72 189,81 180,81 180,99 	"/>
	<rect x="180" y="108" width="9" height="9"/>
	<polygon points="180,126 171,126 171,135 180,135 189,135 189,126 	"/>
	<polygon points="180,180 171,180 171,189 180,189 180,198 189,198 198,198 207,198 207,189 198,189 198,180 189,180 	"/>
	<polygon points="189,234 189,216 180,216 171,216 171,243 180,243 180,234 	"/>
	<polygon points="198,9 207,9 207,18 216,18 216,0 207,0 198,0 189,0 180,0 180,9 189,9 189,18 198,18 	"/>
	<rect x="189" y="117" width="9" height="9"/>
	<rect x="198" y="18" width="9" height="18"/>
	<rect x="198" y="45" width="9" height="27"/>
	<polygon points="207,126 198,126 198,135 189,135 189,153 180,153 180,144 171,144 171,153 162,153 153,153 153,144 144,144 
		135,144 135,180 126,180 117,180 117,189 126,189 135,189 144,189 144,171 153,171 153,180 162,180 162,171 171,171 171,162 
		180,162 189,162 189,171 198,171 198,180 207,180 207,153 216,153 216,135 207,135 	"/>
	<polygon points="198,207 198,225 207,225 207,234 216,234 225,234 225,216 234,216 234,225 243,225 243,207 234,207 225,207 
		225,198 216,198 207,198 207,207 	"/>
	<polygon points="198,324 189,324 189,315 198,315 198,306 189,306 189,297 180,297 180,315 171,315 171,324 180,324 180,333 
		189,333 198,333 207,333 207,315 198,315 	"/>
	<polygon points="225,45 225,54 234,54 234,63 243,63 243,45 234,45 234,27 243,27 243,18 234,18 225,18 216,18 216,45 	"/>
	<rect x="216" y="54" width="9" height="9"/>
	<rect x="216" y="126" width="9" height="9"/>
	<polygon points="225,99 225,108 234,108 234,117 225,117 225,126 234,126 234,135 243,135 243,117 252,117 252,126 261,126 
		261,135 270,135 270,144 279,144 279,153 288,153 297,153 297,144 288,144 288,126 297,126 306,126 306,117 297,117 288,117 
		279,117 279,126 270,126 270,117 279,117 279,108 270,108 261,108 252,108 243,108 243,90 234,90 234,99 	"/>
	<polygon points="225,315 216,315 216,324 225,324 234,324 234,333 243,333 243,315 234,315 	"/>
	<polygon points="252,36 252,45 261,45 261,18 252,18 252,27 243,27 243,36 	"/>
	<rect x="243" y="243" width="9" height="9"/>
	<polygon points="261,9 261,0 252,0 243,0 243,9 252,9 	"/>
	<rect x="252" y="54" width="9" height="9"/>
	<polygon points="252,225 252,234 261,234 270,234 270,225 261,225 	"/>
	<polygon points="270,171 279,171 279,162 270,162 261,162 261,171 	"/>
	<rect x="270" y="270" width="9" height="9"/>
	<rect x="279" y="180" width="9" height="9"/>
	<rect x="288" y="162" width="9" height="9"/>
	<polygon points="297,18 288,18 288,45 297,45 306,45 315,45 315,18 306,18 	"/>
	<rect x="297" y="171" width="9" height="9"/>
	<path d="M297,207h-9v-9h-9h-9v-9h-9v-18h-9v9h-9v-9h9v-9h9v-18h-9h-9v9h-9h-9h-9v18h9v-9h9v18h-9h-9v9h9h9h9v9h9v18h9v-9h9v18h9h9
		v9h-9h-9v9h9h9v9h-9h-9h-9h-9v18h-9h-9h-9h-9v9h9h9v9h-9h-9h-9h-9v9h9v18h9v-9h9v-9h9h9v-9h9v9h9v9h-9h-9v9h9v9h9v9h9h9h9h9h9v-9h9
		v-18h9h9v-36h-9h-9v18h-9v9h-9v-18h9v-9h9v-9h-9h-9v-45h9h9v27h9v-18h9v-9h-9v-9h-9h-9v-18h-9V207z M288,315h-9v9h-9v-18h9h9V315z
		 M288,288h-9h-9h-9v-27h9h9h9V288z M306,306v9h-9v-9H306z"/>
	<polygon points="315,72 306,72 297,72 288,72 288,81 297,81 297,90 306,90 306,99 297,99 297,90 288,90 288,81 279,81 270,81 
		270,72 261,72 261,81 252,81 252,72 243,72 234,72 225,72 216,72 207,72 207,81 216,81 225,81 225,90 234,90 234,81 243,81 243,90 
		252,90 261,90 270,90 279,90 279,108 288,108 297,108 306,108 315,108 315,99 324,99 324,81 315,81 	"/>
	<polygon points="306,171 315,171 324,171 324,180 333,180 333,162 324,162 315,162 315,153 306,153 	"/>
	<polygon points="306,180 306,189 315,189 324,189 324,180 315,180 	"/>
	<polygon points="315,153 324,153 333,153 333,135 324,135 324,108 315,108 	"/>
	<rect x="315" y="252" width="9" height="9"/>
	<polygon points="324,333 333,333 333,324 324,324 315,324 315,333 	"/>
	<path d="M324,0h-9h-9h-9h-9h-9h-9v63h9h9h9h9h9h9h9V0H324z M324,54h-9h-9h-9h-9h-9V9h9h9h9h9h9V54z"/>
	<rect x="324" y="72" width="9" height="9"/>
	<rect x="324" y="99" width="9" height="9"/>
	<rect x="324" y="189" width="9" height="9"/>
</g>
</svg>
