<?xml version="1.0" encoding="utf-8"?>
<!DOCTYPE svg PUBLIC "-//W3C//DTD SVG 1.1//EN" "http://www.w3.org/Graphics/SVG/1.1/DTD/svg11.dtd">
<svg version="1.1" id="Layer_1" xmlns="http://www.w3.org/2000/svg" xmlns:xlink="http://www.w3.org/1999/xlink" x="0px" y="0px"
	 width="1062.757px" height="400px" viewBox="0 0 1062.757 400" enable-background="new 0 0 1062.757 400" xml:space="preserve">
<g>
	<path fill-rule="evenodd" clip-rule="evenodd" fill="#646363" d="M354.973,307.734v90.595h-61.405V181.788H402.57
		c26.361,0,35.775,25.523,35.775,39.958c0,14.437,0,45.191,0,45.191c0,11.926-9.414,19.457-16.318,20.712
		c16.946,3.139,17.573,14.438,17.573,26.362v83.479h-62.137v-75.318c0-13.183-6.277-15.064-16.319-15.064L354.973,307.734
		L354.973,307.734z M354.973,219.025v51.678c0,0,3.033,0.628,9.31,0c6.275-0.628,13.18-11.298,12.553-26.361
		c-0.628-15.063-3.767-25.316-10.043-25.316C360.516,219.025,354.973,219.025,354.973,219.025L354.973,219.025z"/>
	<polygon fill-rule="evenodd" clip-rule="evenodd" fill="#646363" points="666.288,181.788 666.288,271.331 643.589,271.331 
		643.589,181.788 582.185,181.788 582.185,398.329 643.589,398.329 643.589,307.734 666.288,307.734 666.288,398.329 
		727.693,398.329 727.693,181.788 666.288,181.788 	"/>
	<path fill-rule="evenodd" clip-rule="evenodd" fill="#646363" d="M776.023,181.788h119.256v216.542h-61.405v-90.595h-22.701v90.595
		h-61.406V219.236C749.767,207.938,752.941,181.788,776.023,181.788L776.023,181.788z M811.173,236.811v34.521h22.701v-50.84
		C833.874,220.491,811.173,213.588,811.173,236.811L811.173,236.811z"/>
	<polygon fill-rule="evenodd" clip-rule="evenodd" fill="#646363" points="562.622,361.713 522.345,361.713 522.345,307.734 
		562.622,307.734 562.622,271.331 522.345,271.331 522.345,218.192 562.622,218.192 562.622,181.788 460.94,181.788 460.94,398.329 
		522.345,398.329 522.345,398.116 562.622,398.116 562.622,361.713 	"/>
	<path fill-rule="evenodd" clip-rule="evenodd" fill="#E6007E" d="M54.809,211.494c73.632,65.625,171.714,10.786,170.735-65.874
		C175.144,187.513,120.414,211.264,54.809,211.494L54.809,211.494z"/>
	<path fill-rule="evenodd" clip-rule="evenodd" fill="#AFCA0B" d="M76.846,22.606c-94.247,29.078-98.037,141.384-31.92,180.196
		C35.133,137.999,43.114,78.875,76.846,22.606L76.846,22.606z"/>
	<path fill-rule="evenodd" clip-rule="evenodd" fill="#C6C6C6" d="M234.402,127.381C254.444,30.809,157.926-26.736,92.014,12.419
		C153.492,35.136,201.414,70.671,234.402,127.381L234.402,127.381z"/>
	<path fill-rule="evenodd" clip-rule="evenodd" fill="#646363" d="M1001.351,181.788V346.65c0,0,1.256,17.573-11.297,17.573
		c-12.554,0-11.299-17.573-11.299-17.573V181.788h-61.404v168.001c0,45.819,21.235,50.211,72.703,50.211
		c51.469,0,72.703-3.138,72.703-50.211V181.788H1001.351z"/>
</g>
</svg>
