<?xml version="1.0" encoding="utf-8"?>
<!DOCTYPE svg PUBLIC "-//W3C//DTD SVG 1.1//EN" "http://www.w3.org/Graphics/SVG/1.1/DTD/svg11.dtd">
<svg version="1.1" id="Layer_1" xmlns="http://www.w3.org/2000/svg" xmlns:xlink="http://www.w3.org/1999/xlink" x="0px" y="0px" viewBox="0 0 52.759 35.641" enable-background="new 0 0 52.759 35.641" xml:space="preserve">
<path fill="#fff" d="M42.61,4.685c0.867-1.335,2.29-2.348,3.382-2.57c-0.144-0.036-0.411,0.008-0.583-0.021
	c0.185-0.56,0.432-0.662,0.979-1.271c0.017-0.019,0.104,0.862,0.084,0.977c0.436,0.028,0.567,0.136,0.877,0.115
	c-0.132,0.713-0.953,1.747-1.723,1.757c0.077,0.062,0.018,0.211-0.075,0.254c0.8,0.253,1.155,0.785,0.52,1.605
	c0.243-0.029,0.293-0.008,0.184,0.208c2.266-2.153,1.392,1.654,2.444,3.577c-0.618,0.656-0.65,0.524-0.61,1.614
	c-0.082,0.012-0.322-0.324-0.376-0.209c-0.056,0.86,0.055,1.929,1.053,2.495c-0.133,0.086,0.081-0.484,0.075-0.475
	c1.294,0.78,1.485,2.054,2.196,3.311c-0.16,0.746,0.235,1.446,0.505,2.459c-4.153-2.173-3.6-4.808-5.231-8.309
	c-0.322,1.031,0.333,1.158,0.161,2.51c-0.298-0.095-0.315-0.161-0.723-0.683c-0.457,0.822-0.509,2.95,0.588,3.009
	c-0.201,0.519-0.374,1.031-0.73,1.47c-0.075,0.077,0.019-0.57,0.038-0.457c-2.549,1.688-2.109,4.498-2.537,7.88
	c0.274-0.087,0.337-0.215,0.587-0.374c0.068,0.089,0.273,0.543,0.361,0.558c0.155-0.062,0.002-0.412,0.062-0.565
	c0.147,0.212,0.148,0.203,0.198,0.513c0.136-0.906,0.885-1.376,1.383-0.741c1.763,0.951,3.505,9.624,1.162,9.195
	c-0.137,0.396,0.047,0.286-0.241,0.133c-0.02,0.374-0.253,0.873-0.271,0.996c-0.328-2.001,0.295-3.27-0.554-5.276
	c-0.798,1.674-1.079,1.031-2.092,0.948c-1.549-0.126-1.813-1.436-3.041-1.64c-2.244-0.375-1.655,1.225-1.805,1.896
	c-0.541,2.421-0.306,1.491-2.196,2.498c-1.872,0.998-1.255,1.352-3.499,1.061c-0.6-0.078-1.277,0.179-1.864,0.135
	c-0.614-0.046-0.996-0.825-1.831-0.58c-0.74,0.217,0.494,1.421-0.379,1.727c-0.81,0.283-1.342-0.588-1.965-0.464
	c-0.854,0.171-2.175,1.419-2.907,0.582c-1.123,0.034-1.871-1.392-3.027-1.152c-0.281-1.151-0.894-2.419-0.977-3.199
	c-0.514,0.28-1.134,0.275-1.549,0.458c-0.036-0.351,0.206-0.227,0.249-0.492c-1.206-0.229-0.522-1.097-1.857-1.566
	c-0.716-0.251-2.242,0.084-3.231-0.218c0.092,0.47-0.035,0.338,0.18,0.782c-1.532,0.03-0.264,1.325-1.383,1.503
	c-0.458,0.073-1.726-1.26-2.458-1.234c-0.076-1.526-1.396-2.332-2.394-1.205c-0.125-0.23-0.249-0.333-0.356-0.655
	c-1.704,0.795-0.525,2.042-1.145,2.829c-0.034,0.197,0.195,0.327,0.191,0.457c-1.504-0.146-1.168,0.441-1.792,1.21
	c-1.518,1.87-0.021,2.096-1.356,0.183c-1.395-1.998-3.163-4.366-1.259-5.513c0.31,0.046,0.439,0.24,0.812,0.266
	c-0.123-0.251-0.167-0.209-0.398-0.436c0.65,0.022,0.231-0.228,0.937,0.17c1.782-1.23-1.646-6.139,0.423-5.921
	c0.148-0.839,1.061-6.827,2.757-4.309c-0.158-0.511,0.03-0.761-0.18-1.177c3.105,0.919,3.812-5.459,6.095-3.975
	c-0.012,0.11,0.002,0.218,0.043,0.321c-0.081,0.202,0.798,1.88,0.488,2.715c-0.835,2.252-2.014-0.389-2.062-1.386
	c-0.03,1.232-1.189,2.164-0.442,3.313c0.053-0.336,0.366-0.836,0.442-1.072c0.091,0.612,0.356,0.755,0.565,1.171
	c0.444-0.938,1.037-0.993,1.356-0.022c0.56-0.62,0.953-1.137,1.068-1.918c0.376,0.453,0.402,0.527,0.39,1.166
	c-1.523,0.781,1.31,0.394,2.045,0.352c-0.103,0.333-0.011,0.178-0.271,0.465c0.595,0.021,0.907,0.351,1.545,0.242
	c0.019,0.288,0.016,0.355,0.086,0.651c0.509-1.667,1.572-0.459,2.12,1.044c0.019-0.186,0.556-4.868,1.884-3.533
	c0.75,0.754-0.756,5.027-2.03,4.709c1.381,2.375,2.033-3.308,2.8,0.143c0.037-1.723-1.967-2.522-0.082-4.619
	c-0.25,1.14-0.201,1.114,0.445,1.753c-0.165-0.258-0.375-0.571-0.48-0.881c0.477-0.348,0.952-0.256,1.536,0.359
	c-0.687-1.152-0.222-1.94,1.156-1.859c-0.498-0.938,0.893-1.514,1.8-2.078c-0.072,0.093-0.098,0.196-0.079,0.308
	c0.324-0.083,0.346-0.298,0.716-0.26c-0.013-0.081-0.263-0.223-0.223-0.305c0.147-0.261,0.575-0.706,0.793-1.298
	c0.08,0.108,0.177,0.139,0.292,0.094c-0.002,0.184-0.213,0.373-0.2,0.501c0.497,0.087,0.52-0.026,0.713,0.408
	c0.641-0.555,0.979-0.331,1.061,0.247c0.381,0.994-0.461,1.933-0.878,2.981c0.356-0.562,0.605-0.759,0.76-1.263
	c0.41,0.158,0.432-0.065,0.669-0.174c0.063,0.027,0.248,0.396,0.303,0.452c0.808-0.979,1.949,0.312,1.897-1.527
	c1.59-0.094,0.97,0.94,2.593,1.468c-0.104-0.327-0.137-0.746-0.225-1.064c0.761-0.048,0.562-0.341,1.343-0.396
	c0-0.597-0.1-0.031,0.247-0.568c-0.476-0.272-0.382-0.278-0.562-0.361c0.165-0.832,0.194-0.812,1.091-1.375
	c-0.023,0.068-0.235,0.348-0.18,0.474c0.388-0.342,0.355-0.183,0.38,0.208c0.083-0.554,0.09-0.896,0.621-1.224
	c0.075,0.617,0.242,0.092,0.541,0.438c0.208,0.238,3.309-2.795,3.407-3.925C43.419,6.912,41.546,5.885,42.61,4.685L42.61,4.685z"/>
</svg>
