<?xml version="1.0" encoding="utf-8"?>
<!DOCTYPE svg PUBLIC "-//W3C//DTD SVG 1.1//EN" "http://www.w3.org/Graphics/SVG/1.1/DTD/svg11.dtd">
<svg version="1.1" id="Layer_1" xmlns="http://www.w3.org/2000/svg" xmlns:xlink="http://www.w3.org/1999/xlink" x="0px" y="0px"
	 width="1037.982px" height="704.137px" viewBox="0 0 1037.982 704.137" enable-background="new 0 0 1037.982 704.137"
	 xml:space="preserve">
<path id="russia" fill="#f7f7f7" d="M854.6,79.479l1.339-5.616l5.189-5.797l5.757-6.605l2.689-3.034l5.079-2.539l3.643-2.418
	l3.42-3.919l3.537-3.952l4.226-1.999l3.073-5.072l5.761-1.923l3.07-3.683l3.734-1.959l2.413-1.535l2.69,3.109l3.917-1.38l3.535,3
	l2.303-2.616l4.068-2.536V26.7l-4.068,0.918l-4.842-0.341l-3.074-1l1.038-3.495l3.229-2.54l-2.735-0.768v-1.763l1.886,0.224
	l0.383-3.531l1.656-2.73l2.459-2.725l4.068-1.769h1.161l3.067-4.84c0,0,2.844-0.998,3.879-2.151c1.034-1.153,0,3.305,0,3.305
	l2.266,2.15l1.658,1.921l-1.885,4.528c0,0,2.535,0,3.613-1.186c1.001-1.191,0,2.342,0,2.342v4.072l-3.924,2.92l3.033,0.574
	l1.892-2.11l3.982,1.766V18.4l3.159,3.611l2.225,3.882l1.879-0.578l1.848-2.724v2.53l1.191,3.113h-3.613v1.536l2.96,0.998
	l-1.569,5.076l-3.93,0.384l-3.523,4.488l-1.885,4.651l-3.614,1.385l-2.533-1.154h-3.229l-2.884,4.839l1.314,2.917v4.996l-2.85,3.226
	l-2.224-1.998l-2.229,1.998h-3.229l-1.799-1.77l-1.729-1.144l-0.271,1.839l1.266,1.46l-1.459,0.771l-1.074,1.153l2.96,0.574v2.647
	l2.309,2.611l3.792-1.154h2.539l0.074,3.691l1.582-1.729l2.646,3.037l2.807,3.187l1.342,5.647l0.697,4.491l-2.697,5.076h-2.578
	l-3.568,1.725l-1.228,3.148l2.923-1.382h1.873l-2.724,3.684l1.695,1.962l2.223-0.962v-3.688l2.042-1.763l3.642-0.076l2.109-2.457
	l1.084-1.925l2.536,0.155l1.993-0.379l3.805-0.197v2.73h3.036l0.842-1.844h3.04l1.729-2.077l2.189-0.383l1.919,1.771l2.724-2.348
	l1.269,3.419l2.456,2.839v4.076l-3.415,1.536l-2.269,5.452h-3.528l-1.004,1.772l3.998,2.997l-1.305,1.499l2.917,5.026l1.19,6.261
	v7.029l1.045,5.419l1.68,4.686l0.851,6.261l1.723,6.029l3.19,3.309v5.644l1.694,7.802l2.914,3.685l1.849,2.152l-2.883,2.957
	l-3.034-1.769l-4.306,1.579l-2.189,5.799l-3.567,5.88l1.913,2.109l-1.346,5.455v2.917l2.888,5.072v3.151l-3.231-1.769l-2.379-2.724
	l-2.109,0.193l1.879,5.684v3.688l3.144,1.647l-3.144,3.614h-1.999v5.028l-1.882,2.154l2.578,4.838l2.03,2.385l2.383,2.687
	l3.194,3.731l0.69,5.45l0.534,4.299l4.652,2.803l2.8,3.23h4.763l-1.229-3.304v-1.692l1.611-1.805l1.152-2.956l4.459,5.072
	l0.804,4.529l4.458,3.453l4.343,1.158l1.726-1.995h2.877l3.311,3.759l-1.379,3.769l-3.384,1.111l0.997,4.683l3.535,6.8l3.19,0.887
	l2.454,2.807l5.803-0.772l3.384,3.152l1.188,3.496l-1.999,1.572l-2.921,2.151l-1.723,4.264l1.186,7.801l3.458,6.036l2.96,1.262
	l1.452,1.652l4.913,1.344v2.376l-3.752,0.58v3.496l-1.352,3.494l1.735,7.027l2.841,1.386l4.458,5.031l3.218,3.531l0.7,6.266
	l1.683,8.144l0.851,5.261v3.878l-1.879-2.922h-4.883l-3.19-1.844l-2.493-2.842h-3.344l-3.107-3.496l-5.921-3.109l-5.605-2.728
	l-6.492-3.881l-1.879-2.917l-3.08-2.381l-3.383-0.769l-7.294-2.537l-4.759-2.914l-4.658-3.495l-2.189-4.69l-4.913-5.648
	l-3.417-4.072v-4.07l-2.42-2.767l-0.424-4.454l-2.954-4.686l-3.153-0.807v-1.651l1.418-1.69l1.269-2.842l-1.608-3.226l1.541-1.767
	l1.222-1.461l-1.692-5.876l-0.844-6.186l-2.036-7.222l-3.224-4.916l-1.346-6.378l-1.614-6.064l-1.689-4.884l-1.993-7.18
	l-2.038-1.962l-0.16-3.876l1.198-4.69v-2.763v-3.307l-2.079-2.305l-2.149-4.873h-2.263l-2.116-0.883l-1.922-2.229l-2.456-3.535
	l-3.538-2.533v-4.461l3.228-3.528l-1.068-1.27l-2.693,3.039l-3.73,2.303v4.151l-0.998,3.108l2.045,2.116l2.914,3.415l2.837,3.229
	h3.461l-0.381,2.538l-1.535-0.232l-1.615,2.647l2.148,2.464v6.214l1.687,4.691l0.313,7.373l-1.154,4.495l-1.379-3.879l-3.073-1.768
	v4.875l-2.54-2.873l-1.683-2.002l-1.385-3.342l-4.769-5.033l1.348,4.267l-1.348,4.721h-4.569v3.075l-1.495,6.456l-1.929,2.532
	l0.196,8.564l2.997,2.344l-0.458,5.455l3.108,5.456v5.837l0.851,7.68l2.837,3.229v3.496l2.38,2.727l2.235-0.382l1.913-2.034
	l1.465-1.653h2.533l-0.16,3.688l-2.684,0.998v5.225l-5.112,0.995l1.154,6.84l-0.494,2.921l-3.23,1.534v4.075l-1.194,3.688
	c0,0-3.951,1.073-3.264,0.228c0.851-0.881-1.533-1.766-1.533-1.766v-2.538l0.694-2.538l2.804-1.033l-1.194-1.497l-3.108,1.381
	l-3.229,0.576v1.767l-4.803,2.574l-2.346,3.267l-2.724,0.77l-2.223,2.535l-0.854,2.918l0.854,3.724l1.919,2.149l-2.27,2.691
	l-3.568-1.537l1.151,4.188l-2.692,3.033l-2.377,2.532h-2.002l-2.079,2.157l1.354,2.496l1.028,1.186l-2.88,2.154h-3.875l-3.884,4.377
	l-2.421,2.847l-2.763,5.218l-2.88,3.305l-2.924,6.648l-0.454,6.409l2.72,6.266l-2.572,2.878l-0.882,6.263l1.538,4.491l2.421,2.727
	l-2.036,3.885v5.26v7.033l-1.041,4.835v6.645l1.731,2.114v4.686v5.301l-1.539,6.609v5.451l-2.575,4.879v4.886l-1.336,4.259
	l1.532,3.953h2.61l1.919-2.301h2.846l2.227-2.532l2.46-2.844l1.729,1.993l1.959,1.154v2.537l1.649,3.382l2.075,2.381l1.766-2.074
	v-3.151l-2.376-1.154v-2.919l1.879-2.305v1.923l2.069,1.77l1.004-0.389l0.995,1.153v3.532v2.54l3.384-1.577v-1.963l1.919-2.918
	l1.154-1.151l1.92,1.537l0.383-3.228l-1.611-1.843l-1.536-3.305l-1.842-3.916l3.073-1.924l1.843-2.151l3.685-0.96h4.539l3.604,0.502
	l1.612,1.842c0,0,3.921-0.765,4.769-0.765c0.845,0,3.221-1.155,3.221-1.155l2.118,2.417l-1.574,1.807l-1.234,1.385l-1.035,2.149
	h2.961h3.066l0.62,2.538l2.571,2.92l3.113-0.505l1.612,1.884l1.731,3.691l0.498,7.412l2.229,7.798l3.491,5.726l4.342,4.952
	l1.694,1.999l0.839,3.264l3.381,3.92l2.423,4.647l0.805,2.764l3.15,5.533l2.687,2.994v8.223l-0.995,6.987l1.84,6.994l-0.148,7.224
	l1.84,5.685l1.309,6.229l1.107,5.64l0.968,7.605v7.414l-0.968,3.881v7.604v9.378l-1.107,6.984l1.107,7.223l-0.344,9.332v4.461
	l-3.454,6.449l-2.149,5.456l-2.606,5.455h-2.235l-4.223,1.957l-3.541,2.347l-2.492-1.154v-2.65l-1.268-1.458l-1.266,3.301v3.611
	l-1.456-1.649l-2.235-2.539v1.925l-0.688,4.918l0.688,3.299l-0.958,3.802l-1.385,1.653v1.922v3.114l-3.224-0.195l-1.385-1.537
	l1.154-4.496l2.069-4.648v-3.919l-1.803-4.572l-3.65-4.182l-1.873-2.153l-1.545-4.492l-3.19-3.728l-3.107-1.15l-0.073-3.766
	l2.106-2.461l1.922-2.149v-3.842l2.343-2.764l2.771-1.575l2.803,1.078l2.463-2.807l1.529-3.534l-2.764-4.875l1.385-4.071
	l-1.695-4.267l-0.35-4.496l-2.337-3.725l0.653-3.071l-1.885-3.729l-0.848-4.305l-3.414-4.071l2.579-2.95v-4.271l-2.155-2.414
	l-2.46-2.847l-0.614-2.534h-2.923l-4.065,2.534l-1.078,3.922l-2.724,5.067l-3.04,4.456l1.385,4.876l-3.607,3.306l-3.534,2.343
	l-3.073,1.155l-0.846,3.532h-3.27l-3.261-2.15l-2.312-0.964v-4.496l-2.763-2.726l-2.184-2.532l-3.688-1.074l-1.962,2.227
	l-3.918-1.152l-3.228-0.964l-4.919,0.771h-4.612l-1.879,2.15l-5.109,2.111l-5.067-1.111l-2.115-4.842l-2.493-2.8
	c0,0-2.883-1.927-2.883-2.73c0-0.765-3.265-3.688-3.265-3.688l-4.068-0.765l-1.695-4.689l-3.917-3.533l-2.685-3.079l-3.771-1.184
	l-1.344-4.108l-3.418-1.773l-2.036-2.301l-6.801-0.768h-3.574l-4.071,2.536l-5.146-0.998l-3.882,1.53h-4.299l-5.761,4.921
	l-2.689,3.108l-5.373,3.614l-2.62,2.997l-1.839,6.453l-1.385,3.875l1.846,2.77l2.612-2.459l2.149,2.459l2.38,2.688l1.386,6.22
	l-1.386,3.342l-1.071,8.377v5.266l-1.803,5.451l2.527,5.605l1.542,1.807v5.418l-3.575,1.227l-2.306,6.111l-3.335,3.798l-5.576,2.309
	l-6.341-0.538l-4.568-0.998l-3.375,2.304l-4.763,3.146l-3.54-2.149l-3.305-1.345l-4.221,2.152l-3.578,4.036l-2.53,2.955
	l-1.498,5.728l-2.92,3.45l-3.955,3.076l-5.423,2.959l-4.143,4.764l-2.155,2.419h-5.454l-4.916,1.768h-6.991l-5.106,0.771
	l-4.609-1.732l-1.341-2.92l-2.386-2.729h-6.459l-5.91-0.997l-2.46-1.768l-7.796,1.307h-4.876l-3.955,4.534l-4.418,1.187
	l-4.309,1.386l-6.142-0.616l-4.151-2.032l-2.613-3l-2.456-5.951l-3.153-3.651l-4.373-1.919h-4.268l-4.88,1.457l-3.298-3.759h-6.65
	l-3.921-3.345l-1.957,2.271l-2.646,2.993l-2.11,4.951l-2.309,2.648l-0.694,5.076l2.152,2.919v4.378l2.961,3.381v4.689l-3.999,3.07
	l-3.798,4.339h-3.271h-4.913l-4.575-1.342l-4.759,0.96l-3.421-1.155l-4.913-1.956l-2.77-3.112l-3.188-3.726l-3.921-1.347
	l-4.606,2.149l-2.88-3.304l-3.651-1.879l-2.997,3.42h-3.761l-1.194,4.108h-4.376l-5.69,4.071l-3.377,3.919h-3.341l-0.69,4.068
	l-4.035,1.075l-2.806,3.231l-5.067-0.195l-4.268,2.729l-2.187,2.538l-4.956-1.003l-1.575-2.917l-1.842-3.917l-0.998-3.997
	l-2.576,3.07l-4.418,1.922l-4.069-1.536l-4.609-1.379v-4.689l-3.607-2.536l-1.308-3.491l-2.88-2.114l-0.731-4.688l-2.382-2.532
	l-3.188-1.613l-2.033-2.383h-4.385l-2.106,2.419l-4.265,0.811l-1.688-1.965l-3.688,0.773l-2.156-2.345l-1.839-2.151v-2.917
	l-1.844-2.538l-2.727,0.996l-1.884,4.459l-3.765,0.77l-2.229-5.033l-1.15-4.495l-0.846-5.069l-2.883-5.84v-4.68l-2.724-2.927v-6.412
	l-2.039-7.799l-2.914-3.304l-1.885-2.151l-1.921-4.766l-2.149-2.458l-2.842-1.346v-3.532h2.303l2.112-3.105l-0.882-2.771h-3.036
	l-2.573,2.956l-3.608,0.196l-2.613,0.151l-2.806,3.189l-4.723,1.572l-4.07,2.536l-1.923-3.152l-3.605,1.96h-2.847l0.996-5.26
	l4.11-2.153v-2.685h-3.419l-3.069-2.153l-1.846,2.153l-3.377-1.193l1.112-4.571l-2.498-2.842l-3.376,2.342l-3.769-1.188
	l-0.922-3.385l2.072-2.456v-3.689l0.891-2.684l-1.388-4.924l-2.53-1.339h-3.037l-1.538-3.497h-4.305l-3.377-2.383l-3.763-0.346
	l-1.994,3.305h-4.266l-3.73,1.15l-3.068-1.959l-3.768,0.809h-4.605l-4.419-2.647h-1.769l-1.959,2.268l-3.419,0.727l-3.192-1.92
	h-2.92l-3.915-1.386l-5.762,0.231l-4.301-0.996l-3.033,0.996l-2.73-2.764l-3.879-2.302h-3.606l-1.195,4.301l1.195,2.916
	l-2.383,2.727l1.955,1.342l1.77,2.155l2.338,2.613l-2.11,2.46h-2.378l-2.923-3.308l-4.45,0.158l-2.846,1.382l1.152,4.836
	l-1.152,3.535l-2.92,0.999l-3.381-0.999l-1.381,4.073l1.114,2.839l2.38,2.771l1.652,1.804l0.613,3.301l2.418,2.731l-2.418,3.722
	l-2.148,2.537h-3.765l-3.841,0.272l-1.999-2.232l-1.309-3.146h-1.766l-1.842,2.07h-2.92l-3.378-3.766l-0.58-2.227l-2.532-2.878
	v-4.96l-2.116-2.418h-3.917l-3.221,1.344l-1.238-2.919l-3.224-2.919l-2.88-1.768l-3.921,2.15l-3.531,0.616l-2.92-0.999l-2.034-4.458
	l-2.883-2.95l-2.033,3.873h-2.231v-3.068l2.039-2.385l-1.345-3.306l-1.692-5.069l-0.731-5.263l-2.536-3.496l-4.108-1.728
	l-1.156-3.345l-2.225-2.532l-4.073,0.764h-2.378v-3.683l-1.191-3.88l-4.187-0.881l-2.074,2.456l-3.994,1.539l-3.382-2.119h-3.533
	l-1.727,2.885h-3.576h-3.879l-0.885,2.146l-2.151,2.541l-0.379,3.685l-4.154-0.843l-2.455-2.842v-3.878l1.073-3.808l-1.766-2.069
	h-2.917l-1.191,3.147l-2.232,1.805h-3.261l-2.65,3.034l-2.233,2.532v3.535l-2.877,1.345l-3.077-0.19l-2.225,2.535l-2.693,2.15
	l1.156,3.807l2.383,2.839l-1.038,5.032l-2.152,2.533l2.152,1.535l3.261,3.537l2.079,2.304l-0.884,5.07l0.961,6.648v5.418
	l-1.802,1.998l-1.773-2.15l-2.495-0.389l0.384,3.535l1.42,3.379l2.111,2.458l-1.728,1.925l-2.84,0.38h-2.418h-1.846h-1.499
	c0,0-2.116,0.311-3.728,0.311c-1.615,0-1.268-1.462-1.268-1.462l-2.497-0.77l-1.229-1.388l-3.073-0.569v2.727l-2.377,1.151
	l-2.883,3.92h-3.266l-3.531,1.151l-2.077-0.617l-1.765,2.002v3.186l1.808,2.037l0.992,3.728l-0.843,3.722l-0.729,3.42l-1.962,2.197
	v1.375l-1.727,1.771l-3.763,6.987v5.456l1.001,6.606l-0.657,5.074l0.344,6.255l-4.068,2.157l-2.767-1.388l-3.915,1.579l-3.691-1
	l-0.536-3.689l-1.846-6.45l-0.342-4.649l-2.77-2.153v-2.492l-1.345-4.111l-2.338-3.496l1.494-2.919l1.041-3.34l-2.535-3.117
	l-0.846-3.491l-2.88-0.391l-0.614-2.069l-2.155-2.421l-3.725-0.617l-2.345-2.687l-0.693-6.223l-2.415-2.535l0.651-3.918l-2.88-2.727
	l-1.499-4.499l-2.533-1.339l-3.765-2.958l-1.158-4.651l-2.533-4.491l-0.92-3.919l-1.884-0.345l-1.342-1.96l-1.73-2.729l-2.188,0.386
	l-1.385-4.647l0.614-8.99l-0.766-6.645l-1.384-3.265l-1.65-2.918l0.382-5.881l-2.112-2.107L0,550.794l0.997-3.498L0.23,543.38
	l1.845-2.115l2.033-0.382l2.804,3.881l2.459,0.957l1.228-2.919l2.923-1.341l3.838-0.196h2.076l2.572,0.96l0.458-4.876l-1.342-2.915
	l0.691-2.54l2.036,0.384l1.882,1.538l2.074,2.15l1.458-1.733l2.384,1.157l3.918,0.576l2.917,1.383l0.691-3.533l-2.073-1.688
	l-2.843-0.812l-1.919-2.114l-2.034-0.806l2.57-3.107l3.684-1.999l3.272,1.575l2.917-1.343l2.73,3.299l4.071,5.072l3.725-4.303
	l2.57-1.732l-0.691-4.259l2.386-2.764l2.376,0.379l-0.188-3.07l6.338-1.001l1.148-3.302l1.383-1.961l-2.88-1.536v-4.108l-2.762-3.53
	l-1.042-4.463l-2.533-1.764l-2.689-3.456l1.001-4.151l-1.001-6.065l-3.226-2.688l-3.763-3.308l-1.154-4.491l-2.573-2.344
	l-0.843-2.688l2.185-2.919l1.729-4.304v-4.073l-1.882-3.92l-1.845-3.304l1.652-1.534l1.041-2.921h2.033l1.542-1.609l1.188-5.227
	l0.347-3.15l-1.383-3.876l-1.885-2.154l-2.535-0.425l-1.919-2.305l-1.499-2.53l-2.265,2.227l-1.804-2.003l-1.578-2.916l1.578-3.149
	l3.262-3.688l2.225-2.918l0.85-3.534l2.533-0.195l1.843,2.348l1.041,2.921l3.414,1.379l3.228-1.189l0.844-3.883l1.001-4.302
	l-2.533-2.916l1.688-1.383l-0.157-3.301l1.001-4.688l1.842-5.027l1.425-4.271l3.341-1.188l1.225-2.96l3.231-3.068v-6.687
	l-2.882-3.072l-3.264-0.999l1.076-2.922l0.844-3.149l-2.381-2.691l-1.574-3.91l0.497-2.694l3.228-3.722l1.917-3.881l-0.88-3.531
	l2.764-0.774l4.032-2.877v-4.108l1.73-2.345l4.187-0.194l1.922-2.532l0.227-2.959l3.538-1.537l2.917-4.494l3.841,0.23l3.458-2.381
	l4.567,1.187l0.652-2.954l1.579-1.689l2.84,1.537l2.422,2.915l3.768,1.385l1.342,3.494l1.342,3.881l2.08-2.302l-0.385-5.688
	l-3.037-3.074v-6.68l2.725-0.768l0.844-1.002l-3.758-1.686l-2.154-2.964l38.065-0.19l7.187-2.921v-5.028l1.151-12.864h4.763
	l4.111-3.729v-5.029l2.994-1.385v-6.604l2.73-0.235l5.992-5.453l2.916,1.537l6.301-13.405l0.384-3.606l5.186-5.958h8.718l2.69-5.452
	V216.84l5.457-3.11l7.105-4.071l4.993,2.112h2.843l2.417,2.764l2.926-2.34l-0.734,4.068l2.883-0.422l4.069,0.228v3.117l0.887,3.491
	l-1.888-1.379l-1.956-2.189l-1.769,2.036l0.811,3.687v3.726l2.914,1.727l2.229,2.536v4.107l2.466,1.387v4.534l2.761,3.224
	l1.422,5.415v5.685l-0.885,4.918l1.037,2.689l0.12,5.952l2.916,3.383l-0.154,4.3l-0.655,7.03l-3.034,5.92l-4.494,5.18h-4.723
	l-5.26,1.15l-4.65-1.955l-4.991-3.231l-3.192-3.571v-5.26l-3.149-3.687l-1.578-4.108l-1.185-3.878l-2.192-4.306l-1.228-7.226
	l-2.383-1.146l0.771-4.38l1.915-2.229l-2.302-2.763l-1.151,3.455l-1.612,1.844l0.691,4.3l0.077,4.92l-1.842,2.149l2.455,2.839
	l-0.689,4.304l-2.343,6.034l-4.189,1.461l-3.34,3.763l-1.268,6.95l-3.153,3.614l1.044,4.069l1.498,5.069l-2.461,4.996l3.458,3.956
	l3.76,4.299l4.231-3.494l0.878-4.878l-2.183-2.568l0.303-4.27v-3.304l2.879-3.493h2.959l0.964,8.756l0.958,5.761l2.997,3.382
	l1.845,4.493l4.836,1.647l1.501-1.647l-1.233-3.263l2.922-2.767l0.114-6.835l5.301,0.997l4.954-2.151l4.07,2.536l4.612-1.655h3.112
	l1.999,2.196l2.837,5.108l-2.341,2.721v4.309l2.112-3.04l2.995-3.419l4.038-0.919l3.456-5.685v-4.877l1.341-3.341l4.46-2.535v-3.074
	l4.222-2.923v-4.912l-0.694-4.65h2.921l0.886,2.418l3.879,4.383l2.842,5.07v6.836l-1.037,3.456l-1.498,1.77l-2.533-2.845l-3.574-1
	l-5.414,2.074v5.074l1.342,4.759v3.842l3.881,1.187l3.765,1.962l4.261-2.377v-3.503l4.418-1.11l4.227,2.305l-0.654-3.15l6.646,1.386
	l3.531-0.775l6.493,1.006h3.728l1.847,3.843h1.686v-3.503l5.493-1.956h2.842l1.231,5.069h-3.19l-1.075,3.498l-2.537,1l3.918,4.11
	h2.727l5.114-2.536l4.833,1.075l5.231,5.996l1.802-2h3.648l4.457-1.692l1.764,2.075l-0.462,2.728l-2.761,2.152v3.266l3.223,3.147
	l0.312-3.61l1.423-1.653l3.416,0.961v-3.071l3.226-0.616l0.69-4.688l-0.537-5.645l3.07-1.73l2.615-0.928l3.152,3.617l1.382-1.54
	l3.498,4.921l3.955,4.606l3.301,3.686l2.109,4.998l3.957,4.569l2.731,4.877l2.88,4.497v3.879l2.343,4.305l3.458-2.35v-4.032
	l3.918-4.141l-2.724-1.003l-1.848-5.069l0.654-5.457l-3.226-2.496l-1.767-4.186l1.535-1.842l3.458-1.999v-3.072l0.805-4.69
	l1.539-2.341v-2.878l-2.15-0.808l1.188-3.918l1.846-2.726l3.414-1.346l3.654-2.038l1.265-1.497l2.92-3.304l2.226-5.607l1.691-4.721
	l1.845-4.61l3.223-1.998l2.072,3.299h3.998l2.076,2.305h3.608l1.501,6.646l-1.688,1.96l-0.728,7.144l-4.879,5.532l-1.351,5.069
	l2.883,2.918l-1.033,6.608l-0.846,5.303l-3.381,5.796l-1.151,8.415l-1.925,7.373l-1.382,3.69l1.306,5.225l2.992,3.374l-0.531,3.114
	l-3.768,3.344l-0.688,7.183l-3.692,1.189l-4.451,5.068l-2.538,4.224l-2.382,1.62l-4.262-1.007l-2.577,1.999l-2.767-2.067
	l-1.765-2.08l-2.573-0.953v3.683l2.573,4.491l2.536,1.387l3.378,2.686l2.883-0.151l2.036,3.304h3.074c0,0,1.267-2.614,0.619-3.419
	c-0.694-0.809,1.764-2.079,1.764-2.079h2.261l0.963-1.146l4.265-1.349l3.42-2.189v-4.073l1.532-1.725l2.61-3.038l2.076-2.42
	l1.078-4.681l-0.845-4.073l-0.344-3.727l2.337-2.648l2.311-2.614h3.53l3.921-0.577l1.071,3.801l1.615,1.848l2.076,6.068
	l-2.767,3.115l0.157,4.644v2.918l3.458,3.924l3.912,0.96v-2.729l-3.841-1.31l-1.458-1.612v-2.347l-0.304-3.527l2.65-0.92
	l1.078-2.577l-1.078-3.688l1.269-3.108l-1.726-3.882l-2.192-2.384l-1.384-1.534l-4.152-1.651l-2.376-2.725l-1.999,2.224
	l-2.537,1.382l-1.381-2.149h-3.034l-0.503-3.688l2.077-2.38l-0.616-6.223l2.461-4.303l1.499-5.073l3.416-3.838l-1.231-4.303
	l-0.995-3.721l0.463-3.998l-2.463-2.802l2.689-3.149l4.263-4.841h3.574l1.996-3.69l1.385-4.147l-1.152-3.301l1.152-2.842h2.767
	l-0.888,4.075v5.605l-0.725,5.069l-2.997,3.53v4.843v3.537l3.529,3.071l2.075,1.994l2.616-1.879l2.61,3.031l2.917,3.116v-2.346
	l-1.068-2.997l-2.005-2.306l-3.071-1.685v-1.58l-2.533-2.878l-1.194-4.304l3.574-2.765l1.732,1.958l2.724,3.11l2.075-2.147
	l-0.694-2.538l-0.307-2.226l1.999-2.229l3.378,0.77l2.767-0.462l2.306,2.615l4.456,2.727l-1.152,3.882l1.075,1.267l2.96,3.414h4.649
	l0.608-3.069l-1.839-2.92l0.19-2.765l-3.264-1.384l-2.383-4.492l-1.382-1.5l1.075-4.723l1.535-3.881l-1.381-1.537l-0.845-4.915
	l3.381-3.458h8.063l4.001,1.726v-1.191h6.675l4.342-2.15h3.304l1.649-1.919l-1.649-2.922l-2.073-0.807l-1.692-1.919
	c0,0,0.691-0.806,1.959-2.269c1.231-1.458,1.231,1.463,1.231,1.463l2.109-0.576l-1.342-1.731l0.921-2.452l-1.498-1.657l1.735-2.727
	l2.34-2.151l-2.34-0.153l-0.196-2.959l4.799,0.195l1.846-4.456l4.723-2.074l1.731-2.002l6.408-1.112l1.658-1.845l4.603-1.574
	l0.965-1.382l-3.034-1.157l1.689-1.917l4.416-1.147l3.731-0.618l0.924-2.148l2.994-0.577l-1.612,3.496v2.839l2.07-2.459l5.302,0.194
	l0.497-3.072l3.418-0.808l3.424,0.808l-1.541-2.344l-2.033-1.765l-1.001-2.151h3.765l3.845-1.384h1.229l-0.347-3.301l-1.419-1.155
	v-4.681l0.915-3.08l2.582-7.219l3.027-2.534l2.689-3.307l3.461,2.307l2.533-0.384l0.845,3.995l-2.727,3.032l-2.229,3.265
	l5.416,0.387l1.041-1.23h3.344l2.457,2.802l-2.189,2.537c0,0-0.19,2.499,0.882,2.499c1.001,0,3.69,1.379,3.69,1.379l0.848-3.304
	l-1.505-1.764l3.729-2.307h3.42l3.415-2.842l2.002,2.27l2.609-1.502l1.993,2.267l1.698,3.878l2.069,1.925l1.192-1.54l1.728,2.038
	l2.304,2.648l-0.344,4.112l-3.379-0.808l1.346,1.58l3.457,2.148l2.15,4.189l-2.003,2.223v3.92l-1.688,2.725l-1.648,3.804
	l-1.922,2.229l-3.455,4.683v1.919l-0.965,5.458l-2.612,2.919l-0.995,6.073l-4.074,1.15l-1.266,4.378l-2.804,3.226l-0.691,5.071
	l-0.847,3.499l3.073-1.578l-0.693-3.878l3.036-2.157c0,0,2.73-0.956,4.266-0.956c1.532,0,1.996-3.535,1.996-3.535l2.917-2.691
	l2.767-1.19l1.575-3.611l-1.228-1.421l-2.116-0.23l0.233-1.537l-0.233-3.146l2.616-0.195h1.959l2.96,0.805l3.415,1.54l0.653-2.345
	l2.149-3.38l1.772,2.039v3.917l2.072,3.309h2.38l-2.38-2.542l1.572-1.844l3.113-3.606l4.302-2.536l6.491-1.385l5.106-1.726
	l1.234,2.227l-1.191,1.345l2.804,3.223h5.26l0.193-1.531l0.538-2.152l1.995,3.683l3.647-1.531l3.498-3.538
	c0,0,3.765-0.764,4.612-0.764c0.841,0,0-3.536,0-3.536l-0.501-3.878l-2.576-4.457l0.694-4.492l0.54-2.302l1.996,2.302l2.149-1.846
	l1.769,2.034l2.727,2.15l0.688-2.338l1.348-0.382l1.382,1.761l1.382-1.19c0,0-0.228-3.608,1.077-3.608
	c1.303,0,1.652-1.844,1.652-1.844l3.725,3.266l1.151-1.31l4.111,1.537l-1.385,4.801h1.96l1.955,2.229v3.689l3.273-2.344l1.687,1.919
	v4.304l-2.192,0.809l-1.376,1.535l2.337,2.724c0,0,1.922-0.959,1.922-1.919c0-1.003,1.538,1.767,1.538,1.767v3.074l3.455-0.075
	l3.344,3.766l2.572,1.991l3.535,0.771l1.532-1.767l3.924,2.346l0.304-3.691l-1.651-6.415l-1.035-2.961v-2.723l-2.229-2.533v-3.537
	l4.266,0.616l2.34,2.728l3.765-1.188h4.308l-0.845-5.036l2.38-5.106l4.379-1.154l3.227-0.155l3.765,1.157v-2.918l-4.027-2.04
	l1.421-1.689l1.913-2.306l3.227,0.195l2.54-2.92l-1.164-0.806l-2.604-2.921l-2.881-1.768v-4.26l-1.111-1.193l-1.771,5.071
	l-1.999-1.536v-4.114l3.771-3.877l-0.537-2.727l-3.617-2.536l2.232-2.536h3.268l4.723-2.724l1.344-4.499l6.298-2.724l4.917-2.5
	c0,0,0.693,0.729,0.693,1.919c0,1.154-3.192,2.539-3.192,2.539l-1.195,5.263l2.886-1.578l2.536-2.92l3.225,1.154l-0.844,7.609
	l2.923-3.116v-3.725l-1.075-6.223l0.766-2.69l1.495-4.875l3.58-1.96l5.063-2.538l3.107,2.538c0,0-1.489,2.229-2.57,3.53
	c-1.074,1.229,1.154,2.154,1.154,2.154h3.774l2.37-3.146c0,0,2.77,3.338,3.268,3.914c0.503,0.577-0.498-4.491-0.498-4.491
	l4.533-2.921l3.224,1.962l3.571-0.233l3.268-3.692l3.383-4.879v-5.641l4.302-7.222l3.532-4.072l3.267-4.465l5.604-0.992l4.646-0.307
	l2.309,2.608l4.767,5.495l4.265-2.109l3.07-2.844h3.258l-1.572-1.852v-2.759l3.273-3.684v-6.417l1.495-3.341h2.536l2.187-2.536
	v-3.841l4.309-3.54l1.028-4.686l-1.72-1.916l0.691-2.381l-2.46-3.884l1.913-3.88l1.766-2.07l3.31,3.691l-2.539,2.84l2.619,2.92
	h3.912l2.69-1.16l3.765-1.951l3.344-0.963l0.888-3.15l-1.005-3.114l-1.882-0.42l-5.724-2.84l-4.379,0.765l-0.995-2.767h-3.384
	v-2.143l0.845-3.689l3.033-1.773l0.421-4.065l2.693-1.767h2.38l-0.999-3.307l0.999-3.493L854.6,79.479z"/>
</svg>
