<?xml version="1.0" encoding="utf-8"?>
<!DOCTYPE svg PUBLIC "-//W3C//DTD SVG 1.1//EN" "http://www.w3.org/Graphics/SVG/1.1/DTD/svg11.dtd">
<svg version="1.1" id="Layer_1" xmlns="http://www.w3.org/2000/svg" xmlns:xlink="http://www.w3.org/1999/xlink" x="0px" y="0px"
	 width="366.006px" height="400px" viewBox="0 0 366.006 400" enable-background="new 0 0 366.006 400" xml:space="preserve">
<g>
	<path fill-rule="evenodd" clip-rule="evenodd" fill="#306CB3" d="M183.003,19.168l163.579,163.58L183.003,346.582L19.425,182.748
		L183.003,19.168L183.003,19.168z M85.112,142.364H65.176V162.3l-20.448,20.447l20.448,20.958v19.426h19.426l98.401,98.145
		l98.147-98.145h19.682v-19.936l20.444-20.448l-20.444-20.192v-20.191h-20.193l-97.636-97.892L85.112,142.364L85.112,142.364z"/>
	<path fill-rule="evenodd" clip-rule="evenodd" fill="#306CB3" d="M270.926,142.62H94.824l88.179-88.18L270.926,142.62
		L270.926,142.62z M300.832,193.226v-20.702l10.477,10.224L300.832,193.226L300.832,193.226z M94.312,222.876h177.125
		l-88.435,88.432L94.312,222.876L94.312,222.876z M65.176,172.268v21.469l-10.479-10.99L65.176,172.268L65.176,172.268z"/>
	<path fill-rule="evenodd" clip-rule="evenodd" fill="#306CB3" d="M27.859,199.872l-17.125-17.124L183.003,10.479l172.27,172.268
		l-17.126,17.124l17.126,17.125l-172.27,172.521L10.734,216.997L27.859,199.872L27.859,199.872z M348.882,200.126l17.124,17.125
		L183.003,400L0,217.251l17.125-17.125L0,183.002L183.003,0l183.003,183.002L348.882,200.126L348.882,200.126z"/>
	<polygon fill-rule="evenodd" clip-rule="evenodd" fill="#306CB3" points="183.003,354.504 333.546,204.215 346.582,216.997 
		183.003,380.829 19.425,216.997 32.46,204.215 183.003,354.504 	"/>
	<path fill-rule="evenodd" clip-rule="evenodd" fill="#306CB3" d="M283.961,216.742h-20.608l-1.145-8.436h-11.445l-1.146,8.436
		h-20.607l13.738-69.268h25.188L283.961,216.742L283.961,216.742z M261.294,190.16l-5.036-16.103l-4.811,16.103H261.294
		L261.294,190.16z"/>
	<polygon fill-rule="evenodd" clip-rule="evenodd" fill="#306CB3" points="177.57,216.742 177.57,147.475 196.269,147.475 
		196.269,168.178 206.426,147.475 226.74,147.475 211.967,181.47 227.664,216.742 208.273,216.742 196.269,195.015 196.269,216.742 
		177.57,216.742 	"/>
	<polygon fill-rule="evenodd" clip-rule="evenodd" fill="#306CB3" points="134.987,216.742 134.987,147.475 170.23,147.475 
		170.23,163.833 155.38,163.833 155.38,174.568 168.647,174.568 168.647,188.881 155.38,188.881 155.38,200.126 171.023,200.126 
		171.023,216.742 134.987,216.742 	"/>
	<polygon fill-rule="evenodd" clip-rule="evenodd" fill="#306CB3" points="93.83,216.742 78.412,147.475 97.809,147.475 
		105.27,178.146 114.471,147.475 133.618,147.475 114.222,216.742 93.83,216.742 	"/>
</g>
</svg>
