<?xml version="1.0" encoding="utf-8"?>
<!-- Generator: Adobe Illustrator 15.1.0, SVG Export Plug-In . SVG Version: 6.00 Build 0)  -->
<!DOCTYPE svg PUBLIC "-//W3C//DTD SVG 1.1//EN" "http://www.w3.org/Graphics/SVG/1.1/DTD/svg11.dtd">
<svg version="1.1" id="Layer_1" xmlns="http://www.w3.org/2000/svg" xmlns:xlink="http://www.w3.org/1999/xlink" x="0px" y="0px"
	  viewBox="0 0 52.759 35.641" enable-background="new 0 0 52.759 35.641" xml:space="preserve">
<path fill="#FFFFFF" d="M24.333,3.637c-0.022,0-0.043,0.001-0.065,0.001c-0.003,0-0.007-0.001-0.011-0.001
	c-0.005,0-0.011,0.001-0.017,0.001C11.87,3.67,1.773,10.098,1.047,18.203H1v1.938h0.054c0.775,8.073,10.849,14.466,23.186,14.499
	c0.005,0,0.011,0.001,0.017,0.001c0.004,0,0.008-0.001,0.011-0.001c0.022,0,0.043,0.001,0.065,0.001
	c12.887,0,23.333-6.941,23.333-15.502S37.221,3.637,24.333,3.637z M45.399,18.203h-4.242c-0.068-1.037-0.245-2.044-0.523-3.016
	C43.103,16.124,44.748,17.2,45.399,18.203z M39.218,18.203h-6.755c-0.056-1.784-0.264-3.49-0.614-5.062
	c2.44,0.308,4.616,0.748,6.47,1.277C38.809,15.611,39.118,16.88,39.218,18.203z M25.226,5.777c1.481,0.573,2.945,2.414,3.963,5.148
	c-1.281-0.098-2.6-0.156-3.949-0.175L25.226,5.777z M23.289,5.777l0.013,4.975c-1.36,0.021-2.69,0.085-3.981,0.187
	C20.339,8.196,21.805,6.351,23.289,5.777z M23.308,12.698l0.015,5.505h-5.333c0.064-1.927,0.319-3.697,0.715-5.265
	C20.157,12.806,21.693,12.724,23.308,12.698z M23.328,20.141l0.015,5.439c-1.627-0.024-3.175-0.107-4.639-0.241
	c-0.392-1.551-0.646-3.296-0.714-5.198H23.328z M23.348,27.526l0.014,4.999c-1.509-0.541-3.006-2.399-4.041-5.186
	C20.626,27.442,21.971,27.505,23.348,27.526z M25.299,32.476l-0.014-4.949c1.333-0.02,2.637-0.079,3.903-0.175
	C28.188,30.042,26.755,31.872,25.299,32.476z M25.281,25.58l-0.015-5.439h5.259c-0.067,1.907-0.323,3.659-0.717,5.212
	C28.376,25.479,26.865,25.557,25.281,25.58z M25.26,18.203l-0.015-5.507c1.598,0.022,3.121,0.1,4.562,0.228
	c0.398,1.571,0.656,3.346,0.719,5.279H25.26z M31.292,11.122c-0.636-1.976-1.495-3.666-2.518-4.935
	c3.499,0.991,6.435,3.131,8.308,5.921C35.305,11.689,33.362,11.355,31.292,11.122z M17.216,11.141
	c-2.01,0.231-3.9,0.559-5.631,0.967c1.834-2.732,4.69-4.833,8.093-5.85C18.679,7.522,17.84,9.196,17.216,11.141z M16.662,13.162
	c-0.347,1.566-0.554,3.265-0.61,5.041H9.449c0.101-1.323,0.41-2.592,0.899-3.784C12.163,13.901,14.286,13.469,16.662,13.162z
	 M7.511,18.203H3.269c0.651-1.003,2.296-2.079,4.765-3.016C7.755,16.159,7.578,17.167,7.511,18.203z M3.304,20.141h4.21
	c0.071,1.013,0.247,1.998,0.52,2.95C5.619,22.174,3.984,21.124,3.304,20.141z M9.453,20.141h6.601
	c0.06,1.752,0.266,3.429,0.608,4.975c-2.376-0.307-4.5-0.739-6.314-1.257C9.867,22.686,9.559,21.44,9.453,20.141z M17.216,27.136
	c0.625,1.945,1.463,3.62,2.462,4.883c-3.403-1.018-6.259-3.118-8.093-5.85C13.316,26.578,15.207,26.905,17.216,27.136z
	 M31.292,27.156c2.07-0.233,4.013-0.567,5.79-0.986c-1.874,2.79-4.809,4.93-8.308,5.921C29.798,30.822,30.657,29.131,31.292,27.156z
	 M31.849,25.136c0.346-1.552,0.552-3.235,0.612-4.995h6.753c-0.105,1.299-0.414,2.545-0.896,3.718
	C36.465,24.388,34.289,24.828,31.849,25.136z M41.153,20.141h4.209c-0.68,0.983-2.315,2.033-4.729,2.95
	C40.906,22.139,41.082,21.154,41.153,20.141z M44.745,15.07c-1.305-0.845-3.002-1.6-5.005-2.234c-0.974-2.006-2.4-3.78-4.157-5.228
	C39.895,9.305,43.19,11.944,44.745,15.07z M13.083,7.608c-1.757,1.448-3.183,3.222-4.157,5.228c-2.002,0.634-3.7,1.39-5.004,2.235
	C5.477,11.944,8.772,9.305,13.083,7.608z M3.922,23.207c1.305,0.845,3.002,1.6,5.004,2.235c0.974,2.006,2.4,3.78,4.157,5.228
	C8.772,28.973,5.477,26.333,3.922,23.207z M35.583,30.669c1.757-1.448,3.184-3.222,4.157-5.228c2.002-0.635,3.7-1.39,5.005-2.234
	C43.19,26.333,39.895,28.973,35.583,30.669z"/>
</svg>
